<svg width="1336" height="439" viewBox="0 0 1336 439" fill="none" xmlns="http://www.w3.org/2000/svg">
<g clip-path="url(#clip0_417_3)">
<mask id="mask0_417_3" style="mask-type:luminance" maskUnits="userSpaceOnUse" x="0" y="-100" width="1336" height="514">
<path d="M1336 -100H0V414H1336V-100Z" fill="white"/>
</mask>
<g mask="url(#mask0_417_3)">
<path d="M1196 239L134 239" stroke="black" stroke-width="16"/>
</g>
<path d="M89.2653 4.104C91.2813 3.72 93.4893 3.432 95.8893 3.24C98.3373 3 100.761 2.88 103.161 2.88C105.657 2.88 108.153 3.096 110.649 3.528C113.193 3.912 115.473 4.728 117.489 5.976C119.505 7.176 121.137 8.88 122.385 11.088C123.681 13.248 124.329 16.08 124.329 19.584C124.329 22.752 123.777 25.44 122.673 27.648C121.569 29.808 120.105 31.584 118.281 32.976C116.457 34.368 114.369 35.376 112.017 36C109.713 36.624 107.313 36.936 104.817 36.936C104.577 36.936 104.193 36.936 103.665 36.936C103.137 36.936 102.585 36.936 102.009 36.936C101.433 36.888 100.857 36.84 100.281 36.792C99.7533 36.744 99.3693 36.696 99.1293 36.648V54H89.2653V4.104ZM103.953 11.376C102.993 11.376 102.081 11.424 101.217 11.52C100.353 11.568 99.6573 11.64 99.1293 11.736V28.08C99.3213 28.128 99.6093 28.176 99.9933 28.224C100.377 28.272 100.785 28.32 101.217 28.368C101.649 28.368 102.057 28.368 102.441 28.368C102.873 28.368 103.185 28.368 103.377 28.368C104.673 28.368 105.945 28.248 107.193 28.008C108.489 27.768 109.641 27.336 110.649 26.712C111.657 26.04 112.449 25.128 113.025 23.976C113.649 22.824 113.961 21.312 113.961 19.44C113.961 17.856 113.673 16.56 113.097 15.552C112.521 14.496 111.753 13.656 110.793 13.032C109.881 12.408 108.825 11.976 107.625 11.736C106.425 11.496 105.201 11.376 103.953 11.376ZM131.476 3.6H141.34V54H131.476V3.6ZM151 4.104C152.104 3.912 153.28 3.744 154.528 3.6C155.824 3.408 157.096 3.264 158.344 3.168C159.64 3.072 160.888 3 162.088 2.952C163.288 2.904 164.392 2.88 165.4 2.88C167.752 2.88 170.056 3.096 172.312 3.528C174.616 3.96 176.656 4.704 178.432 5.76C180.256 6.816 181.696 8.28 182.752 10.152C183.856 11.976 184.408 14.28 184.408 17.064C184.408 21.192 183.448 24.552 181.528 27.144C179.608 29.736 177.04 31.536 173.824 32.544L177.352 34.776L188.872 54H177.496L166.048 34.272L160.864 33.336V54H151V4.104ZM166.12 11.664C165.112 11.664 164.104 11.688 163.096 11.736C162.136 11.784 161.392 11.88 160.864 12.024V26.64H165.04C167.776 26.64 169.96 26.016 171.592 24.768C173.224 23.52 174.04 21.456 174.04 18.576C174.04 16.416 173.368 14.736 172.024 13.536C170.68 12.288 168.712 11.664 166.12 11.664ZM226.208 54H194.312V3.6H204.176V45.216H226.208V54ZM253.041 40.464C253.041 38.928 252.465 37.68 251.313 36.72C250.209 35.76 248.793 34.896 247.065 34.128C245.385 33.312 243.537 32.496 241.521 31.68C239.553 30.816 237.705 29.784 235.977 28.584C234.297 27.336 232.881 25.8 231.729 23.976C230.625 22.152 230.073 19.824 230.073 16.992C230.073 14.544 230.481 12.432 231.297 10.656C232.113 8.832 233.265 7.32 234.753 6.12C236.289 4.92 238.089 4.032 240.153 3.456C242.217 2.88 244.521 2.592 247.065 2.592C249.993 2.592 252.753 2.856 255.345 3.384C257.937 3.864 260.073 4.584 261.753 5.544L258.657 13.824C257.601 13.152 256.017 12.552 253.905 12.024C251.793 11.448 249.513 11.16 247.065 11.16C244.761 11.16 242.985 11.616 241.737 12.528C240.537 13.44 239.937 14.664 239.937 16.2C239.937 17.64 240.489 18.84 241.593 19.8C242.745 20.76 244.161 21.648 245.841 22.464C247.569 23.28 249.417 24.12 251.385 24.984C253.401 25.848 255.249 26.904 256.929 28.152C258.657 29.352 260.073 30.864 261.177 32.688C262.329 34.464 262.905 36.696 262.905 39.384C262.905 42.072 262.449 44.4 261.537 46.368C260.673 48.288 259.425 49.896 257.793 51.192C256.209 52.488 254.265 53.448 251.961 54.072C249.705 54.696 247.209 55.008 244.473 55.008C240.873 55.008 237.705 54.672 234.969 54C232.233 53.328 230.217 52.656 228.921 51.984L232.089 43.56C232.617 43.848 233.289 44.16 234.105 44.496C234.969 44.832 235.929 45.144 236.985 45.432C238.041 45.72 239.145 45.96 240.297 46.152C241.497 46.344 242.721 46.44 243.969 46.44C246.897 46.44 249.129 45.96 250.665 45C252.249 43.992 253.041 42.48 253.041 40.464ZM317.567 15.912C317.567 18.36 317.111 20.832 316.199 23.328C315.335 25.824 314.207 28.272 312.815 30.672C311.471 33.072 309.959 35.4 308.279 37.656C306.647 39.864 305.039 41.904 303.455 43.776L299.639 46.728V47.088L304.823 46.08H318.647V54H288.335V49.176C289.487 47.976 290.783 46.584 292.223 45C293.663 43.368 295.103 41.664 296.543 39.888C298.031 38.064 299.471 36.192 300.863 34.272C302.255 32.352 303.503 30.432 304.607 28.512C305.711 26.544 306.575 24.648 307.199 22.824C307.871 21 308.207 19.272 308.207 17.64C308.207 15.672 307.631 14.064 306.479 12.816C305.375 11.52 303.599 10.872 301.151 10.872C299.615 10.872 298.031 11.208 296.399 11.88C294.815 12.504 293.471 13.32 292.367 14.328L288.623 7.704C290.495 6.168 292.607 4.944 294.959 4.032C297.359 3.072 300.167 2.592 303.383 2.592C305.447 2.592 307.343 2.88 309.071 3.456C310.799 4.032 312.287 4.872 313.535 5.976C314.783 7.08 315.767 8.472 316.487 10.152C317.207 11.784 317.567 13.704 317.567 15.912ZM327.099 28.728C327.099 19.896 328.611 13.344 331.635 9.072C334.659 4.752 339.003 2.592 344.667 2.592C350.715 2.592 355.155 4.728 357.987 9C360.819 13.224 362.235 19.8 362.235 28.728C362.235 37.608 360.699 44.208 357.627 48.528C354.603 52.848 350.259 55.008 344.595 55.008C338.595 55.008 334.179 52.752 331.347 48.24C328.515 43.68 327.099 37.176 327.099 28.728ZM336.459 28.728C336.459 34.584 337.083 39.12 338.331 42.336C339.627 45.504 341.739 47.088 344.667 47.088C347.499 47.088 349.563 45.624 350.859 42.696C352.203 39.768 352.875 35.112 352.875 28.728C352.875 22.92 352.251 18.432 351.003 15.264C349.755 12.096 347.619 10.512 344.595 10.512C341.715 10.512 339.627 12 338.331 14.976C337.083 17.952 336.459 22.536 336.459 28.728ZM399.27 15.912C399.27 18.36 398.814 20.832 397.902 23.328C397.038 25.824 395.91 28.272 394.518 30.672C393.174 33.072 391.662 35.4 389.982 37.656C388.35 39.864 386.742 41.904 385.158 43.776L381.342 46.728V47.088L386.526 46.08H400.35V54H370.038V49.176C371.19 47.976 372.486 46.584 373.926 45C375.366 43.368 376.806 41.664 378.246 39.888C379.734 38.064 381.174 36.192 382.566 34.272C383.958 32.352 385.206 30.432 386.31 28.512C387.414 26.544 388.278 24.648 388.902 22.824C389.574 21 389.91 19.272 389.91 17.64C389.91 15.672 389.334 14.064 388.182 12.816C387.078 11.52 385.302 10.872 382.854 10.872C381.318 10.872 379.734 11.208 378.102 11.88C376.518 12.504 375.174 13.32 374.07 14.328L370.326 7.704C372.198 6.168 374.31 4.944 376.662 4.032C379.062 3.072 381.87 2.592 385.086 2.592C387.15 2.592 389.046 2.88 390.774 3.456C392.502 4.032 393.99 4.872 395.238 5.976C396.486 7.08 397.47 8.472 398.19 10.152C398.91 11.784 399.27 13.704 399.27 15.912ZM413.194 46.08H423.202V17.64L424.282 12.744L420.826 16.992L414.418 21.384L410.458 15.984L426.874 2.736H432.13V46.08H441.922V54H413.194V46.08ZM470.312 3.6H480.176V54H470.312V3.6ZM511.652 54V33.552C511.652 30.624 511.22 28.512 510.356 27.216C509.54 25.92 508.124 25.272 506.108 25.272C504.332 25.272 502.82 25.8 501.572 26.856C500.372 27.864 499.508 29.136 498.98 30.672V54H489.62V18H497.036L498.116 22.752H498.404C499.508 21.216 500.972 19.872 502.796 18.72C504.62 17.568 506.972 16.992 509.852 16.992C511.628 16.992 513.212 17.232 514.604 17.712C515.996 18.192 517.172 18.984 518.132 20.088C519.092 21.192 519.812 22.704 520.292 24.624C520.772 26.496 521.012 28.824 521.012 31.608V54H511.652ZM525.11 18H530.078V11.232L539.438 8.568V18H548.222V25.92H539.438V39.744C539.438 42.24 539.678 44.04 540.158 45.144C540.686 46.2 541.646 46.728 543.038 46.728C543.998 46.728 544.814 46.632 545.486 46.44C546.206 46.248 546.998 45.96 547.862 45.576L549.518 52.776C548.222 53.4 546.71 53.928 544.982 54.36C543.254 54.792 541.502 55.008 539.726 55.008C536.414 55.008 533.966 54.168 532.382 52.488C530.846 50.76 530.078 47.952 530.078 44.064V25.92H525.11V18ZM582.404 50.904C580.964 52.056 578.996 53.04 576.5 53.856C574.052 54.624 571.436 55.008 568.652 55.008C562.844 55.008 558.596 53.328 555.908 49.968C553.22 46.56 551.876 41.904 551.876 36C551.876 29.664 553.388 24.912 556.412 21.744C559.436 18.576 563.684 16.992 569.156 16.992C570.98 16.992 572.756 17.232 574.484 17.712C576.212 18.192 577.748 18.984 579.092 20.088C580.436 21.192 581.516 22.68 582.332 24.552C583.148 26.424 583.556 28.752 583.556 31.536C583.556 32.544 583.484 33.624 583.34 34.776C583.244 35.928 583.076 37.128 582.836 38.376H561.236C561.38 41.4 562.148 43.68 563.54 45.216C564.98 46.752 567.284 47.52 570.452 47.52C572.42 47.52 574.172 47.232 575.708 46.656C577.292 46.032 578.492 45.408 579.308 44.784L582.404 50.904ZM569.012 24.48C566.564 24.48 564.74 25.224 563.54 26.712C562.388 28.152 561.692 30.096 561.452 32.544H574.844C575.036 29.952 574.628 27.96 573.62 26.568C572.66 25.176 571.124 24.48 569.012 24.48ZM610.039 26.784C608.551 26.256 607.207 25.992 606.007 25.992C604.327 25.992 602.911 26.448 601.759 27.36C600.655 28.224 599.911 29.352 599.527 30.744V54H590.167V18H597.439L598.519 22.752H598.807C599.623 20.976 600.727 19.608 602.119 18.648C603.511 17.688 605.143 17.208 607.015 17.208C608.263 17.208 609.679 17.472 611.263 18L610.039 26.784ZM637.441 54V33.552C637.441 30.624 637.009 28.512 636.145 27.216C635.329 25.92 633.913 25.272 631.897 25.272C630.121 25.272 628.609 25.8 627.361 26.856C626.161 27.864 625.297 29.136 624.769 30.672V54H615.409V18H622.825L623.905 22.752H624.193C625.297 21.216 626.761 19.872 628.585 18.72C630.409 17.568 632.761 16.992 635.641 16.992C637.417 16.992 639.001 17.232 640.393 17.712C641.785 18.192 642.961 18.984 643.921 20.088C644.881 21.192 645.601 22.704 646.081 24.624C646.561 26.496 646.801 28.824 646.801 31.608V54H637.441ZM654.427 20.088C656.347 19.224 658.627 18.552 661.267 18.072C663.907 17.544 666.667 17.28 669.547 17.28C672.043 17.28 674.131 17.592 675.811 18.216C677.491 18.792 678.811 19.632 679.771 20.736C680.779 21.84 681.475 23.16 681.859 24.696C682.291 26.232 682.507 27.96 682.507 29.88C682.507 31.992 682.435 34.128 682.291 36.288C682.147 38.4 682.051 40.488 682.003 42.552C682.003 44.616 682.075 46.632 682.219 48.6C682.363 50.52 682.723 52.344 683.299 54.072H675.667L674.155 49.104H673.795C672.835 50.592 671.491 51.888 669.763 52.992C668.083 54.048 665.899 54.576 663.211 54.576C661.531 54.576 660.019 54.336 658.675 53.856C657.331 53.328 656.179 52.608 655.219 51.696C654.259 50.736 653.515 49.632 652.987 48.384C652.459 47.088 652.195 45.648 652.195 44.064C652.195 41.856 652.675 40.008 653.635 38.52C654.643 36.984 656.059 35.76 657.883 34.848C659.755 33.888 661.963 33.24 664.507 32.904C667.099 32.52 669.979 32.4 673.147 32.544C673.483 29.856 673.291 27.936 672.571 26.784C671.851 25.584 670.243 24.984 667.747 24.984C665.875 24.984 663.883 25.176 661.771 25.56C659.707 25.944 658.003 26.448 656.659 27.072L654.427 20.088ZM666.307 46.872C668.179 46.872 669.667 46.464 670.771 45.648C671.875 44.784 672.691 43.872 673.219 42.912V38.232C671.731 38.088 670.291 38.064 668.899 38.16C667.555 38.256 666.355 38.472 665.299 38.808C664.243 39.144 663.403 39.624 662.779 40.248C662.155 40.872 661.843 41.664 661.843 42.624C661.843 43.968 662.227 45.024 662.995 45.792C663.811 46.512 664.915 46.872 666.307 46.872ZM686.618 18H691.586V11.232L700.946 8.568V18H709.73V25.92H700.946V39.744C700.946 42.24 701.186 44.04 701.666 45.144C702.194 46.2 703.154 46.728 704.546 46.728C705.506 46.728 706.322 46.632 706.994 46.44C707.714 46.248 708.506 45.96 709.37 45.576L711.026 52.776C709.73 53.4 708.218 53.928 706.49 54.36C704.762 54.792 703.01 55.008 701.234 55.008C697.922 55.008 695.474 54.168 693.89 52.488C692.354 50.76 691.586 47.952 691.586 44.064V25.92H686.618V18ZM716.327 18H725.687V54H716.327V18ZM714.959 7.848C714.959 6.456 715.463 5.28 716.471 4.32C717.527 3.312 718.967 2.808 720.791 2.808C722.615 2.808 724.079 3.312 725.183 4.32C726.335 5.28 726.911 6.456 726.911 7.848C726.911 9.24 726.335 10.416 725.183 11.376C724.079 12.288 722.615 12.744 720.791 12.744C718.967 12.744 717.527 12.288 716.471 11.376C715.463 10.416 714.959 9.24 714.959 7.848ZM733.071 36C733.071 29.904 734.559 25.224 737.535 21.96C740.511 18.648 744.687 16.992 750.063 16.992C752.943 16.992 755.439 17.448 757.551 18.36C759.663 19.272 761.415 20.568 762.807 22.248C764.199 23.88 765.231 25.872 765.903 28.224C766.623 30.576 766.983 33.168 766.983 36C766.983 42.096 765.495 46.8 762.519 50.112C759.591 53.376 755.439 55.008 750.063 55.008C747.183 55.008 744.687 54.552 742.575 53.64C740.463 52.728 738.687 51.456 737.247 49.824C735.855 48.144 734.799 46.128 734.079 43.776C733.407 41.424 733.071 38.832 733.071 36ZM742.719 36C742.719 37.584 742.863 39.048 743.151 40.392C743.439 41.736 743.871 42.912 744.447 43.92C745.023 44.928 745.767 45.72 746.679 46.296C747.639 46.824 748.767 47.088 750.063 47.088C752.511 47.088 754.335 46.2 755.535 44.424C756.735 42.648 757.335 39.84 757.335 36C757.335 32.688 756.783 30.024 755.679 28.008C754.575 25.944 752.703 24.912 750.063 24.912C747.759 24.912 745.959 25.776 744.663 27.504C743.367 29.232 742.719 32.064 742.719 36ZM795.503 54V33.552C795.503 30.624 795.071 28.512 794.207 27.216C793.391 25.92 791.975 25.272 789.959 25.272C788.183 25.272 786.671 25.8 785.423 26.856C784.223 27.864 783.359 29.136 782.831 30.672V54H773.471V18H780.887L781.967 22.752H782.255C783.359 21.216 784.823 19.872 786.647 18.72C788.471 17.568 790.823 16.992 793.703 16.992C795.479 16.992 797.063 17.232 798.455 17.712C799.847 18.192 801.023 18.984 801.983 20.088C802.943 21.192 803.663 22.704 804.143 24.624C804.623 26.496 804.863 28.824 804.863 31.608V54H795.503ZM812.49 20.088C814.41 19.224 816.69 18.552 819.33 18.072C821.97 17.544 824.73 17.28 827.61 17.28C830.106 17.28 832.194 17.592 833.874 18.216C835.554 18.792 836.874 19.632 837.834 20.736C838.842 21.84 839.538 23.16 839.922 24.696C840.354 26.232 840.57 27.96 840.57 29.88C840.57 31.992 840.498 34.128 840.354 36.288C840.21 38.4 840.114 40.488 840.066 42.552C840.066 44.616 840.138 46.632 840.282 48.6C840.426 50.52 840.786 52.344 841.362 54.072H833.73L832.218 49.104H831.858C830.898 50.592 829.554 51.888 827.826 52.992C826.146 54.048 823.962 54.576 821.274 54.576C819.594 54.576 818.082 54.336 816.738 53.856C815.394 53.328 814.242 52.608 813.282 51.696C812.322 50.736 811.578 49.632 811.05 48.384C810.522 47.088 810.258 45.648 810.258 44.064C810.258 41.856 810.738 40.008 811.698 38.52C812.706 36.984 814.122 35.76 815.946 34.848C817.818 33.888 820.026 33.24 822.57 32.904C825.162 32.52 828.042 32.4 831.21 32.544C831.546 29.856 831.354 27.936 830.634 26.784C829.914 25.584 828.306 24.984 825.81 24.984C823.938 24.984 821.946 25.176 819.834 25.56C817.77 25.944 816.066 26.448 814.722 27.072L812.49 20.088ZM824.37 46.872C826.242 46.872 827.73 46.464 828.834 45.648C829.938 44.784 830.754 43.872 831.282 42.912V38.232C829.794 38.088 828.354 38.064 826.962 38.16C825.618 38.256 824.418 38.472 823.362 38.808C822.306 39.144 821.466 39.624 820.842 40.248C820.218 40.872 819.906 41.664 819.906 42.624C819.906 43.968 820.29 45.024 821.058 45.792C821.874 46.512 822.978 46.872 824.37 46.872ZM858.072 41.904C858.072 43.584 858.288 44.808 858.72 45.576C859.152 46.344 859.848 46.728 860.808 46.728C861.384 46.728 861.936 46.68 862.464 46.584C863.04 46.488 863.736 46.272 864.552 45.936L865.56 53.28C864.792 53.664 863.616 54.048 862.032 54.432C860.448 54.816 858.816 55.008 857.136 55.008C854.4 55.008 852.312 54.384 850.872 53.136C849.432 51.84 848.712 49.728 848.712 46.8V3.6H858.072V41.904ZM921.927 15.336C921.927 16.584 921.759 17.832 921.423 19.08C921.135 20.328 920.631 21.48 919.911 22.536C919.191 23.544 918.255 24.456 917.103 25.272C915.951 26.04 914.559 26.616 912.927 27V27.432C914.367 27.672 915.735 28.08 917.031 28.656C918.327 29.232 919.455 30.024 920.415 31.032C921.375 32.04 922.119 33.264 922.647 34.704C923.223 36.144 923.511 37.848 923.511 39.816C923.511 42.408 922.959 44.664 921.855 46.584C920.751 48.456 919.263 49.992 917.391 51.192C915.567 52.392 913.479 53.28 911.127 53.856C908.775 54.432 906.351 54.72 903.855 54.72C903.039 54.72 901.983 54.72 900.687 54.72C899.439 54.72 898.071 54.672 896.583 54.576C895.143 54.528 893.655 54.432 892.119 54.288C890.631 54.144 889.263 53.928 888.015 53.64V3.96C888.927 3.816 889.959 3.672 891.111 3.528C892.311 3.384 893.583 3.264 894.927 3.168C896.271 3.072 897.639 3 899.031 2.952C900.471 2.904 901.887 2.88 903.279 2.88C905.631 2.88 907.911 3.072 910.119 3.456C912.375 3.792 914.367 4.416 916.095 5.328C917.871 6.24 919.287 7.512 920.343 9.144C921.399 10.776 921.927 12.84 921.927 15.336ZM903.927 46.584C905.127 46.584 906.279 46.44 907.383 46.152C908.535 45.864 909.543 45.432 910.407 44.856C911.271 44.232 911.967 43.464 912.495 42.552C913.023 41.64 913.287 40.56 913.287 39.312C913.287 37.728 912.975 36.48 912.351 35.568C911.727 34.656 910.911 33.96 909.903 33.48C908.895 32.952 907.767 32.616 906.519 32.472C905.271 32.328 904.023 32.256 902.775 32.256H897.519V46.152C897.759 46.248 898.143 46.32 898.671 46.368C899.199 46.416 899.751 46.464 900.327 46.512C900.951 46.512 901.575 46.536 902.199 46.584C902.871 46.584 903.447 46.584 903.927 46.584ZM900.687 24.768C901.359 24.768 902.127 24.744 902.991 24.696C903.903 24.648 904.647 24.576 905.223 24.48C907.047 23.904 908.607 23.04 909.903 21.888C911.247 20.736 911.919 19.224 911.919 17.352C911.919 16.104 911.679 15.072 911.199 14.256C910.719 13.44 910.071 12.792 909.255 12.312C908.487 11.832 907.599 11.496 906.591 11.304C905.583 11.112 904.527 11.016 903.423 11.016C902.175 11.016 901.023 11.04 899.967 11.088C898.911 11.136 898.095 11.208 897.519 11.304V24.768H900.687ZM959.138 50.904C957.698 52.056 955.73 53.04 953.234 53.856C950.786 54.624 948.17 55.008 945.386 55.008C939.578 55.008 935.33 53.328 932.642 49.968C929.954 46.56 928.61 41.904 928.61 36C928.61 29.664 930.122 24.912 933.146 21.744C936.17 18.576 940.418 16.992 945.89 16.992C947.714 16.992 949.49 17.232 951.218 17.712C952.946 18.192 954.482 18.984 955.826 20.088C957.17 21.192 958.25 22.68 959.066 24.552C959.882 26.424 960.29 28.752 960.29 31.536C960.29 32.544 960.218 33.624 960.074 34.776C959.978 35.928 959.81 37.128 959.57 38.376H937.97C938.114 41.4 938.882 43.68 940.274 45.216C941.714 46.752 944.018 47.52 947.186 47.52C949.154 47.52 950.906 47.232 952.442 46.656C954.026 46.032 955.226 45.408 956.042 44.784L959.138 50.904ZM945.746 24.48C943.298 24.48 941.474 25.224 940.274 26.712C939.122 28.152 938.426 30.096 938.186 32.544H951.578C951.77 29.952 951.362 27.96 950.354 26.568C949.394 25.176 947.858 24.48 945.746 24.48ZM988.933 54V33.552C988.933 30.624 988.501 28.512 987.637 27.216C986.821 25.92 985.405 25.272 983.389 25.272C981.613 25.272 980.101 25.8 978.853 26.856C977.653 27.864 976.789 29.136 976.261 30.672V54H966.901V18H974.317L975.397 22.752H975.685C976.789 21.216 978.253 19.872 980.077 18.72C981.901 17.568 984.253 16.992 987.133 16.992C988.909 16.992 990.493 17.232 991.885 17.712C993.277 18.192 994.453 18.984 995.413 20.088C996.373 21.192 997.093 22.704 997.573 24.624C998.053 26.496 998.293 28.824 998.293 31.608V54H988.933ZM1031.62 51.768C1030.18 52.824 1028.43 53.616 1026.37 54.144C1024.35 54.72 1022.26 55.008 1020.1 55.008C1017.22 55.008 1014.78 54.552 1012.76 53.64C1010.79 52.728 1009.18 51.456 1007.94 49.824C1006.69 48.144 1005.78 46.128 1005.2 43.776C1004.67 41.424 1004.41 38.832 1004.41 36C1004.41 29.904 1005.78 25.224 1008.51 21.96C1011.25 18.648 1015.23 16.992 1020.46 16.992C1023.1 16.992 1025.22 17.208 1026.8 17.64C1028.43 18.072 1029.9 18.624 1031.19 19.296L1028.96 26.928C1027.86 26.4 1026.75 25.992 1025.65 25.704C1024.59 25.416 1023.37 25.272 1021.98 25.272C1019.38 25.272 1017.42 26.136 1016.07 27.864C1014.73 29.544 1014.06 32.256 1014.06 36C1014.06 37.536 1014.22 38.952 1014.56 40.248C1014.9 41.544 1015.4 42.672 1016.07 43.632C1016.74 44.592 1017.61 45.36 1018.66 45.936C1019.77 46.464 1021.04 46.728 1022.48 46.728C1024.06 46.728 1025.41 46.536 1026.51 46.152C1027.62 45.72 1028.6 45.216 1029.46 44.64L1031.62 51.768ZM1059.32 54V33.552C1059.32 30.624 1058.91 28.512 1058.09 27.216C1057.28 25.92 1055.79 25.272 1053.63 25.272C1052.04 25.272 1050.58 25.824 1049.24 26.928C1047.94 27.984 1047.08 29.352 1046.64 31.032V54H1037.28V3.6H1046.64V22.032H1046.93C1048.08 20.496 1049.5 19.272 1051.18 18.36C1052.86 17.448 1055 16.992 1057.59 16.992C1059.41 16.992 1061.02 17.232 1062.41 17.712C1063.8 18.192 1064.96 18.984 1065.87 20.088C1066.83 21.192 1067.52 22.704 1067.96 24.624C1068.44 26.496 1068.68 28.824 1068.68 31.608V54H1059.32ZM1096.97 54V34.416C1096.97 31.104 1096.65 28.752 1096.03 27.36C1095.41 25.968 1094.11 25.272 1092.14 25.272C1090.51 25.272 1089.19 25.728 1088.18 26.64C1087.17 27.504 1086.41 28.632 1085.88 30.024V54H1076.52V18H1083.79L1084.87 22.752H1085.16C1086.26 21.216 1087.65 19.872 1089.33 18.72C1091.06 17.568 1093.27 16.992 1095.96 16.992C1098.26 16.992 1100.13 17.472 1101.57 18.432C1103.06 19.344 1104.21 20.904 1105.03 23.112C1106.13 21.24 1107.55 19.752 1109.28 18.648C1111.01 17.544 1113.09 16.992 1115.54 16.992C1117.56 16.992 1119.26 17.232 1120.65 17.712C1122.09 18.192 1123.25 19.032 1124.11 20.232C1125.02 21.384 1125.69 22.944 1126.13 24.912C1126.56 26.88 1126.77 29.376 1126.77 32.4V54H1117.41V33.768C1117.41 30.936 1117.1 28.824 1116.48 27.432C1115.9 25.992 1114.58 25.272 1112.52 25.272C1110.84 25.272 1109.49 25.728 1108.49 26.64C1107.53 27.552 1106.81 28.8 1106.33 30.384V54H1096.97ZM1134.24 20.088C1136.16 19.224 1138.44 18.552 1141.08 18.072C1143.72 17.544 1146.48 17.28 1149.36 17.28C1151.86 17.28 1153.94 17.592 1155.62 18.216C1157.3 18.792 1158.62 19.632 1159.58 20.736C1160.59 21.84 1161.29 23.16 1161.67 24.696C1162.1 26.232 1162.32 27.96 1162.32 29.88C1162.32 31.992 1162.25 34.128 1162.1 36.288C1161.96 38.4 1161.86 40.488 1161.82 42.552C1161.82 44.616 1161.89 46.632 1162.03 48.6C1162.18 50.52 1162.54 52.344 1163.11 54.072H1155.48L1153.97 49.104H1153.61C1152.65 50.592 1151.3 51.888 1149.58 52.992C1147.9 54.048 1145.71 54.576 1143.02 54.576C1141.34 54.576 1139.83 54.336 1138.49 53.856C1137.14 53.328 1135.99 52.608 1135.03 51.696C1134.07 50.736 1133.33 49.632 1132.8 48.384C1132.27 47.088 1132.01 45.648 1132.01 44.064C1132.01 41.856 1132.49 40.008 1133.45 38.52C1134.46 36.984 1135.87 35.76 1137.7 34.848C1139.57 33.888 1141.78 33.24 1144.32 32.904C1146.91 32.52 1149.79 32.4 1152.96 32.544C1153.3 29.856 1153.1 27.936 1152.38 26.784C1151.66 25.584 1150.06 24.984 1147.56 24.984C1145.69 24.984 1143.7 25.176 1141.58 25.56C1139.52 25.944 1137.82 26.448 1136.47 27.072L1134.24 20.088ZM1146.12 46.872C1147.99 46.872 1149.48 46.464 1150.58 45.648C1151.69 44.784 1152.5 43.872 1153.03 42.912V38.232C1151.54 38.088 1150.1 38.064 1148.71 38.16C1147.37 38.256 1146.17 38.472 1145.11 38.808C1144.06 39.144 1143.22 39.624 1142.59 40.248C1141.97 40.872 1141.66 41.664 1141.66 42.624C1141.66 43.968 1142.04 45.024 1142.81 45.792C1143.62 46.512 1144.73 46.872 1146.12 46.872ZM1190.05 26.784C1188.56 26.256 1187.21 25.992 1186.01 25.992C1184.33 25.992 1182.92 26.448 1181.77 27.36C1180.66 28.224 1179.92 29.352 1179.53 30.744V54H1170.17V18H1177.45L1178.53 22.752H1178.81C1179.63 20.976 1180.73 19.608 1182.13 18.648C1183.52 17.688 1185.15 17.208 1187.02 17.208C1188.27 17.208 1189.69 17.472 1191.27 18L1190.05 26.784ZM1207.3 39.096H1204.78V54H1195.42V3.6H1204.78V33.336L1206.94 32.328L1215.14 18H1225.44L1216.8 31.68L1213.13 34.416L1217.09 37.224L1226.81 54H1216.08L1207.3 39.096ZM1245.69 44.064C1245.69 43.104 1245.28 42.336 1244.46 41.76C1243.65 41.184 1242.64 40.656 1241.44 40.176C1240.24 39.696 1238.92 39.216 1237.48 38.736C1236.04 38.208 1234.72 37.512 1233.52 36.648C1232.32 35.736 1231.31 34.608 1230.5 33.264C1229.68 31.872 1229.27 30.096 1229.27 27.936C1229.27 24.384 1230.33 21.672 1232.44 19.8C1234.55 17.928 1237.6 16.992 1241.58 16.992C1244.32 16.992 1246.79 17.28 1249 17.856C1251.21 18.432 1252.94 19.08 1254.18 19.8L1252.1 26.568C1250.99 26.136 1249.6 25.68 1247.92 25.2C1246.24 24.72 1244.54 24.48 1242.81 24.48C1240.02 24.48 1238.63 25.56 1238.63 27.72C1238.63 28.584 1239.04 29.28 1239.86 29.808C1240.67 30.336 1241.68 30.84 1242.88 31.32C1244.08 31.752 1245.4 32.232 1246.84 32.76C1248.28 33.288 1249.6 33.984 1250.8 34.848C1252 35.664 1253.01 36.744 1253.82 38.088C1254.64 39.432 1255.05 41.16 1255.05 43.272C1255.05 46.92 1253.87 49.8 1251.52 51.912C1249.22 53.976 1245.74 55.008 1241.08 55.008C1238.54 55.008 1236.14 54.672 1233.88 54C1231.67 53.376 1229.87 52.632 1228.48 51.768L1231.07 44.784C1232.18 45.408 1233.64 46.032 1235.46 46.656C1237.29 47.232 1239.16 47.52 1241.08 47.52C1242.47 47.52 1243.58 47.256 1244.39 46.728C1245.26 46.2 1245.69 45.312 1245.69 44.064ZM303.673 113C303.673 106.904 305.161 102.224 308.137 98.96C311.113 95.648 315.289 93.992 320.665 93.992C323.545 93.992 326.041 94.448 328.153 95.36C330.265 96.272 332.017 97.568 333.409 99.248C334.801 100.88 335.833 102.872 336.505 105.224C337.225 107.576 337.585 110.168 337.585 113C337.585 119.096 336.097 123.8 333.121 127.112C330.193 130.376 326.041 132.008 320.665 132.008C317.785 132.008 315.289 131.552 313.177 130.64C311.065 129.728 309.289 128.456 307.849 126.824C306.457 125.144 305.401 123.128 304.681 120.776C304.009 118.424 303.673 115.832 303.673 113ZM313.321 113C313.321 114.584 313.465 116.048 313.753 117.392C314.041 118.736 314.473 119.912 315.049 120.92C315.625 121.928 316.369 122.72 317.281 123.296C318.241 123.824 319.369 124.088 320.665 124.088C323.113 124.088 324.937 123.2 326.137 121.424C327.337 119.648 327.937 116.84 327.937 113C327.937 109.688 327.385 107.024 326.281 105.008C325.177 102.944 323.305 101.912 320.665 101.912C318.361 101.912 316.561 102.776 315.265 104.504C313.969 106.232 313.321 109.064 313.321 113ZM339.917 95H344.885V92.984C344.885 88.424 345.845 85.136 347.765 83.12C349.685 81.056 352.469 80.024 356.117 80.024C359.957 80.024 363.149 80.48 365.693 81.392L363.893 88.88C362.789 88.496 361.805 88.256 360.941 88.16C360.125 88.016 359.261 87.944 358.349 87.944C357.389 87.944 356.621 88.088 356.045 88.376C355.517 88.664 355.109 89.12 354.821 89.744C354.581 90.32 354.413 91.064 354.317 91.976C354.269 92.84 354.245 93.848 354.245 95H362.165V102.92H354.245V131H344.885V102.92H339.917V95ZM384.789 81.104C385.893 80.912 387.069 80.744 388.317 80.6C389.613 80.408 390.885 80.264 392.133 80.168C393.429 80.072 394.677 80 395.877 79.952C397.077 79.904 398.181 79.88 399.189 79.88C401.541 79.88 403.845 80.096 406.101 80.528C408.405 80.96 410.445 81.704 412.221 82.76C414.045 83.816 415.485 85.28 416.541 87.152C417.645 88.976 418.197 91.28 418.197 94.064C418.197 98.192 417.237 101.552 415.317 104.144C413.397 106.736 410.829 108.536 407.613 109.544L411.141 111.776L422.661 131H411.285L399.837 111.272L394.653 110.336V131H384.789V81.104ZM399.909 88.664C398.901 88.664 397.893 88.688 396.885 88.736C395.925 88.784 395.181 88.88 394.653 89.024V103.64H398.829C401.565 103.64 403.749 103.016 405.381 101.768C407.013 100.52 407.829 98.456 407.829 95.576C407.829 93.416 407.157 91.736 405.813 90.536C404.469 89.288 402.501 88.664 399.909 88.664ZM453.24 127.904C451.8 129.056 449.832 130.04 447.336 130.856C444.888 131.624 442.272 132.008 439.488 132.008C433.68 132.008 429.432 130.328 426.744 126.968C424.056 123.56 422.712 118.904 422.712 113C422.712 106.664 424.224 101.912 427.248 98.744C430.272 95.576 434.52 93.992 439.992 93.992C441.816 93.992 443.592 94.232 445.32 94.712C447.048 95.192 448.584 95.984 449.928 97.088C451.272 98.192 452.352 99.68 453.168 101.552C453.984 103.424 454.392 105.752 454.392 108.536C454.392 109.544 454.32 110.624 454.176 111.776C454.08 112.928 453.912 114.128 453.672 115.376H432.072C432.216 118.4 432.984 120.68 434.376 122.216C435.816 123.752 438.12 124.52 441.288 124.52C443.256 124.52 445.008 124.232 446.544 123.656C448.128 123.032 449.328 122.408 450.144 121.784L453.24 127.904ZM439.848 101.48C437.4 101.48 435.576 102.224 434.376 103.712C433.224 105.152 432.528 107.096 432.288 109.544H445.68C445.872 106.952 445.464 104.96 444.456 103.568C443.496 102.176 441.96 101.48 439.848 101.48ZM460.786 97.088C462.706 96.224 464.986 95.552 467.626 95.072C470.266 94.544 473.026 94.28 475.906 94.28C478.402 94.28 480.49 94.592 482.17 95.216C483.85 95.792 485.17 96.632 486.13 97.736C487.138 98.84 487.834 100.16 488.218 101.696C488.65 103.232 488.866 104.96 488.866 106.88C488.866 108.992 488.794 111.128 488.65 113.288C488.506 115.4 488.41 117.488 488.362 119.552C488.362 121.616 488.434 123.632 488.578 125.6C488.722 127.52 489.082 129.344 489.658 131.072H482.026L480.514 126.104H480.154C479.194 127.592 477.85 128.888 476.122 129.992C474.442 131.048 472.258 131.576 469.57 131.576C467.89 131.576 466.378 131.336 465.034 130.856C463.69 130.328 462.538 129.608 461.578 128.696C460.618 127.736 459.874 126.632 459.346 125.384C458.818 124.088 458.554 122.648 458.554 121.064C458.554 118.856 459.034 117.008 459.994 115.52C461.002 113.984 462.418 112.76 464.242 111.848C466.114 110.888 468.322 110.24 470.866 109.904C473.458 109.52 476.338 109.4 479.506 109.544C479.842 106.856 479.65 104.936 478.93 103.784C478.21 102.584 476.602 101.984 474.106 101.984C472.234 101.984 470.242 102.176 468.13 102.56C466.066 102.944 464.362 103.448 463.018 104.072L460.786 97.088ZM472.666 123.872C474.538 123.872 476.026 123.464 477.13 122.648C478.234 121.784 479.05 120.872 479.578 119.912V115.232C478.09 115.088 476.65 115.064 475.258 115.16C473.914 115.256 472.714 115.472 471.658 115.808C470.602 116.144 469.762 116.624 469.138 117.248C468.514 117.872 468.202 118.664 468.202 119.624C468.202 120.968 468.586 122.024 469.354 122.792C470.17 123.512 471.274 123.872 472.666 123.872ZM527.321 118.328C527.321 120.344 527.345 122.36 527.393 124.376C527.441 126.392 527.657 128.624 528.041 131.072H521.345L520.049 126.392H519.761C518.801 128.072 517.409 129.44 515.585 130.496C513.809 131.504 511.697 132.008 509.249 132.008C504.737 132.008 501.233 130.52 498.737 127.544C496.241 124.568 494.993 119.912 494.993 113.576C494.993 107.432 496.385 102.656 499.169 99.248C501.953 95.84 506.033 94.136 511.409 94.136C512.897 94.136 514.121 94.232 515.081 94.424C516.041 94.568 517.001 94.832 517.961 95.216V80.6H527.321V118.328ZM511.409 124.088C513.233 124.088 514.673 123.656 515.729 122.792C516.785 121.88 517.529 120.584 517.961 118.904V103.64C517.289 103.112 516.545 102.728 515.729 102.488C514.913 102.2 513.857 102.056 512.561 102.056C509.921 102.056 507.929 102.944 506.585 104.72C505.289 106.496 504.641 109.544 504.641 113.864C504.641 116.936 505.169 119.408 506.225 121.28C507.329 123.152 509.057 124.088 511.409 124.088ZM536.398 95H545.758V131H536.398V95ZM535.03 84.848C535.03 83.456 535.534 82.28 536.542 81.32C537.598 80.312 539.038 79.808 540.862 79.808C542.686 79.808 544.15 80.312 545.254 81.32C546.406 82.28 546.982 83.456 546.982 84.848C546.982 86.24 546.406 87.416 545.254 88.376C544.15 89.288 542.686 89.744 540.862 89.744C539.038 89.744 537.598 89.288 536.542 88.376C535.534 87.416 535.03 86.24 535.03 84.848ZM576.902 131V110.552C576.902 107.624 576.47 105.512 575.606 104.216C574.79 102.92 573.374 102.272 571.358 102.272C569.582 102.272 568.07 102.8 566.822 103.856C565.622 104.864 564.758 106.136 564.23 107.672V131H554.87V95H562.286L563.366 99.752H563.654C564.758 98.216 566.222 96.872 568.046 95.72C569.87 94.568 572.222 93.992 575.102 93.992C576.878 93.992 578.462 94.232 579.854 94.712C581.246 95.192 582.422 95.984 583.382 97.088C584.342 98.192 585.062 99.704 585.542 101.624C586.022 103.496 586.262 105.824 586.262 108.608V131H576.902ZM624.56 131C624.56 136.232 623.144 140.072 620.312 142.52C617.48 145.016 613.52 146.264 608.432 146.264C604.976 146.264 602.24 146.024 600.224 145.544C598.256 145.064 596.768 144.56 595.76 144.032L597.704 136.616C598.808 137.048 600.08 137.48 601.52 137.912C603.008 138.344 604.832 138.56 606.992 138.56C610.256 138.56 612.464 137.84 613.616 136.4C614.816 135.008 615.416 133.04 615.416 130.496V128.192H615.128C613.448 130.448 610.472 131.576 606.2 131.576C601.544 131.576 598.064 130.136 595.76 127.256C593.504 124.376 592.376 119.864 592.376 113.72C592.376 107.288 593.912 102.416 596.984 99.104C600.056 95.792 604.52 94.136 610.376 94.136C613.448 94.136 616.184 94.352 618.584 94.784C621.032 95.216 623.024 95.72 624.56 96.296V131ZM608.72 124.088C610.544 124.088 611.936 123.68 612.896 122.864C613.904 122.048 614.672 120.824 615.2 119.192V102.992C613.712 102.368 611.864 102.056 609.656 102.056C607.256 102.056 605.384 102.968 604.04 104.792C602.696 106.568 602.024 109.424 602.024 113.36C602.024 116.864 602.6 119.528 603.752 121.352C604.904 123.176 606.56 124.088 608.72 124.088ZM673.09 119.84H657.61L653.794 131H643.93L662.074 80.24H669.346L687.49 131H677.122L673.09 119.84ZM660.13 111.92H670.93L667.186 100.688L665.674 92.768H665.314L663.802 100.76L660.13 111.92ZM715.78 128.768C714.34 129.824 712.588 130.616 710.524 131.144C708.508 131.72 706.42 132.008 704.26 132.008C701.38 132.008 698.932 131.552 696.916 130.64C694.948 129.728 693.34 128.456 692.092 126.824C690.844 125.144 689.932 123.128 689.356 120.776C688.828 118.424 688.563 115.832 688.563 113C688.563 106.904 689.932 102.224 692.668 98.96C695.404 95.648 699.388 93.992 704.62 93.992C707.26 93.992 709.372 94.208 710.956 94.64C712.588 95.072 714.052 95.624 715.348 96.296L713.116 103.928C712.012 103.4 710.908 102.992 709.804 102.704C708.748 102.416 707.524 102.272 706.132 102.272C703.54 102.272 701.572 103.136 700.228 104.864C698.884 106.544 698.212 109.256 698.212 113C698.212 114.536 698.38 115.952 698.716 117.248C699.052 118.544 699.556 119.672 700.228 120.632C700.9 121.592 701.764 122.36 702.82 122.936C703.924 123.464 705.196 123.728 706.636 123.728C708.22 123.728 709.564 123.536 710.668 123.152C711.772 122.72 712.756 122.216 713.62 121.64L715.78 128.768ZM743.472 131V110.552C743.472 107.624 743.064 105.512 742.248 104.216C741.432 102.92 739.944 102.272 737.784 102.272C736.2 102.272 734.736 102.824 733.392 103.928C732.096 104.984 731.232 106.352 730.8 108.032V131H721.44V80.6H730.8V99.032H731.088C732.24 97.496 733.656 96.272 735.336 95.36C737.016 94.448 739.152 93.992 741.744 93.992C743.568 93.992 745.176 94.232 746.568 94.712C747.96 95.192 749.112 95.984 750.024 97.088C750.984 98.192 751.68 99.704 752.112 101.624C752.592 103.496 752.832 105.824 752.832 108.608V131H743.472ZM761.538 95H770.898V131H761.538V95ZM760.17 84.848C760.17 83.456 760.674 82.28 761.682 81.32C762.738 80.312 764.178 79.808 766.002 79.808C767.826 79.808 769.29 80.312 770.394 81.32C771.546 82.28 772.122 83.456 772.122 84.848C772.122 86.24 771.546 87.416 770.394 88.376C769.29 89.288 767.826 89.744 766.002 89.744C764.178 89.744 762.738 89.288 761.682 88.376C760.674 87.416 760.17 86.24 760.17 84.848ZM808.81 127.904C807.37 129.056 805.402 130.04 802.906 130.856C800.458 131.624 797.842 132.008 795.058 132.008C789.25 132.008 785.002 130.328 782.314 126.968C779.626 123.56 778.282 118.904 778.282 113C778.282 106.664 779.794 101.912 782.818 98.744C785.842 95.576 790.09 93.992 795.562 93.992C797.386 93.992 799.162 94.232 800.89 94.712C802.618 95.192 804.154 95.984 805.498 97.088C806.842 98.192 807.922 99.68 808.738 101.552C809.554 103.424 809.962 105.752 809.962 108.536C809.962 109.544 809.89 110.624 809.746 111.776C809.65 112.928 809.482 114.128 809.242 115.376H787.642C787.786 118.4 788.554 120.68 789.946 122.216C791.386 123.752 793.69 124.52 796.858 124.52C798.826 124.52 800.578 124.232 802.114 123.656C803.698 123.032 804.898 122.408 805.714 121.784L808.81 127.904ZM795.418 101.48C792.97 101.48 791.146 102.224 789.946 103.712C788.794 105.152 788.098 107.096 787.858 109.544H801.25C801.442 106.952 801.034 104.96 800.026 103.568C799.066 102.176 797.53 101.48 795.418 101.48ZM828.044 113.864L829.268 119.408H829.628L830.636 113.72L836.756 95H846.836L831.788 131.36H826.1L810.476 95H821.348L828.044 113.864ZM878.209 127.904C876.769 129.056 874.801 130.04 872.305 130.856C869.857 131.624 867.241 132.008 864.457 132.008C858.649 132.008 854.401 130.328 851.713 126.968C849.025 123.56 847.681 118.904 847.681 113C847.681 106.664 849.193 101.912 852.217 98.744C855.241 95.576 859.489 93.992 864.961 93.992C866.785 93.992 868.561 94.232 870.289 94.712C872.017 95.192 873.553 95.984 874.897 97.088C876.241 98.192 877.321 99.68 878.137 101.552C878.953 103.424 879.361 105.752 879.361 108.536C879.361 109.544 879.289 110.624 879.145 111.776C879.049 112.928 878.881 114.128 878.641 115.376H857.041C857.185 118.4 857.953 120.68 859.345 122.216C860.785 123.752 863.089 124.52 866.257 124.52C868.225 124.52 869.977 124.232 871.513 123.656C873.097 123.032 874.297 122.408 875.113 121.784L878.209 127.904ZM864.817 101.48C862.369 101.48 860.545 102.224 859.345 103.712C858.193 105.152 857.497 107.096 857.257 109.544H870.649C870.841 106.952 870.433 104.96 869.425 103.568C868.465 102.176 866.929 101.48 864.817 101.48ZM906.419 131V111.416C906.419 108.104 906.107 105.752 905.483 104.36C904.859 102.968 903.563 102.272 901.595 102.272C899.963 102.272 898.643 102.728 897.635 103.64C896.627 104.504 895.859 105.632 895.331 107.024V131H885.971V95H893.243L894.323 99.752H894.611C895.715 98.216 897.107 96.872 898.787 95.72C900.515 94.568 902.723 93.992 905.411 93.992C907.715 93.992 909.587 94.472 911.027 95.432C912.515 96.344 913.667 97.904 914.483 100.112C915.587 98.24 917.003 96.752 918.731 95.648C920.459 94.544 922.547 93.992 924.995 93.992C927.011 93.992 928.715 94.232 930.107 94.712C931.547 95.192 932.699 96.032 933.563 97.232C934.475 98.384 935.147 99.944 935.579 101.912C936.011 103.88 936.227 106.376 936.227 109.4V131H926.867V110.768C926.867 107.936 926.555 105.824 925.931 104.432C925.355 102.992 924.035 102.272 921.971 102.272C920.291 102.272 918.947 102.728 917.939 103.64C916.979 104.552 916.259 105.8 915.779 107.384V131H906.419ZM972.709 127.904C971.269 129.056 969.301 130.04 966.805 130.856C964.357 131.624 961.741 132.008 958.957 132.008C953.149 132.008 948.901 130.328 946.213 126.968C943.525 123.56 942.181 118.904 942.181 113C942.181 106.664 943.693 101.912 946.717 98.744C949.741 95.576 953.989 93.992 959.461 93.992C961.285 93.992 963.061 94.232 964.789 94.712C966.517 95.192 968.053 95.984 969.397 97.088C970.741 98.192 971.821 99.68 972.637 101.552C973.453 103.424 973.861 105.752 973.861 108.536C973.861 109.544 973.789 110.624 973.645 111.776C973.549 112.928 973.381 114.128 973.141 115.376H951.541C951.685 118.4 952.453 120.68 953.845 122.216C955.285 123.752 957.589 124.52 960.757 124.52C962.725 124.52 964.477 124.232 966.013 123.656C967.597 123.032 968.797 122.408 969.613 121.784L972.709 127.904ZM959.317 101.48C956.869 101.48 955.045 102.224 953.845 103.712C952.693 105.152 951.997 107.096 951.757 109.544H965.149C965.341 106.952 964.933 104.96 963.925 103.568C962.965 102.176 961.429 101.48 959.317 101.48ZM1002.5 131V110.552C1002.5 107.624 1002.07 105.512 1001.21 104.216C1000.39 102.92 998.975 102.272 996.959 102.272C995.183 102.272 993.671 102.8 992.423 103.856C991.223 104.864 990.359 106.136 989.831 107.672V131H980.471V95H987.887L988.967 99.752H989.255C990.359 98.216 991.823 96.872 993.647 95.72C995.471 94.568 997.823 93.992 1000.7 93.992C1002.48 93.992 1004.06 94.232 1005.46 94.712C1006.85 95.192 1008.02 95.984 1008.98 97.088C1009.94 98.192 1010.66 99.704 1011.14 101.624C1011.62 103.496 1011.86 105.824 1011.86 108.608V131H1002.5ZM1015.96 95H1020.93V88.232L1030.29 85.568V95H1039.07V102.92H1030.29V116.744C1030.29 119.24 1030.53 121.04 1031.01 122.144C1031.54 123.2 1032.5 123.728 1033.89 123.728C1034.85 123.728 1035.67 123.632 1036.34 123.44C1037.06 123.248 1037.85 122.96 1038.71 122.576L1040.37 129.776C1039.07 130.4 1037.56 130.928 1035.83 131.36C1034.11 131.792 1032.35 132.008 1030.58 132.008C1027.27 132.008 1024.82 131.168 1023.23 129.488C1021.7 127.76 1020.93 124.952 1020.93 121.064V102.92H1015.96V95Z" fill="black"/>
<path d="M80.735 344.39H67.405L64.119 354H55.625L71.249 310.29H77.511L93.135 354H84.207L80.735 344.39ZM69.575 337.57H78.875L75.651 327.898L74.349 321.078H74.039L72.737 327.96L69.575 337.57ZM123.048 343.088C123.048 344.824 123.069 346.56 123.11 348.296C123.151 350.032 123.337 351.954 123.668 354.062H117.902L116.786 350.032H116.538C115.711 351.479 114.513 352.657 112.942 353.566C111.413 354.434 109.594 354.868 107.486 354.868C103.601 354.868 100.583 353.587 98.4341 351.024C96.2847 348.461 95.2101 344.452 95.2101 338.996C95.2101 333.705 96.4087 329.593 98.8061 326.658C101.203 323.723 104.717 322.256 109.346 322.256C110.627 322.256 111.681 322.339 112.508 322.504C113.335 322.628 114.161 322.855 114.988 323.186V310.6H123.048V343.088ZM109.346 348.048C110.917 348.048 112.157 347.676 113.066 346.932C113.975 346.147 114.616 345.031 114.988 343.584V330.44C114.409 329.985 113.769 329.655 113.066 329.448C112.363 329.2 111.454 329.076 110.338 329.076C108.065 329.076 106.349 329.841 105.192 331.37C104.076 332.899 103.518 335.524 103.518 339.244C103.518 341.889 103.973 344.018 104.882 345.63C105.833 347.242 107.321 348.048 109.346 348.048ZM140.846 339.244L141.9 344.018H142.21L143.078 339.12L148.348 323H157.028L144.07 354.31H139.172L125.718 323H135.08L140.846 339.244ZM159.481 324.798C161.134 324.054 163.097 323.475 165.371 323.062C167.644 322.607 170.021 322.38 172.501 322.38C174.65 322.38 176.448 322.649 177.895 323.186C179.341 323.682 180.478 324.405 181.305 325.356C182.173 326.307 182.772 327.443 183.103 328.766C183.475 330.089 183.661 331.577 183.661 333.23C183.661 335.049 183.599 336.888 183.475 338.748C183.351 340.567 183.268 342.365 183.227 344.142C183.227 345.919 183.289 347.655 183.413 349.35C183.537 351.003 183.847 352.574 184.343 354.062H177.771L176.469 349.784H176.159C175.332 351.065 174.175 352.181 172.687 353.132C171.24 354.041 169.359 354.496 167.045 354.496C165.598 354.496 164.296 354.289 163.139 353.876C161.981 353.421 160.989 352.801 160.163 352.016C159.336 351.189 158.695 350.239 158.241 349.164C157.786 348.048 157.559 346.808 157.559 345.444C157.559 343.543 157.972 341.951 158.799 340.67C159.667 339.347 160.886 338.293 162.457 337.508C164.069 336.681 165.97 336.123 168.161 335.834C170.393 335.503 172.873 335.4 175.601 335.524C175.89 333.209 175.725 331.556 175.105 330.564C174.485 329.531 173.1 329.014 170.951 329.014C169.339 329.014 167.623 329.179 165.805 329.51C164.027 329.841 162.56 330.275 161.403 330.812L159.481 324.798ZM169.711 347.862C171.323 347.862 172.604 347.511 173.555 346.808C174.505 346.064 175.208 345.279 175.663 344.452V340.422C174.381 340.298 173.141 340.277 171.943 340.36C170.785 340.443 169.752 340.629 168.843 340.918C167.933 341.207 167.21 341.621 166.673 342.158C166.135 342.695 165.867 343.377 165.867 344.204C165.867 345.361 166.197 346.271 166.859 346.932C167.561 347.552 168.512 347.862 169.711 347.862ZM209.397 354V336.392C209.397 333.871 209.025 332.052 208.281 330.936C207.578 329.82 206.359 329.262 204.623 329.262C203.093 329.262 201.791 329.717 200.717 330.626C199.683 331.494 198.939 332.589 198.485 333.912V354H190.425V323H196.811L197.741 327.092H197.989C198.939 325.769 200.2 324.612 201.771 323.62C203.341 322.628 205.367 322.132 207.847 322.132C209.376 322.132 210.74 322.339 211.939 322.752C213.137 323.165 214.15 323.847 214.977 324.798C215.803 325.749 216.423 327.051 216.837 328.704C217.25 330.316 217.457 332.321 217.457 334.718V354H209.397ZM246.158 352.078C244.918 352.987 243.409 353.669 241.632 354.124C239.896 354.62 238.098 354.868 236.238 354.868C233.758 354.868 231.65 354.475 229.914 353.69C228.219 352.905 226.834 351.809 225.76 350.404C224.685 348.957 223.9 347.221 223.404 345.196C222.949 343.171 222.722 340.939 222.722 338.5C222.722 333.251 223.9 329.221 226.256 326.41C228.612 323.558 232.042 322.132 236.548 322.132C238.821 322.132 240.64 322.318 242.004 322.69C243.409 323.062 244.67 323.537 245.786 324.116L243.864 330.688C242.913 330.233 241.962 329.882 241.012 329.634C240.102 329.386 239.048 329.262 237.85 329.262C235.618 329.262 233.923 330.006 232.766 331.494C231.608 332.941 231.03 335.276 231.03 338.5C231.03 339.823 231.174 341.042 231.464 342.158C231.753 343.274 232.187 344.245 232.766 345.072C233.344 345.899 234.088 346.56 234.998 347.056C235.948 347.511 237.044 347.738 238.284 347.738C239.648 347.738 240.805 347.573 241.756 347.242C242.706 346.87 243.554 346.436 244.298 345.94L246.158 352.078ZM274.803 351.334C273.563 352.326 271.868 353.173 269.719 353.876C267.611 354.537 265.358 354.868 262.961 354.868C257.959 354.868 254.301 353.421 251.987 350.528C249.672 347.593 248.515 343.584 248.515 338.5C248.515 333.044 249.817 328.952 252.421 326.224C255.025 323.496 258.683 322.132 263.395 322.132C264.965 322.132 266.495 322.339 267.983 322.752C269.471 323.165 270.793 323.847 271.951 324.798C273.108 325.749 274.038 327.03 274.741 328.642C275.443 330.254 275.795 332.259 275.795 334.656C275.795 335.524 275.733 336.454 275.609 337.446C275.526 338.438 275.381 339.471 275.175 340.546H256.575C256.699 343.15 257.36 345.113 258.559 346.436C259.799 347.759 261.783 348.42 264.511 348.42C266.205 348.42 267.714 348.172 269.037 347.676C270.401 347.139 271.434 346.601 272.137 346.064L274.803 351.334ZM263.271 328.58C261.163 328.58 259.592 329.221 258.559 330.502C257.567 331.742 256.967 333.416 256.761 335.524H268.293C268.458 333.292 268.107 331.577 267.239 330.378C266.412 329.179 265.089 328.58 263.271 328.58ZM307.837 343.088C307.837 344.824 307.858 346.56 307.899 348.296C307.94 350.032 308.126 351.954 308.457 354.062H302.691L301.575 350.032H301.327C300.5 351.479 299.302 352.657 297.731 353.566C296.202 354.434 294.383 354.868 292.275 354.868C288.39 354.868 285.372 353.587 283.223 351.024C281.074 348.461 279.999 344.452 279.999 338.996C279.999 333.705 281.198 329.593 283.595 326.658C285.992 323.723 289.506 322.256 294.135 322.256C295.416 322.256 296.47 322.339 297.297 322.504C298.124 322.628 298.95 322.855 299.777 323.186V310.6H307.837V343.088ZM294.135 348.048C295.706 348.048 296.946 347.676 297.855 346.932C298.764 346.147 299.405 345.031 299.777 343.584V330.44C299.198 329.985 298.558 329.655 297.855 329.448C297.152 329.2 296.243 329.076 295.127 329.076C292.854 329.076 291.138 329.841 289.981 331.37C288.865 332.899 288.307 335.524 288.307 339.244C288.307 341.889 288.762 344.018 289.671 345.63C290.622 347.242 292.11 348.048 294.135 348.048Z" fill="black"/>
<path d="M104.554 436.64C102.653 434.656 101.041 432.465 99.7185 430.068C98.3958 427.712 97.3211 425.294 96.4945 422.814C95.7091 420.293 95.1305 417.771 94.7585 415.25C94.3865 412.687 94.2005 410.249 94.2005 407.934C94.2005 405.661 94.3865 403.263 94.7585 400.742C95.1305 398.221 95.7298 395.699 96.5565 393.178C97.3831 390.615 98.4578 388.115 99.7805 385.676C101.144 383.237 102.798 380.964 104.74 378.856L109.948 382.204C108.502 384.147 107.282 386.172 106.29 388.28C105.34 390.388 104.554 392.558 103.934 394.79C103.356 396.981 102.922 399.192 102.632 401.424C102.384 403.656 102.26 405.826 102.26 407.934C102.26 409.918 102.405 412.026 102.694 414.258C102.984 416.49 103.438 418.722 104.058 420.954C104.678 423.145 105.484 425.294 106.476 427.402C107.468 429.51 108.667 431.432 110.072 433.168L104.554 436.64ZM143.004 409.546C143.004 411.571 142.652 413.452 141.95 415.188C141.288 416.924 140.338 418.433 139.098 419.714C137.858 420.995 136.349 422.008 134.572 422.752C132.836 423.496 130.914 423.868 128.806 423.868C126.656 423.868 124.672 423.537 122.854 422.876C121.076 422.173 119.526 421.14 118.204 419.776C116.881 418.412 115.848 416.697 115.104 414.63C114.36 412.563 113.988 410.166 113.988 407.438C113.988 403.346 114.566 399.647 115.724 396.34C116.922 393.033 118.514 390.161 120.498 387.722C122.523 385.242 124.858 383.258 127.504 381.77C130.19 380.241 133.022 379.228 135.998 378.732L137.796 385.118C135.729 385.449 133.828 386.089 132.092 387.04C130.356 387.991 128.806 389.127 127.442 390.45C126.119 391.773 124.982 393.261 124.032 394.914C123.122 396.526 122.482 398.2 122.11 399.936C122.936 398.903 124.011 398.035 125.334 397.332C126.656 396.588 128.31 396.216 130.294 396.216C132.154 396.216 133.869 396.505 135.44 397.084C137.01 397.663 138.354 398.531 139.47 399.688C140.586 400.804 141.454 402.189 142.074 403.842C142.694 405.495 143.004 407.397 143.004 409.546ZM135.192 409.98C135.192 405.351 132.918 403.036 128.372 403.036C126.718 403.036 125.313 403.408 124.156 404.152C123.04 404.896 122.254 405.764 121.8 406.756C121.717 407.211 121.676 407.603 121.676 407.934C121.676 408.265 121.676 408.595 121.676 408.926C121.676 409.918 121.82 410.91 122.11 411.902C122.399 412.853 122.812 413.721 123.35 414.506C123.928 415.25 124.652 415.87 125.52 416.366C126.388 416.821 127.421 417.048 128.62 417.048C130.562 417.048 132.133 416.387 133.332 415.064C134.572 413.741 135.192 412.047 135.192 409.98ZM175.391 390.202C175.391 392.31 174.999 394.439 174.213 396.588C173.469 398.737 172.498 400.845 171.299 402.912C170.142 404.979 168.84 406.983 167.393 408.926C165.988 410.827 164.603 412.584 163.239 414.196L159.953 416.738V417.048L164.417 416.18H176.321V423H150.219V418.846C151.211 417.813 152.327 416.614 153.567 415.25C154.807 413.845 156.047 412.377 157.287 410.848C158.569 409.277 159.809 407.665 161.007 406.012C162.206 404.359 163.281 402.705 164.231 401.052C165.182 399.357 165.926 397.725 166.463 396.154C167.042 394.583 167.331 393.095 167.331 391.69C167.331 389.995 166.835 388.611 165.843 387.536C164.893 386.42 163.363 385.862 161.255 385.862C159.933 385.862 158.569 386.151 157.163 386.73C155.799 387.267 154.642 387.97 153.691 388.838L150.467 383.134C152.079 381.811 153.898 380.757 155.923 379.972C157.99 379.145 160.408 378.732 163.177 378.732C164.955 378.732 166.587 378.98 168.075 379.476C169.563 379.972 170.845 380.695 171.919 381.646C172.994 382.597 173.841 383.795 174.461 385.242C175.081 386.647 175.391 388.301 175.391 390.202ZM194.759 416.738C197.487 416.738 199.574 416.077 201.021 414.754C202.468 413.431 203.191 411.613 203.191 409.298C203.191 406.818 202.344 404.999 200.649 403.842C198.954 402.685 196.536 402.106 193.395 402.106L188.497 402.292V379.6H209.825V387.164H195.441V395.534L197.983 395.286C200.008 395.369 201.827 395.741 203.439 396.402C205.092 397.063 206.498 397.993 207.655 399.192C208.812 400.349 209.701 401.775 210.321 403.47C210.941 405.123 211.251 406.983 211.251 409.05C211.251 411.489 210.838 413.638 210.011 415.498C209.184 417.358 208.027 418.908 206.539 420.148C205.092 421.388 203.377 422.318 201.393 422.938C199.409 423.558 197.239 423.868 194.883 423.868C193.023 423.868 191.246 423.703 189.551 423.372C187.898 423.083 186.492 422.669 185.335 422.132L187.505 415.436C188.456 415.849 189.489 416.18 190.605 416.428C191.762 416.635 193.147 416.738 194.759 416.738ZM222.435 378.856C224.336 380.84 225.948 383.031 227.271 385.428C228.594 387.784 229.648 390.223 230.433 392.744C231.26 395.224 231.859 397.745 232.231 400.308C232.603 402.829 232.789 405.247 232.789 407.562C232.789 409.835 232.603 412.233 232.231 414.754C231.859 417.275 231.26 419.817 230.433 422.38C229.606 424.901 228.511 427.381 227.147 429.82C225.824 432.259 224.192 434.532 222.249 436.64L217.041 433.23C218.57 431.163 219.831 429.055 220.823 426.906C221.815 424.798 222.6 422.669 223.179 420.52C223.758 418.329 224.15 416.159 224.357 414.01C224.605 411.819 224.729 409.67 224.729 407.562C224.729 405.578 224.564 403.491 224.233 401.3C223.944 399.068 223.489 396.857 222.869 394.666C222.249 392.434 221.443 390.285 220.451 388.218C219.5 386.11 218.343 384.167 216.979 382.39L222.435 378.856Z" fill="black"/>
<path d="M458.554 436.64C456.653 434.656 455.041 432.465 453.718 430.068C452.396 427.712 451.321 425.294 450.494 422.814C449.709 420.293 449.13 417.771 448.758 415.25C448.386 412.687 448.2 410.249 448.2 407.934C448.2 405.661 448.386 403.263 448.758 400.742C449.13 398.221 449.73 395.699 450.556 393.178C451.383 390.615 452.458 388.115 453.78 385.676C455.144 383.237 456.798 380.964 458.74 378.856L463.948 382.204C462.502 384.147 461.282 386.172 460.29 388.28C459.34 390.388 458.554 392.558 457.934 394.79C457.356 396.981 456.922 399.192 456.632 401.424C456.384 403.656 456.26 405.826 456.26 407.934C456.26 409.918 456.405 412.026 456.694 414.258C456.984 416.49 457.438 418.722 458.058 420.954C458.678 423.145 459.484 425.294 460.476 427.402C461.468 429.51 462.667 431.432 464.072 433.168L458.554 436.64ZM478.404 416.738C481.132 416.738 483.219 416.077 484.666 414.754C486.112 413.431 486.836 411.613 486.836 409.298C486.836 406.818 485.988 404.999 484.294 403.842C482.599 402.685 480.181 402.106 477.04 402.106L472.142 402.292V379.6H493.47V387.164H479.086V395.534L481.628 395.286C483.653 395.369 485.472 395.741 487.084 396.402C488.737 397.063 490.142 397.993 491.3 399.192C492.457 400.349 493.346 401.775 493.966 403.47C494.586 405.123 494.896 406.983 494.896 409.05C494.896 411.489 494.482 413.638 493.656 415.498C492.829 417.358 491.672 418.908 490.184 420.148C488.737 421.388 487.022 422.318 485.038 422.938C483.054 423.558 480.884 423.868 478.528 423.868C476.668 423.868 474.89 423.703 473.196 423.372C471.542 423.083 470.137 422.669 468.98 422.132L471.15 415.436C472.1 415.849 473.134 416.18 474.25 416.428C475.407 416.635 476.792 416.738 478.404 416.738ZM513.581 416.738C516.309 416.738 518.397 416.077 519.843 414.754C521.29 413.431 522.013 411.613 522.013 409.298C522.013 406.818 521.166 404.999 519.471 403.842C517.777 402.685 515.359 402.106 512.217 402.106L507.319 402.292V379.6H528.647V387.164H514.263V395.534L516.805 395.286C518.831 395.369 520.649 395.741 522.261 396.402C523.915 397.063 525.32 397.993 526.477 399.192C527.635 400.349 528.523 401.775 529.143 403.47C529.763 405.123 530.073 406.983 530.073 409.05C530.073 411.489 529.66 413.638 528.833 415.498C528.007 417.358 526.849 418.908 525.361 420.148C523.915 421.388 522.199 422.318 520.215 422.938C518.231 423.558 516.061 423.868 513.705 423.868C511.845 423.868 510.068 423.703 508.373 423.372C506.72 423.083 505.315 422.669 504.157 422.132L506.327 415.436C507.278 415.849 508.311 416.18 509.427 416.428C510.585 416.635 511.969 416.738 513.581 416.738ZM537.599 401.238C537.599 393.633 538.901 387.991 541.505 384.312C544.109 380.592 547.85 378.732 552.727 378.732C557.935 378.732 561.758 380.571 564.197 384.25C566.636 387.887 567.855 393.55 567.855 401.238C567.855 408.885 566.532 414.568 563.887 418.288C561.283 422.008 557.542 423.868 552.665 423.868C547.498 423.868 543.696 421.925 541.257 418.04C538.818 414.113 537.599 408.513 537.599 401.238ZM545.659 401.238C545.659 406.281 546.196 410.187 547.271 412.956C548.387 415.684 550.206 417.048 552.727 417.048C555.166 417.048 556.943 415.787 558.059 413.266C559.216 410.745 559.795 406.735 559.795 401.238C559.795 396.237 559.258 392.372 558.183 389.644C557.108 386.916 555.269 385.552 552.665 385.552C550.185 385.552 548.387 386.833 547.271 389.396C546.196 391.959 545.659 395.906 545.659 401.238ZM576.435 378.856C578.336 380.84 579.948 383.031 581.271 385.428C582.594 387.784 583.648 390.223 584.433 392.744C585.26 395.224 585.859 397.745 586.231 400.308C586.603 402.829 586.789 405.247 586.789 407.562C586.789 409.835 586.603 412.233 586.231 414.754C585.859 417.275 585.26 419.817 584.433 422.38C583.606 424.901 582.511 427.381 581.147 429.82C579.824 432.259 578.192 434.532 576.249 436.64L571.041 433.23C572.57 431.163 573.831 429.055 574.823 426.906C575.815 424.798 576.6 422.669 577.179 420.52C577.758 418.329 578.15 416.159 578.357 414.01C578.605 411.819 578.729 409.67 578.729 407.562C578.729 405.578 578.564 403.491 578.233 401.3C577.944 399.068 577.489 396.857 576.869 394.666C576.249 392.434 575.443 390.285 574.451 388.218C573.5 386.11 572.343 384.167 570.979 382.39L576.435 378.856Z" fill="black"/>
<path d="M804.554 436.64C802.653 434.656 801.041 432.465 799.718 430.068C798.396 427.712 797.321 425.294 796.494 422.814C795.709 420.293 795.13 417.771 794.758 415.25C794.386 412.687 794.2 410.249 794.2 407.934C794.2 405.661 794.386 403.263 794.758 400.742C795.13 398.221 795.73 395.699 796.556 393.178C797.383 390.615 798.458 388.115 799.78 385.676C801.144 383.237 802.798 380.964 804.74 378.856L809.948 382.204C808.502 384.147 807.282 386.172 806.29 388.28C805.34 390.388 804.554 392.558 803.934 394.79C803.356 396.981 802.922 399.192 802.632 401.424C802.384 403.656 802.26 405.826 802.26 407.934C802.26 409.918 802.405 412.026 802.694 414.258C802.984 416.49 803.438 418.722 804.058 420.954C804.678 423.145 805.484 425.294 806.476 427.402C807.468 429.51 808.667 431.432 810.072 433.168L804.554 436.64ZM845.05 410.91H838.23V423H830.728V410.91H811.942V406.322L831.596 379.29H838.23V404.462H845.05V410.91ZM830.728 394.976L831.286 389.768H831.038L828.93 394.232L822.482 402.602L819.382 404.958L823.35 404.462H830.728V394.976ZM852.389 423L866.587 389.582L869.315 386.544L865.595 387.164H849.661V379.6H877.623V381.956L860.263 423H852.389ZM894.759 416.738C897.487 416.738 899.574 416.077 901.021 414.754C902.468 413.431 903.191 411.613 903.191 409.298C903.191 406.818 902.344 404.999 900.649 403.842C898.954 402.685 896.536 402.106 893.395 402.106L888.497 402.292V379.6H909.825V387.164H895.441V395.534L897.983 395.286C900.008 395.369 901.827 395.741 903.439 396.402C905.092 397.063 906.498 397.993 907.655 399.192C908.812 400.349 909.701 401.775 910.321 403.47C910.941 405.123 911.251 406.983 911.251 409.05C911.251 411.489 910.838 413.638 910.011 415.498C909.184 417.358 908.027 418.908 906.539 420.148C905.092 421.388 903.377 422.318 901.393 422.938C899.409 423.558 897.239 423.868 894.883 423.868C893.023 423.868 891.246 423.703 889.551 423.372C887.898 423.083 886.492 422.669 885.335 422.132L887.505 415.436C888.456 415.849 889.489 416.18 890.605 416.428C891.762 416.635 893.147 416.738 894.759 416.738ZM922.435 378.856C924.336 380.84 925.948 383.031 927.271 385.428C928.594 387.784 929.648 390.223 930.433 392.744C931.26 395.224 931.859 397.745 932.231 400.308C932.603 402.829 932.789 405.247 932.789 407.562C932.789 409.835 932.603 412.233 932.231 414.754C931.859 417.275 931.26 419.817 930.433 422.38C929.606 424.901 928.511 427.381 927.147 429.82C925.824 432.259 924.192 434.532 922.249 436.64L917.041 433.23C918.57 431.163 919.831 429.055 920.823 426.906C921.815 424.798 922.6 422.669 923.179 420.52C923.758 418.329 924.15 416.159 924.357 414.01C924.605 411.819 924.729 409.67 924.729 407.562C924.729 405.578 924.564 403.491 924.233 401.3C923.944 399.068 923.489 396.857 922.869 394.666C922.249 392.434 921.443 390.285 920.451 388.218C919.5 386.11 918.343 384.167 916.979 382.39L922.435 378.856Z" fill="black"/>
<path d="M1166.55 436.64C1164.65 434.656 1163.04 432.465 1161.72 430.068C1160.4 427.712 1159.32 425.294 1158.49 422.814C1157.71 420.293 1157.13 417.771 1156.76 415.25C1156.39 412.687 1156.2 410.249 1156.2 407.934C1156.2 405.661 1156.39 403.263 1156.76 400.742C1157.13 398.221 1157.73 395.699 1158.56 393.178C1159.38 390.615 1160.46 388.115 1161.78 385.676C1163.14 383.237 1164.8 380.964 1166.74 378.856L1171.95 382.204C1170.5 384.147 1169.28 386.172 1168.29 388.28C1167.34 390.388 1166.55 392.558 1165.93 394.79C1165.36 396.981 1164.92 399.192 1164.63 401.424C1164.38 403.656 1164.26 405.826 1164.26 407.934C1164.26 409.918 1164.41 412.026 1164.69 414.258C1164.98 416.49 1165.44 418.722 1166.06 420.954C1166.68 423.145 1167.48 425.294 1168.48 427.402C1169.47 429.51 1170.67 431.432 1172.07 433.168L1166.55 436.64ZM1207.05 410.91H1200.23V423H1192.73V410.91H1173.94V406.322L1193.6 379.29H1200.23V404.462H1207.05V410.91ZM1192.73 394.976L1193.29 389.768H1193.04L1190.93 394.232L1184.48 402.602L1181.38 404.958L1185.35 404.462H1192.73V394.976ZM1210.42 401.238C1210.42 393.633 1211.72 387.991 1214.33 384.312C1216.93 380.592 1220.67 378.732 1225.55 378.732C1230.76 378.732 1234.58 380.571 1237.02 384.25C1239.46 387.887 1240.68 393.55 1240.68 401.238C1240.68 408.885 1239.35 414.568 1236.71 418.288C1234.11 422.008 1230.36 423.868 1225.49 423.868C1220.32 423.868 1216.52 421.925 1214.08 418.04C1211.64 414.113 1210.42 408.513 1210.42 401.238ZM1218.48 401.238C1218.48 406.281 1219.02 410.187 1220.09 412.956C1221.21 415.684 1223.03 417.048 1225.55 417.048C1227.99 417.048 1229.77 415.787 1230.88 413.266C1232.04 410.745 1232.62 406.735 1232.62 401.238C1232.62 396.237 1232.08 392.372 1231.01 389.644C1229.93 386.916 1228.09 385.552 1225.49 385.552C1223.01 385.552 1221.21 386.833 1220.09 389.396C1219.02 391.959 1218.48 395.906 1218.48 401.238ZM1245.6 401.238C1245.6 393.633 1246.9 387.991 1249.51 384.312C1252.11 380.592 1255.85 378.732 1260.73 378.732C1265.94 378.732 1269.76 380.571 1272.2 384.25C1274.64 387.887 1275.86 393.55 1275.86 401.238C1275.86 408.885 1274.53 414.568 1271.89 418.288C1269.28 422.008 1265.54 423.868 1260.67 423.868C1255.5 423.868 1251.7 421.925 1249.26 418.04C1246.82 414.113 1245.6 408.513 1245.6 401.238ZM1253.66 401.238C1253.66 406.281 1254.2 410.187 1255.27 412.956C1256.39 415.684 1258.21 417.048 1260.73 417.048C1263.17 417.048 1264.94 415.787 1266.06 413.266C1267.22 410.745 1267.8 406.735 1267.8 401.238C1267.8 396.237 1267.26 392.372 1266.18 389.644C1265.11 386.916 1263.27 385.552 1260.67 385.552C1258.19 385.552 1256.39 386.833 1255.27 389.396C1254.2 391.959 1253.66 395.906 1253.66 401.238ZM1284.43 378.856C1286.34 380.84 1287.95 383.031 1289.27 385.428C1290.59 387.784 1291.65 390.223 1292.43 392.744C1293.26 395.224 1293.86 397.745 1294.23 400.308C1294.6 402.829 1294.79 405.247 1294.79 407.562C1294.79 409.835 1294.6 412.233 1294.23 414.754C1293.86 417.275 1293.26 419.817 1292.43 422.38C1291.61 424.901 1290.51 427.381 1289.15 429.82C1287.82 432.259 1286.19 434.532 1284.25 436.64L1279.04 433.23C1280.57 431.163 1281.83 429.055 1282.82 426.906C1283.81 424.798 1284.6 422.669 1285.18 420.52C1285.76 418.329 1286.15 416.159 1286.36 414.01C1286.6 411.819 1286.73 409.67 1286.73 407.562C1286.73 405.578 1286.56 403.491 1286.23 401.3C1285.94 399.068 1285.49 396.857 1284.87 394.666C1284.25 392.434 1283.44 390.285 1282.45 388.218C1281.5 386.11 1280.34 384.167 1278.98 382.39L1284.43 378.856Z" fill="black"/>
<path d="M489.556 335.834H473.684V354H465.19V310.6H473.684V328.27H489.556V310.6H498.05V354H489.556V335.834ZM506.132 323H514.192V354H506.132V323ZM504.954 314.258C504.954 313.059 505.388 312.047 506.256 311.22C507.166 310.352 508.406 309.918 509.976 309.918C511.547 309.918 512.808 310.352 513.758 311.22C514.75 312.047 515.246 313.059 515.246 314.258C515.246 315.457 514.75 316.469 513.758 317.296C512.808 318.081 511.547 318.474 509.976 318.474C508.406 318.474 507.166 318.081 506.256 317.296C505.388 316.469 504.954 315.457 504.954 314.258ZM548.265 354C548.265 358.505 547.046 361.812 544.607 363.92C542.168 366.069 538.758 367.144 534.377 367.144C531.401 367.144 529.045 366.937 527.309 366.524C525.614 366.111 524.333 365.677 523.465 365.222L525.139 358.836C526.09 359.208 527.185 359.58 528.425 359.952C529.706 360.324 531.277 360.51 533.137 360.51C535.948 360.51 537.849 359.89 538.841 358.65C539.874 357.451 540.391 355.757 540.391 353.566V351.582H540.143C538.696 353.525 536.134 354.496 532.455 354.496C528.446 354.496 525.449 353.256 523.465 350.776C521.522 348.296 520.551 344.411 520.551 339.12C520.551 333.581 521.874 329.386 524.519 326.534C527.164 323.682 531.008 322.256 536.051 322.256C538.696 322.256 541.052 322.442 543.119 322.814C545.227 323.186 546.942 323.62 548.265 324.116V354ZM534.625 348.048C536.196 348.048 537.394 347.697 538.221 346.994C539.089 346.291 539.75 345.237 540.205 343.832V329.882C538.924 329.345 537.332 329.076 535.431 329.076C533.364 329.076 531.752 329.861 530.595 331.432C529.438 332.961 528.859 335.421 528.859 338.81C528.859 341.827 529.355 344.121 530.347 345.692C531.339 347.263 532.765 348.048 534.625 348.048ZM574.251 354V336.392C574.251 333.871 573.9 332.052 573.197 330.936C572.494 329.82 571.213 329.262 569.353 329.262C567.989 329.262 566.728 329.737 565.571 330.688C564.455 331.597 563.711 332.775 563.339 334.222V354H555.279V310.6H563.339V326.472H563.587C564.579 325.149 565.798 324.095 567.245 323.31C568.692 322.525 570.531 322.132 572.763 322.132C574.334 322.132 575.718 322.339 576.917 322.752C578.116 323.165 579.108 323.847 579.893 324.798C580.72 325.749 581.319 327.051 581.691 328.704C582.104 330.316 582.311 332.321 582.311 334.718V354H574.251Z" fill="black"/>
<path d="M689.088 310.6H697.582V354H689.088V310.6ZM724.686 354V336.392C724.686 333.871 724.314 332.052 723.57 330.936C722.867 329.82 721.648 329.262 719.912 329.262C718.382 329.262 717.08 329.717 716.006 330.626C714.972 331.494 714.228 332.589 713.774 333.912V354H705.714V323H712.1L713.03 327.092H713.278C714.228 325.769 715.489 324.612 717.06 323.62C718.63 322.628 720.656 322.132 723.136 322.132C724.665 322.132 726.029 322.339 727.228 322.752C728.426 323.165 729.439 323.847 730.266 324.798C731.092 325.749 731.712 327.051 732.126 328.704C732.539 330.316 732.746 332.321 732.746 334.718V354H724.686ZM736.275 323H740.553V317.172L748.613 314.878V323H756.177V329.82H748.613V341.724C748.613 343.873 748.82 345.423 749.233 346.374C749.688 347.283 750.514 347.738 751.713 347.738C752.54 347.738 753.242 347.655 753.821 347.49C754.441 347.325 755.123 347.077 755.867 346.746L757.293 352.946C756.177 353.483 754.875 353.938 753.387 354.31C751.899 354.682 750.39 354.868 748.861 354.868C746.009 354.868 743.901 354.145 742.537 352.698C741.214 351.21 740.553 348.792 740.553 345.444V329.82H736.275V323ZM785.611 351.334C784.371 352.326 782.677 353.173 780.527 353.876C778.419 354.537 776.167 354.868 773.769 354.868C768.768 354.868 765.11 353.421 762.795 350.528C760.481 347.593 759.323 343.584 759.323 338.5C759.323 333.044 760.625 328.952 763.229 326.224C765.833 323.496 769.491 322.132 774.203 322.132C775.774 322.132 777.303 322.339 778.791 322.752C780.279 323.165 781.602 323.847 782.759 324.798C783.917 325.749 784.847 327.03 785.549 328.642C786.252 330.254 786.603 332.259 786.603 334.656C786.603 335.524 786.541 336.454 786.417 337.446C786.335 338.438 786.19 339.471 785.983 340.546H767.383C767.507 343.15 768.169 345.113 769.367 346.436C770.607 347.759 772.591 348.42 775.319 348.42C777.014 348.42 778.523 348.172 779.845 347.676C781.209 347.139 782.243 346.601 782.945 346.064L785.611 351.334ZM774.079 328.58C771.971 328.58 770.401 329.221 769.367 330.502C768.375 331.742 767.776 333.416 767.569 335.524H779.101C779.267 333.292 778.915 331.577 778.047 330.378C777.221 329.179 775.898 328.58 774.079 328.58ZM809.408 330.564C808.126 330.109 806.969 329.882 805.936 329.882C804.489 329.882 803.27 330.275 802.278 331.06C801.327 331.804 800.686 332.775 800.356 333.974V354H792.296V323H798.558L799.488 327.092H799.736C800.438 325.563 801.389 324.385 802.588 323.558C803.786 322.731 805.192 322.318 806.804 322.318C807.878 322.318 809.098 322.545 810.462 323L809.408 330.564ZM831.64 354V337.136C831.64 334.284 831.371 332.259 830.834 331.06C830.297 329.861 829.181 329.262 827.486 329.262C826.081 329.262 824.944 329.655 824.076 330.44C823.208 331.184 822.547 332.155 822.092 333.354V354H814.032V323H820.294L821.224 327.092H821.472C822.423 325.769 823.621 324.612 825.068 323.62C826.556 322.628 828.457 322.132 830.772 322.132C832.756 322.132 834.368 322.545 835.608 323.372C836.889 324.157 837.881 325.501 838.584 327.402C839.535 325.79 840.754 324.509 842.242 323.558C843.73 322.607 845.528 322.132 847.636 322.132C849.372 322.132 850.839 322.339 852.038 322.752C853.278 323.165 854.27 323.889 855.014 324.922C855.799 325.914 856.378 327.257 856.75 328.952C857.122 330.647 857.308 332.796 857.308 335.4V354H849.248V336.578C849.248 334.139 848.979 332.321 848.442 331.122C847.946 329.882 846.809 329.262 845.032 329.262C843.585 329.262 842.428 329.655 841.56 330.44C840.733 331.225 840.113 332.3 839.7 333.664V354H831.64ZM888.723 351.334C887.483 352.326 885.788 353.173 883.639 353.876C881.531 354.537 879.278 354.868 876.881 354.868C871.879 354.868 868.221 353.421 865.907 350.528C863.592 347.593 862.435 343.584 862.435 338.5C862.435 333.044 863.737 328.952 866.341 326.224C868.945 323.496 872.603 322.132 877.315 322.132C878.885 322.132 880.415 322.339 881.903 322.752C883.391 323.165 884.713 323.847 885.871 324.798C887.028 325.749 887.958 327.03 888.661 328.642C889.363 330.254 889.715 332.259 889.715 334.656C889.715 335.524 889.653 336.454 889.529 337.446C889.446 338.438 889.301 339.471 889.095 340.546H870.495C870.619 343.15 871.28 345.113 872.479 346.436C873.719 347.759 875.703 348.42 878.431 348.42C880.125 348.42 881.634 348.172 882.957 347.676C884.321 347.139 885.354 346.601 886.057 346.064L888.723 351.334ZM877.191 328.58C875.083 328.58 873.512 329.221 872.479 330.502C871.487 331.742 870.887 333.416 870.681 335.524H882.213C882.378 333.292 882.027 331.577 881.159 330.378C880.332 329.179 879.009 328.58 877.191 328.58ZM921.757 343.088C921.757 344.824 921.778 346.56 921.819 348.296C921.86 350.032 922.046 351.954 922.377 354.062H916.611L915.495 350.032H915.247C914.42 351.479 913.222 352.657 911.651 353.566C910.122 354.434 908.303 354.868 906.195 354.868C902.31 354.868 899.292 353.587 897.143 351.024C894.994 348.461 893.919 344.452 893.919 338.996C893.919 333.705 895.118 329.593 897.515 326.658C899.912 323.723 903.426 322.256 908.055 322.256C909.336 322.256 910.39 322.339 911.217 322.504C912.044 322.628 912.87 322.855 913.697 323.186V310.6H921.757V343.088ZM908.055 348.048C909.626 348.048 910.866 347.676 911.775 346.932C912.684 346.147 913.325 345.031 913.697 343.584V330.44C913.118 329.985 912.478 329.655 911.775 329.448C911.072 329.2 910.163 329.076 909.047 329.076C906.774 329.076 905.058 329.841 903.901 331.37C902.785 332.899 902.227 335.524 902.227 339.244C902.227 341.889 902.682 344.018 903.591 345.63C904.542 347.242 906.03 348.048 908.055 348.048ZM929.573 323H937.633V354H929.573V323ZM928.395 314.258C928.395 313.059 928.829 312.047 929.697 311.22C930.606 310.352 931.846 309.918 933.417 309.918C934.988 309.918 936.248 310.352 937.199 311.22C938.191 312.047 938.687 313.059 938.687 314.258C938.687 315.457 938.191 316.469 937.199 317.296C936.248 318.081 934.988 318.474 933.417 318.474C931.846 318.474 930.606 318.081 929.697 317.296C928.829 316.469 928.395 315.457 928.395 314.258ZM945.293 324.798C946.947 324.054 948.91 323.475 951.183 323.062C953.457 322.607 955.833 322.38 958.313 322.38C960.463 322.38 962.261 322.649 963.707 323.186C965.154 323.682 966.291 324.405 967.117 325.356C967.985 326.307 968.585 327.443 968.915 328.766C969.287 330.089 969.473 331.577 969.473 333.23C969.473 335.049 969.411 336.888 969.287 338.748C969.163 340.567 969.081 342.365 969.039 344.142C969.039 345.919 969.101 347.655 969.225 349.35C969.349 351.003 969.659 352.574 970.155 354.062H963.583L962.281 349.784H961.971C961.145 351.065 959.987 352.181 958.499 353.132C957.053 354.041 955.172 354.496 952.857 354.496C951.411 354.496 950.109 354.289 948.951 353.876C947.794 353.421 946.802 352.801 945.975 352.016C945.149 351.189 944.508 350.239 944.053 349.164C943.599 348.048 943.371 346.808 943.371 345.444C943.371 343.543 943.785 341.951 944.611 340.67C945.479 339.347 946.699 338.293 948.269 337.508C949.881 336.681 951.783 336.123 953.973 335.834C956.205 335.503 958.685 335.4 961.413 335.524C961.703 333.209 961.537 331.556 960.917 330.564C960.297 329.531 958.913 329.014 956.763 329.014C955.151 329.014 953.436 329.179 951.617 329.51C949.84 329.841 948.373 330.275 947.215 330.812L945.293 324.798ZM955.523 347.862C957.135 347.862 958.417 347.511 959.367 346.808C960.318 346.064 961.021 345.279 961.475 344.452V340.422C960.194 340.298 958.954 340.277 957.755 340.36C956.598 340.443 955.565 340.629 954.655 340.918C953.746 341.207 953.023 341.621 952.485 342.158C951.948 342.695 951.679 343.377 951.679 344.204C951.679 345.361 952.01 346.271 952.671 346.932C953.374 347.552 954.325 347.862 955.523 347.862ZM973.013 323H977.291V317.172L985.351 314.878V323H992.915V329.82H985.351V341.724C985.351 343.873 985.558 345.423 985.971 346.374C986.426 347.283 987.252 347.738 988.451 347.738C989.278 347.738 989.98 347.655 990.559 347.49C991.179 347.325 991.861 347.077 992.605 346.746L994.031 352.946C992.915 353.483 991.613 353.938 990.125 354.31C988.637 354.682 987.128 354.868 985.599 354.868C982.747 354.868 980.639 354.145 979.275 352.698C977.952 351.21 977.291 348.792 977.291 345.444V329.82H973.013V323ZM1022.35 351.334C1021.11 352.326 1019.41 353.173 1017.27 353.876C1015.16 354.537 1012.9 354.868 1010.51 354.868C1005.51 354.868 1001.85 353.421 999.534 350.528C997.219 347.593 996.062 343.584 996.062 338.5C996.062 333.044 997.364 328.952 999.968 326.224C1002.57 323.496 1006.23 322.132 1010.94 322.132C1012.51 322.132 1014.04 322.339 1015.53 322.752C1017.02 323.165 1018.34 323.847 1019.5 324.798C1020.65 325.749 1021.58 327.03 1022.29 328.642C1022.99 330.254 1023.34 332.259 1023.34 334.656C1023.34 335.524 1023.28 336.454 1023.16 337.446C1023.07 338.438 1022.93 339.471 1022.72 340.546H1004.12C1004.25 343.15 1004.91 345.113 1006.11 346.436C1007.35 347.759 1009.33 348.42 1012.06 348.42C1013.75 348.42 1015.26 348.172 1016.58 347.676C1017.95 347.139 1018.98 346.601 1019.68 346.064L1022.35 351.334ZM1010.82 328.58C1008.71 328.58 1007.14 329.221 1006.11 330.502C1005.11 331.742 1004.51 333.416 1004.31 335.524H1015.84C1016 333.292 1015.65 331.577 1014.79 330.378C1013.96 329.179 1012.64 328.58 1010.82 328.58Z" fill="black"/>
<path d="M1204.63 354H1177.17V310.6H1185.66V346.436H1204.63V354ZM1205.16 338.5C1205.16 333.251 1206.44 329.221 1209 326.41C1211.57 323.558 1215.16 322.132 1219.79 322.132C1222.27 322.132 1224.42 322.525 1226.24 323.31C1228.06 324.095 1229.57 325.211 1230.77 326.658C1231.96 328.063 1232.85 329.779 1233.43 331.804C1234.05 333.829 1234.36 336.061 1234.36 338.5C1234.36 343.749 1233.08 347.8 1230.52 350.652C1228 353.463 1224.42 354.868 1219.79 354.868C1217.31 354.868 1215.16 354.475 1213.34 353.69C1211.53 352.905 1210 351.809 1208.76 350.404C1207.56 348.957 1206.65 347.221 1206.03 345.196C1205.45 343.171 1205.16 340.939 1205.16 338.5ZM1213.47 338.5C1213.47 339.864 1213.59 341.125 1213.84 342.282C1214.09 343.439 1214.46 344.452 1214.96 345.32C1215.45 346.188 1216.09 346.87 1216.88 347.366C1217.7 347.821 1218.68 348.048 1219.79 348.048C1221.9 348.048 1223.47 347.283 1224.5 345.754C1225.54 344.225 1226.05 341.807 1226.05 338.5C1226.05 335.648 1225.58 333.354 1224.63 331.618C1223.68 329.841 1222.07 328.952 1219.79 328.952C1217.81 328.952 1216.26 329.696 1215.14 331.184C1214.03 332.672 1213.47 335.111 1213.47 338.5ZM1261.85 323L1267.49 338.872L1268.61 344.018H1268.85L1269.72 338.81L1273.69 323H1281.07L1271.52 354.31H1265.57L1259.31 336.95L1258.5 333.044H1258.19L1257.45 337.012L1251.49 354.31H1245.36L1235.37 323H1244.12L1248.64 338.562L1249.39 344.08H1249.7L1250.75 338.5L1255.9 323H1261.85Z" fill="black"/>
<circle cx="163.5" cy="239.5" r="46.5" fill="black"/>
<circle cx="517.5" cy="239.5" r="39.5" fill="white" stroke="black" stroke-width="14"/>
<circle cx="871.5" cy="239.5" r="46.5" fill="#922A2A"/>
<circle cx="1225.5" cy="239.5" r="39" fill="#C28838" stroke="#981924" stroke-width="15"/>
</g>
<defs>
<clipPath id="clip0_417_3">
<rect width="1336" height="439" fill="white"/>
</clipPath>
</defs>
</svg>
