<svg width="1577" height="454" viewBox="0 0 1577 454" fill="none" xmlns="http://www.w3.org/2000/svg">
<g clip-path="url(#clip0_404_2)">
<path d="M431.301 96.034C433.037 95.7033 434.938 95.4553 437.005 95.29C439.113 95.0833 441.2 94.98 443.267 94.98C445.416 94.98 447.565 95.166 449.715 95.538C451.905 95.8687 453.869 96.5713 455.605 97.646C457.341 98.6793 458.746 100.147 459.821 102.048C460.937 103.908 461.495 106.347 461.495 109.364C461.495 112.092 461.019 114.407 460.069 116.308C459.118 118.168 457.857 119.697 456.287 120.896C454.716 122.095 452.918 122.963 450.893 123.5C448.909 124.037 446.842 124.306 444.693 124.306C444.486 124.306 444.155 124.306 443.701 124.306C443.246 124.306 442.771 124.306 442.275 124.306C441.779 124.265 441.283 124.223 440.787 124.182C440.332 124.141 440.001 124.099 439.795 124.058V139H431.301V96.034ZM443.949 102.296C443.122 102.296 442.337 102.337 441.593 102.42C440.849 102.461 440.249 102.523 439.795 102.606V116.68C439.96 116.721 440.208 116.763 440.539 116.804C440.869 116.845 441.221 116.887 441.593 116.928C441.965 116.928 442.316 116.928 442.647 116.928C443.019 116.928 443.287 116.928 443.453 116.928C444.569 116.928 445.664 116.825 446.739 116.618C447.855 116.411 448.847 116.039 449.715 115.502C450.583 114.923 451.265 114.138 451.761 113.146C452.298 112.154 452.567 110.852 452.567 109.24C452.567 107.876 452.319 106.76 451.823 105.892C451.327 104.983 450.665 104.259 449.839 103.722C449.053 103.185 448.144 102.813 447.111 102.606C446.077 102.399 445.023 102.296 443.949 102.296ZM481.891 115.564C480.609 115.109 479.452 114.882 478.419 114.882C476.972 114.882 475.753 115.275 474.761 116.06C473.81 116.804 473.169 117.775 472.839 118.974V139H464.779V108H471.041L471.971 112.092H472.219C472.921 110.563 473.872 109.385 475.071 108.558C476.269 107.731 477.675 107.318 479.287 107.318C480.361 107.318 481.581 107.545 482.945 108L481.891 115.564ZM487.259 108H495.319V139H487.259V108ZM486.081 99.258C486.081 98.0593 486.515 97.0467 487.383 96.22C488.292 95.352 489.532 94.918 491.103 94.918C492.674 94.918 493.934 95.352 494.885 96.22C495.877 97.0467 496.373 98.0593 496.373 99.258C496.373 100.457 495.877 101.469 494.885 102.296C493.934 103.081 492.674 103.474 491.103 103.474C489.532 103.474 488.292 103.081 487.383 102.296C486.515 101.469 486.081 100.457 486.081 99.258ZM501.677 123.5C501.677 118.251 502.959 114.221 505.521 111.41C508.084 108.558 511.68 107.132 516.309 107.132C518.789 107.132 520.939 107.525 522.757 108.31C524.576 109.095 526.085 110.211 527.283 111.658C528.482 113.063 529.371 114.779 529.949 116.804C530.569 118.829 530.879 121.061 530.879 123.5C530.879 128.749 529.598 132.8 527.035 135.652C524.514 138.463 520.939 139.868 516.309 139.868C513.829 139.868 511.68 139.475 509.861 138.69C508.043 137.905 506.513 136.809 505.273 135.404C504.075 133.957 503.165 132.221 502.545 130.196C501.967 128.171 501.677 125.939 501.677 123.5ZM509.985 123.5C509.985 124.864 510.109 126.125 510.357 127.282C510.605 128.439 510.977 129.452 511.473 130.32C511.969 131.188 512.61 131.87 513.395 132.366C514.222 132.821 515.193 133.048 516.309 133.048C518.417 133.048 519.988 132.283 521.021 130.754C522.055 129.225 522.571 126.807 522.571 123.5C522.571 120.648 522.096 118.354 521.145 116.618C520.195 114.841 518.583 113.952 516.309 113.952C514.325 113.952 512.775 114.696 511.659 116.184C510.543 117.672 509.985 120.111 509.985 123.5ZM553.578 115.564C552.297 115.109 551.139 114.882 550.106 114.882C548.659 114.882 547.44 115.275 546.448 116.06C545.497 116.804 544.857 117.775 544.526 118.974V139H536.466V108H542.728L543.658 112.092H543.906C544.609 110.563 545.559 109.385 546.758 108.558C547.957 107.731 549.362 107.318 550.974 107.318C552.049 107.318 553.268 107.545 554.632 108L553.578 115.564ZM570.66 108H574.938V102.172L582.998 99.878V108H590.562V114.82H582.998V126.724C582.998 128.873 583.205 130.423 583.618 131.374C584.073 132.283 584.899 132.738 586.098 132.738C586.925 132.738 587.627 132.655 588.206 132.49C588.826 132.325 589.508 132.077 590.252 131.746L591.678 137.946C590.562 138.483 589.26 138.938 587.772 139.31C586.284 139.682 584.775 139.868 583.246 139.868C580.394 139.868 578.286 139.145 576.922 137.698C575.599 136.21 574.938 133.792 574.938 130.444V114.82H570.66V108ZM593.709 123.5C593.709 118.251 594.99 114.221 597.553 111.41C600.115 108.558 603.711 107.132 608.341 107.132C610.821 107.132 612.97 107.525 614.789 108.31C616.607 109.095 618.116 110.211 619.315 111.658C620.513 113.063 621.402 114.779 621.981 116.804C622.601 118.829 622.911 121.061 622.911 123.5C622.911 128.749 621.629 132.8 619.067 135.652C616.545 138.463 612.97 139.868 608.341 139.868C605.861 139.868 603.711 139.475 601.893 138.69C600.074 137.905 598.545 136.809 597.305 135.404C596.106 133.957 595.197 132.221 594.577 130.196C593.998 128.171 593.709 125.939 593.709 123.5ZM602.017 123.5C602.017 124.864 602.141 126.125 602.389 127.282C602.637 128.439 603.009 129.452 603.505 130.32C604.001 131.188 604.641 131.87 605.427 132.366C606.253 132.821 607.225 133.048 608.341 133.048C610.449 133.048 612.019 132.283 613.053 130.754C614.086 129.225 614.603 126.807 614.603 123.5C614.603 120.648 614.127 118.354 613.177 116.618C612.226 114.841 610.614 113.952 608.341 113.952C606.357 113.952 604.807 114.696 603.691 116.184C602.575 117.672 602.017 120.111 602.017 123.5ZM672.966 137.202C671.643 138.153 669.949 138.835 667.882 139.248C665.857 139.661 663.769 139.868 661.62 139.868C659.016 139.868 656.536 139.475 654.18 138.69C651.865 137.863 649.819 136.561 648.042 134.784C646.265 132.965 644.839 130.63 643.764 127.778C642.731 124.885 642.214 121.392 642.214 117.3C642.214 113.043 642.793 109.488 643.95 106.636C645.149 103.743 646.678 101.428 648.538 99.692C650.439 97.9147 652.547 96.654 654.862 95.91C657.177 95.1247 659.491 94.732 661.806 94.732C664.286 94.732 666.373 94.8973 668.068 95.228C669.804 95.5587 671.23 95.9513 672.346 96.406L670.672 103.598C669.721 103.143 668.585 102.813 667.262 102.606C665.981 102.399 664.41 102.296 662.55 102.296C659.119 102.296 656.35 103.515 654.242 105.954C652.175 108.393 651.142 112.175 651.142 117.3C651.142 119.532 651.39 121.578 651.886 123.438C652.382 125.257 653.126 126.827 654.118 128.15C655.151 129.431 656.412 130.444 657.9 131.188C659.429 131.891 661.186 132.242 663.17 132.242C665.03 132.242 666.601 132.056 667.882 131.684C669.163 131.312 670.279 130.837 671.23 130.258L672.966 137.202ZM674.788 117.3C674.788 110.067 676.379 104.507 679.562 100.622C682.745 96.6953 687.291 94.732 693.202 94.732C696.302 94.732 699.009 95.2693 701.324 96.344C703.639 97.4187 705.561 98.948 707.09 100.932C708.619 102.916 709.756 105.293 710.5 108.062C711.244 110.831 711.616 113.911 711.616 117.3C711.616 124.533 710.004 130.113 706.78 134.04C703.597 137.925 699.071 139.868 693.202 139.868C690.061 139.868 687.333 139.331 685.018 138.256C682.703 137.181 680.781 135.652 679.252 133.668C677.764 131.684 676.648 129.307 675.904 126.538C675.16 123.769 674.788 120.689 674.788 117.3ZM683.716 117.3C683.716 119.491 683.902 121.516 684.274 123.376C684.646 125.195 685.204 126.765 685.948 128.088C686.733 129.411 687.725 130.444 688.924 131.188C690.123 131.932 691.549 132.304 693.202 132.304C696.219 132.304 698.555 131.126 700.208 128.77C701.861 126.414 702.688 122.591 702.688 117.3C702.688 115.192 702.502 113.229 702.13 111.41C701.799 109.591 701.262 108 700.518 106.636C699.774 105.272 698.803 104.218 697.604 103.474C696.405 102.689 694.938 102.296 693.202 102.296C690.185 102.296 687.849 103.515 686.196 105.954C684.543 108.351 683.716 112.133 683.716 117.3ZM729.647 121.082L730.763 128.46H731.073L732.313 121.02L740.621 95.6H749.549L733.429 139.31H727.353L711.109 95.6H720.967L729.647 121.082ZM753.551 95.6H762.045V139H753.551V95.6ZM770.363 95.6C771.231 95.476 772.202 95.3727 773.277 95.29C774.393 95.2073 775.53 95.1453 776.687 95.104C777.844 95.0627 778.96 95.042 780.035 95.042C781.151 95.0007 782.143 94.98 783.011 94.98C786.855 94.98 790.141 95.5173 792.869 96.592C795.597 97.6667 797.808 99.1753 799.503 101.118C801.198 103.061 802.438 105.375 803.223 108.062C804.008 110.749 804.401 113.704 804.401 116.928C804.401 119.863 804.029 122.694 803.285 125.422C802.541 128.15 801.301 130.568 799.565 132.676C797.829 134.784 795.535 136.479 792.683 137.76C789.872 139.041 786.38 139.682 782.205 139.682C781.544 139.682 780.655 139.661 779.539 139.62C778.464 139.579 777.328 139.517 776.129 139.434C774.972 139.393 773.856 139.331 772.781 139.248C771.706 139.207 770.9 139.145 770.363 139.062V95.6ZM783.693 102.544C782.784 102.544 781.854 102.565 780.903 102.606C779.994 102.647 779.312 102.709 778.857 102.792V131.87C779.022 131.911 779.291 131.953 779.663 131.994C780.076 131.994 780.51 132.015 780.965 132.056C781.42 132.056 781.854 132.077 782.267 132.118C782.68 132.118 782.99 132.118 783.197 132.118C785.594 132.118 787.578 131.705 789.149 130.878C790.761 130.01 792.022 128.873 792.931 127.468C793.882 126.063 794.543 124.451 794.915 122.632C795.287 120.772 795.473 118.871 795.473 116.928C795.473 115.233 795.308 113.539 794.977 111.844C794.646 110.108 794.026 108.558 793.117 107.194C792.249 105.83 791.05 104.714 789.521 103.846C787.992 102.978 786.049 102.544 783.693 102.544ZM810.134 117.61H825.696V124.74H810.134V117.61ZM835.389 132.18H844.007V107.69L844.937 103.474L841.961 107.132L836.443 110.914L833.033 106.264L847.169 94.856H851.695V132.18H860.127V139H835.389V132.18ZM867.095 109.178C867.095 107.07 867.405 105.127 868.025 103.35C868.687 101.573 869.617 100.064 870.815 98.824C872.055 97.5427 873.543 96.5507 875.279 95.848C877.057 95.104 879.082 94.732 881.355 94.732C886.026 94.732 889.684 96.1373 892.329 98.948C895.016 101.717 896.359 105.768 896.359 111.1C896.359 115.895 895.739 120.049 894.499 123.562C893.301 127.034 891.668 129.948 889.601 132.304C887.576 134.619 885.22 136.396 882.533 137.636C879.847 138.876 877.015 139.62 874.039 139.868L872.303 133.544C874.577 133.255 876.602 132.697 878.379 131.87C880.157 131.043 881.686 130.031 882.967 128.832C884.249 127.592 885.282 126.207 886.067 124.678C886.894 123.107 887.473 121.433 887.803 119.656C886.811 120.731 885.737 121.475 884.579 121.888C883.463 122.301 881.955 122.508 880.053 122.508C878.483 122.508 876.912 122.239 875.341 121.702C873.812 121.165 872.427 120.359 871.187 119.284C869.989 118.168 868.997 116.783 868.211 115.13C867.467 113.435 867.095 111.451 867.095 109.178ZM874.907 108.744C874.907 111.1 875.569 112.877 876.891 114.076C878.214 115.275 879.867 115.874 881.851 115.874C883.546 115.874 884.931 115.605 886.005 115.068C887.08 114.531 887.907 113.869 888.485 113.084C888.609 112.216 888.671 111.389 888.671 110.604C888.671 109.447 888.527 108.31 888.237 107.194C887.948 106.078 887.493 105.086 886.873 104.218C886.295 103.35 885.53 102.668 884.579 102.172C883.67 101.635 882.575 101.366 881.293 101.366C879.268 101.366 877.697 102.027 876.581 103.35C875.465 104.631 874.907 106.429 874.907 108.744ZM918.699 108H924.589L925.519 111.72H925.767C926.841 110.149 928.102 108.992 929.549 108.248C931.037 107.504 932.835 107.132 934.943 107.132C938.828 107.132 941.742 108.372 943.685 110.852C945.627 113.291 946.599 117.238 946.599 122.694C946.599 125.339 946.289 127.737 945.669 129.886C945.049 131.994 944.119 133.792 942.879 135.28C941.68 136.768 940.192 137.905 938.415 138.69C936.679 139.475 934.674 139.868 932.401 139.868C931.119 139.868 930.065 139.765 929.239 139.558C928.412 139.393 927.585 139.103 926.759 138.69V151.4H918.699V108ZM932.525 113.952C930.954 113.952 929.714 114.345 928.805 115.13C927.937 115.915 927.255 117.093 926.759 118.664V131.56C927.337 132.015 927.957 132.387 928.619 132.676C929.321 132.924 930.231 133.048 931.347 133.048C933.661 133.048 935.397 132.242 936.555 130.63C937.712 128.977 938.291 126.269 938.291 122.508C938.291 119.78 937.836 117.672 936.927 116.184C936.017 114.696 934.55 113.952 932.525 113.952ZM951.995 109.798C953.648 109.054 955.612 108.475 957.885 108.062C960.158 107.607 962.535 107.38 965.015 107.38C967.164 107.38 968.962 107.649 970.409 108.186C971.856 108.682 972.992 109.405 973.819 110.356C974.687 111.307 975.286 112.443 975.617 113.766C975.989 115.089 976.175 116.577 976.175 118.23C976.175 120.049 976.113 121.888 975.989 123.748C975.865 125.567 975.782 127.365 975.741 129.142C975.741 130.919 975.803 132.655 975.927 134.35C976.051 136.003 976.361 137.574 976.857 139.062H970.285L968.983 134.784H968.673C967.846 136.065 966.689 137.181 965.201 138.132C963.754 139.041 961.874 139.496 959.559 139.496C958.112 139.496 956.81 139.289 955.653 138.876C954.496 138.421 953.504 137.801 952.677 137.016C951.85 136.189 951.21 135.239 950.755 134.164C950.3 133.048 950.073 131.808 950.073 130.444C950.073 128.543 950.486 126.951 951.313 125.67C952.181 124.347 953.4 123.293 954.971 122.508C956.583 121.681 958.484 121.123 960.675 120.834C962.907 120.503 965.387 120.4 968.115 120.524C968.404 118.209 968.239 116.556 967.619 115.564C966.999 114.531 965.614 114.014 963.465 114.014C961.853 114.014 960.138 114.179 958.319 114.51C956.542 114.841 955.074 115.275 953.917 115.812L951.995 109.798ZM962.225 132.862C963.837 132.862 965.118 132.511 966.069 131.808C967.02 131.064 967.722 130.279 968.177 129.452V125.422C966.896 125.298 965.656 125.277 964.457 125.36C963.3 125.443 962.266 125.629 961.357 125.918C960.448 126.207 959.724 126.621 959.187 127.158C958.65 127.695 958.381 128.377 958.381 129.204C958.381 130.361 958.712 131.271 959.373 131.932C960.076 132.552 961.026 132.862 962.225 132.862ZM1001.91 139V121.392C1001.91 118.871 1001.54 117.052 1000.79 115.936C1000.09 114.82 998.873 114.262 997.137 114.262C995.607 114.262 994.305 114.717 993.231 115.626C992.197 116.494 991.453 117.589 990.999 118.912V139H982.939V108H989.325L990.255 112.092H990.503C991.453 110.769 992.714 109.612 994.285 108.62C995.855 107.628 997.881 107.132 1000.36 107.132C1001.89 107.132 1003.25 107.339 1004.45 107.752C1005.65 108.165 1006.66 108.847 1007.49 109.798C1008.32 110.749 1008.94 112.051 1009.35 113.704C1009.76 115.316 1009.97 117.321 1009.97 119.718V139H1001.91ZM1043.07 128.088C1043.07 129.824 1043.09 131.56 1043.14 133.296C1043.18 135.032 1043.36 136.954 1043.69 139.062H1037.93L1036.81 135.032H1036.56C1035.74 136.479 1034.54 137.657 1032.97 138.566C1031.44 139.434 1029.62 139.868 1027.51 139.868C1023.63 139.868 1020.61 138.587 1018.46 136.024C1016.31 133.461 1015.24 129.452 1015.24 123.996C1015.24 118.705 1016.43 114.593 1018.83 111.658C1021.23 108.723 1024.74 107.256 1029.37 107.256C1030.65 107.256 1031.71 107.339 1032.53 107.504C1033.36 107.628 1034.19 107.855 1035.01 108.186V95.6H1043.07V128.088ZM1029.37 133.048C1030.94 133.048 1032.18 132.676 1033.09 131.932C1034 131.147 1034.64 130.031 1035.01 128.584V115.44C1034.44 114.985 1033.79 114.655 1033.09 114.448C1032.39 114.2 1031.48 114.076 1030.36 114.076C1028.09 114.076 1026.38 114.841 1025.22 116.37C1024.1 117.899 1023.54 120.524 1023.54 124.244C1023.54 126.889 1024 129.018 1024.91 130.63C1025.86 132.242 1027.35 133.048 1029.37 133.048ZM1074.95 136.334C1073.71 137.326 1072.01 138.173 1069.86 138.876C1067.75 139.537 1065.5 139.868 1063.1 139.868C1058.1 139.868 1054.44 138.421 1052.13 135.528C1049.82 132.593 1048.66 128.584 1048.66 123.5C1048.66 118.044 1049.96 113.952 1052.56 111.224C1055.17 108.496 1058.83 107.132 1063.54 107.132C1065.11 107.132 1066.64 107.339 1068.13 107.752C1069.61 108.165 1070.94 108.847 1072.09 109.798C1073.25 110.749 1074.18 112.03 1074.88 113.642C1075.59 115.254 1075.94 117.259 1075.94 119.656C1075.94 120.524 1075.88 121.454 1075.75 122.446C1075.67 123.438 1075.52 124.471 1075.32 125.546H1056.72C1056.84 128.15 1057.5 130.113 1058.7 131.436C1059.94 132.759 1061.93 133.42 1064.65 133.42C1066.35 133.42 1067.86 133.172 1069.18 132.676C1070.54 132.139 1071.58 131.601 1072.28 131.064L1074.95 136.334ZM1063.41 113.58C1061.31 113.58 1059.74 114.221 1058.7 115.502C1057.71 116.742 1057.11 118.416 1056.9 120.524H1068.44C1068.6 118.292 1068.25 116.577 1067.38 115.378C1066.56 114.179 1065.23 113.58 1063.41 113.58ZM1099.24 139V122.136C1099.24 119.284 1098.97 117.259 1098.43 116.06C1097.89 114.861 1096.78 114.262 1095.08 114.262C1093.68 114.262 1092.54 114.655 1091.67 115.44C1090.81 116.184 1090.14 117.155 1089.69 118.354V139H1081.63V108H1087.89L1088.82 112.092H1089.07C1090.02 110.769 1091.22 109.612 1092.67 108.62C1094.15 107.628 1096.06 107.132 1098.37 107.132C1100.35 107.132 1101.97 107.545 1103.21 108.372C1104.49 109.157 1105.48 110.501 1106.18 112.402C1107.13 110.79 1108.35 109.509 1109.84 108.558C1111.33 107.607 1113.13 107.132 1115.23 107.132C1116.97 107.132 1118.44 107.339 1119.64 107.752C1120.88 108.165 1121.87 108.889 1122.61 109.922C1123.4 110.914 1123.98 112.257 1124.35 113.952C1124.72 115.647 1124.91 117.796 1124.91 120.4V139H1116.85V121.578C1116.85 119.139 1116.58 117.321 1116.04 116.122C1115.54 114.882 1114.41 114.262 1112.63 114.262C1111.18 114.262 1110.03 114.655 1109.16 115.44C1108.33 116.225 1107.71 117.3 1107.3 118.664V139H1099.24ZM1132.26 108H1140.32V139H1132.26V108ZM1131.09 99.258C1131.09 98.0593 1131.52 97.0467 1132.39 96.22C1133.3 95.352 1134.54 94.918 1136.11 94.918C1137.68 94.918 1138.94 95.352 1139.89 96.22C1140.88 97.0467 1141.38 98.0593 1141.38 99.258C1141.38 100.457 1140.88 101.469 1139.89 102.296C1138.94 103.081 1137.68 103.474 1136.11 103.474C1134.54 103.474 1133.3 103.081 1132.39 102.296C1131.52 101.469 1131.09 100.457 1131.09 99.258ZM1170.12 137.078C1168.88 137.987 1167.37 138.669 1165.59 139.124C1163.86 139.62 1162.06 139.868 1160.2 139.868C1157.72 139.868 1155.61 139.475 1153.88 138.69C1152.18 137.905 1150.8 136.809 1149.72 135.404C1148.65 133.957 1147.86 132.221 1147.37 130.196C1146.91 128.171 1146.68 125.939 1146.68 123.5C1146.68 118.251 1147.86 114.221 1150.22 111.41C1152.57 108.558 1156 107.132 1160.51 107.132C1162.78 107.132 1164.6 107.318 1165.97 107.69C1167.37 108.062 1168.63 108.537 1169.75 109.116L1167.83 115.688C1166.87 115.233 1165.92 114.882 1164.97 114.634C1164.06 114.386 1163.01 114.262 1161.81 114.262C1159.58 114.262 1157.88 115.006 1156.73 116.494C1155.57 117.941 1154.99 120.276 1154.99 123.5C1154.99 124.823 1155.14 126.042 1155.43 127.158C1155.71 128.274 1156.15 129.245 1156.73 130.072C1157.31 130.899 1158.05 131.56 1158.96 132.056C1159.91 132.511 1161.01 132.738 1162.25 132.738C1163.61 132.738 1164.77 132.573 1165.72 132.242C1166.67 131.87 1167.52 131.436 1168.26 130.94L1170.12 137.078Z" fill="black"/>
<path d="M167.034 46.37H183.216V65.714C181.48 67.1607 179.393 68.2147 176.954 68.876C174.557 69.5373 172.18 69.868 169.824 69.868C167.055 69.868 164.471 69.434 162.074 68.566C159.718 67.698 157.672 66.3547 155.936 64.536C154.2 62.676 152.836 60.32 151.844 57.468C150.852 54.616 150.356 51.2267 150.356 47.3C150.356 43.208 150.935 39.736 152.092 36.884C153.291 33.9907 154.841 31.6553 156.742 29.878C158.685 28.0593 160.855 26.7573 163.252 25.972C165.649 25.1453 168.088 24.732 170.568 24.732C173.048 24.732 175.218 24.918 177.078 25.29C178.979 25.662 180.488 26.0547 181.604 26.468L179.868 33.598C178.835 33.1847 177.677 32.8747 176.396 32.668C175.115 32.42 173.482 32.296 171.498 32.296C169.721 32.296 168.088 32.5647 166.6 33.102C165.112 33.6393 163.81 34.528 162.694 35.768C161.619 36.9667 160.772 38.5167 160.152 40.418C159.573 42.3193 159.284 44.634 159.284 47.362C159.284 49.966 159.573 52.2187 160.152 54.12C160.731 55.98 161.537 57.53 162.57 58.77C163.603 59.9687 164.802 60.8573 166.166 61.436C167.571 62.0147 169.059 62.304 170.63 62.304C171.705 62.304 172.759 62.18 173.792 61.932C174.825 61.6427 175.693 61.2293 176.396 60.692V52.508L167.034 51.516V46.37ZM190.059 38H198.119V69H190.059V38ZM188.881 29.258C188.881 28.0593 189.315 27.0467 190.183 26.22C191.093 25.352 192.333 24.918 193.903 24.918C195.474 24.918 196.735 25.352 197.685 26.22C198.677 27.0467 199.173 28.0593 199.173 29.258C199.173 30.4567 198.677 31.4693 197.685 32.296C196.735 33.0813 195.474 33.474 193.903 33.474C192.333 33.474 191.093 33.0813 190.183 32.296C189.315 31.4693 188.881 30.4567 188.881 29.258ZM223.078 45.564C221.796 45.1093 220.639 44.882 219.606 44.882C218.159 44.882 216.94 45.2747 215.948 46.06C214.997 46.804 214.356 47.7753 214.026 48.974V69H205.966V38H212.228L213.158 42.092H213.406C214.108 40.5627 215.059 39.3847 216.258 38.558C217.456 37.7313 218.862 37.318 220.474 37.318C221.548 37.318 222.768 37.5453 224.132 38L223.078 45.564ZM236.01 58.584C236.01 60.0307 236.196 61.0847 236.568 61.746C236.94 62.4073 237.539 62.738 238.366 62.738C238.862 62.738 239.337 62.6967 239.792 62.614C240.288 62.5313 240.887 62.3453 241.59 62.056L242.458 68.38C241.797 68.7107 240.784 69.0413 239.42 69.372C238.056 69.7027 236.651 69.868 235.204 69.868C232.848 69.868 231.05 69.3307 229.81 68.256C228.57 67.14 227.95 65.3213 227.95 62.8V25.6H236.01V58.584ZM258.761 60.444C258.761 59.6173 258.409 58.956 257.707 58.46C257.004 57.964 256.136 57.5093 255.103 57.096C254.069 56.6827 252.933 56.2693 251.693 55.856C250.453 55.4013 249.316 54.802 248.283 54.058C247.249 53.2727 246.381 52.3013 245.679 51.144C244.976 49.9453 244.625 48.416 244.625 46.556C244.625 43.4973 245.534 41.162 247.353 39.55C249.171 37.938 251.796 37.132 255.227 37.132C257.583 37.132 259.711 37.38 261.613 37.876C263.514 38.372 265.002 38.93 266.077 39.55L264.279 45.378C263.328 45.006 262.129 44.6133 260.683 44.2C259.236 43.7867 257.769 43.58 256.281 43.58C253.883 43.58 252.685 44.51 252.685 46.37C252.685 47.114 253.036 47.7133 253.739 48.168C254.441 48.6227 255.309 49.0567 256.343 49.47C257.376 49.842 258.513 50.2553 259.753 50.71C260.993 51.1647 262.129 51.764 263.163 52.508C264.196 53.2107 265.064 54.1407 265.767 55.298C266.469 56.4553 266.821 57.9433 266.821 59.762C266.821 62.9033 265.808 65.3833 263.783 67.202C261.799 68.9793 258.802 69.868 254.793 69.868C252.602 69.868 250.535 69.5787 248.593 69C246.691 68.4627 245.141 67.822 243.943 67.078L246.175 61.064C247.125 61.6013 248.386 62.1387 249.957 62.676C251.527 63.172 253.139 63.42 254.793 63.42C255.991 63.42 256.942 63.1927 257.645 62.738C258.389 62.2833 258.761 61.5187 258.761 60.444Z" fill="#7A2121"/>
<path d="M1358.92 35.706C1358.92 36.7807 1358.78 37.8553 1358.49 38.93C1358.24 40.0047 1357.81 40.9967 1357.19 41.906C1356.57 42.774 1355.76 43.5593 1354.77 44.262C1353.78 44.9233 1352.58 45.4193 1351.17 45.75V46.122C1352.41 46.3287 1353.59 46.68 1354.71 47.176C1355.82 47.672 1356.79 48.354 1357.62 49.222C1358.45 50.09 1359.09 51.144 1359.54 52.384C1360.04 53.624 1360.29 55.0913 1360.29 56.786C1360.29 59.018 1359.81 60.9607 1358.86 62.614C1357.91 64.226 1356.63 65.5487 1355.02 66.582C1353.45 67.6153 1351.65 68.38 1349.62 68.876C1347.6 69.372 1345.51 69.62 1343.36 69.62C1342.66 69.62 1341.75 69.62 1340.63 69.62C1339.56 69.62 1338.38 69.5787 1337.1 69.496C1335.86 69.4547 1334.58 69.372 1333.25 69.248C1331.97 69.124 1330.79 68.938 1329.72 68.69V25.91C1330.51 25.786 1331.39 25.662 1332.39 25.538C1333.42 25.414 1334.51 25.3107 1335.67 25.228C1336.83 25.1453 1338.01 25.0833 1339.21 25.042C1340.45 25.0007 1341.67 24.98 1342.86 24.98C1344.89 24.98 1346.85 25.1453 1348.75 25.476C1350.7 25.7653 1352.41 26.3027 1353.9 27.088C1355.43 27.8733 1356.65 28.9687 1357.56 30.374C1358.47 31.7793 1358.92 33.5567 1358.92 35.706ZM1343.42 62.614C1344.46 62.614 1345.45 62.49 1346.4 62.242C1347.39 61.994 1348.26 61.622 1349 61.126C1349.75 60.5887 1350.35 59.9273 1350.8 59.142C1351.25 58.3567 1351.48 57.4267 1351.48 56.352C1351.48 54.988 1351.21 53.9133 1350.68 53.128C1350.14 52.3427 1349.44 51.7433 1348.57 51.33C1347.7 50.8753 1346.73 50.586 1345.65 50.462C1344.58 50.338 1343.5 50.276 1342.43 50.276H1337.9V62.242C1338.11 62.3247 1338.44 62.3867 1338.9 62.428C1339.35 62.4693 1339.83 62.5107 1340.32 62.552C1340.86 62.552 1341.4 62.5727 1341.93 62.614C1342.51 62.614 1343.01 62.614 1343.42 62.614ZM1340.63 43.828C1341.21 43.828 1341.87 43.8073 1342.62 43.766C1343.4 43.7247 1344.04 43.6627 1344.54 43.58C1346.11 43.084 1347.45 42.34 1348.57 41.348C1349.73 40.356 1350.3 39.054 1350.3 37.442C1350.3 36.3673 1350.1 35.4787 1349.68 34.776C1349.27 34.0733 1348.71 33.5153 1348.01 33.102C1347.35 32.6887 1346.58 32.3993 1345.72 32.234C1344.85 32.0687 1343.94 31.986 1342.99 31.986C1341.91 31.986 1340.92 32.0067 1340.01 32.048C1339.1 32.0893 1338.4 32.1513 1337.9 32.234V43.828H1340.63ZM1364.68 53.5C1364.68 48.2507 1365.96 44.2207 1368.52 41.41C1371.08 38.558 1374.68 37.132 1379.31 37.132C1381.79 37.132 1383.94 37.5247 1385.76 38.31C1387.58 39.0953 1389.08 40.2113 1390.28 41.658C1391.48 43.0633 1392.37 44.7787 1392.95 46.804C1393.57 48.8293 1393.88 51.0613 1393.88 53.5C1393.88 58.7493 1392.6 62.8 1390.03 65.652C1387.51 68.4627 1383.94 69.868 1379.31 69.868C1376.83 69.868 1374.68 69.4753 1372.86 68.69C1371.04 67.9047 1369.51 66.8093 1368.27 65.404C1367.07 63.9573 1366.16 62.2213 1365.54 60.196C1364.97 58.1707 1364.68 55.9387 1364.68 53.5ZM1372.98 53.5C1372.98 54.864 1373.11 56.1247 1373.36 57.282C1373.6 58.4393 1373.98 59.452 1374.47 60.32C1374.97 61.188 1375.61 61.87 1376.39 62.366C1377.22 62.8207 1378.19 63.048 1379.31 63.048C1381.42 63.048 1382.99 62.2833 1384.02 60.754C1385.05 59.2247 1385.57 56.8067 1385.57 53.5C1385.57 50.648 1385.1 48.354 1384.14 46.618C1383.19 44.8407 1381.58 43.952 1379.31 43.952C1377.32 43.952 1375.77 44.696 1374.66 46.184C1373.54 47.672 1372.98 50.1107 1372.98 53.5ZM1410.02 55.422L1411.14 60.258H1411.51L1412.32 55.36L1417.03 38H1425.34L1415.91 65.962C1415.13 68.2767 1414.36 70.3847 1413.62 72.286C1412.92 74.2287 1412.13 75.9027 1411.26 77.308C1410.4 78.7133 1409.42 79.788 1408.35 80.532C1407.32 81.3173 1406.08 81.71 1404.63 81.71C1402.48 81.71 1400.76 81.3587 1399.48 80.656L1400.97 74.208C1401.59 74.456 1402.21 74.58 1402.83 74.58C1403.78 74.58 1404.69 74.1667 1405.56 73.34C1406.47 72.5547 1407.15 71.108 1407.61 69L1394.65 38H1404.32L1410.02 55.422ZM1441.18 60.444C1441.18 59.6173 1440.83 58.956 1440.13 58.46C1439.42 57.964 1438.56 57.5093 1437.52 57.096C1436.49 56.6827 1435.35 56.2693 1434.11 55.856C1432.87 55.4013 1431.74 54.802 1430.7 54.058C1429.67 53.2727 1428.8 52.3013 1428.1 51.144C1427.4 49.9453 1427.04 48.416 1427.04 46.556C1427.04 43.4973 1427.95 41.162 1429.77 39.55C1431.59 37.938 1434.22 37.132 1437.65 37.132C1440 37.132 1442.13 37.38 1444.03 37.876C1445.93 38.372 1447.42 38.93 1448.5 39.55L1446.7 45.378C1445.75 45.006 1444.55 44.6133 1443.1 44.2C1441.66 43.7867 1440.19 43.58 1438.7 43.58C1436.3 43.58 1435.1 44.51 1435.1 46.37C1435.1 47.114 1435.46 47.7133 1436.16 48.168C1436.86 48.6227 1437.73 49.0567 1438.76 49.47C1439.8 49.842 1440.93 50.2553 1442.17 50.71C1443.41 51.1647 1444.55 51.764 1445.58 52.508C1446.62 53.2107 1447.48 54.1407 1448.19 55.298C1448.89 56.4553 1449.24 57.9433 1449.24 59.762C1449.24 62.9033 1448.23 65.3833 1446.2 67.202C1444.22 68.9793 1441.22 69.868 1437.21 69.868C1435.02 69.868 1432.96 69.5787 1431.01 69C1429.11 68.4627 1427.56 67.822 1426.36 67.078L1428.59 61.064C1429.55 61.6013 1430.81 62.1387 1432.38 62.676C1433.95 63.172 1435.56 63.42 1437.21 63.42C1438.41 63.42 1439.36 63.1927 1440.06 62.738C1440.81 62.2833 1441.18 61.5187 1441.18 60.444Z" fill="black"/>
<path d="M431.301 213.6C432.169 213.476 433.14 213.373 434.215 213.29C435.331 213.207 436.467 213.145 437.625 213.104C438.782 213.063 439.898 213.042 440.973 213.042C442.089 213.001 443.081 212.98 443.949 212.98C447.793 212.98 451.079 213.517 453.807 214.592C456.535 215.667 458.746 217.175 460.441 219.118C462.135 221.061 463.375 223.375 464.161 226.062C464.946 228.749 465.339 231.704 465.339 234.928C465.339 237.863 464.967 240.694 464.223 243.422C463.479 246.15 462.239 248.568 460.503 250.676C458.767 252.784 456.473 254.479 453.621 255.76C450.81 257.041 447.317 257.682 443.143 257.682C442.481 257.682 441.593 257.661 440.477 257.62C439.402 257.579 438.265 257.517 437.067 257.434C435.909 257.393 434.793 257.331 433.719 257.248C432.644 257.207 431.838 257.145 431.301 257.062V213.6ZM444.631 220.544C443.721 220.544 442.791 220.565 441.841 220.606C440.931 220.647 440.249 220.709 439.795 220.792V249.87C439.96 249.911 440.229 249.953 440.601 249.994C441.014 249.994 441.448 250.015 441.903 250.056C442.357 250.056 442.791 250.077 443.205 250.118C443.618 250.118 443.928 250.118 444.135 250.118C446.532 250.118 448.516 249.705 450.087 248.878C451.699 248.01 452.959 246.873 453.869 245.468C454.819 244.063 455.481 242.451 455.853 240.632C456.225 238.772 456.411 236.871 456.411 234.928C456.411 233.233 456.245 231.539 455.915 229.844C455.584 228.108 454.964 226.558 454.055 225.194C453.187 223.83 451.988 222.714 450.459 221.846C448.929 220.978 446.987 220.544 444.631 220.544ZM479.007 226V243.608C479.007 246.129 479.296 247.948 479.875 249.064C480.495 250.18 481.673 250.738 483.409 250.738C484.938 250.738 486.199 250.283 487.191 249.374C488.224 248.465 488.989 247.349 489.485 246.026V226H497.545V247.576C497.545 249.271 497.628 250.945 497.793 252.598C497.958 254.21 498.206 255.677 498.537 257H492.461L491.035 252.412H490.787C489.836 253.983 488.514 255.285 486.819 256.318C485.124 257.351 483.12 257.868 480.805 257.868C479.234 257.868 477.829 257.661 476.589 257.248C475.349 256.835 474.316 256.153 473.489 255.202C472.662 254.251 472.022 252.97 471.567 251.358C471.154 249.746 470.947 247.721 470.947 245.282V226H479.007ZM521.73 233.564C520.449 233.109 519.292 232.882 518.258 232.882C516.812 232.882 515.592 233.275 514.6 234.06C513.65 234.804 513.009 235.775 512.678 236.974V257H504.618V226H510.88L511.81 230.092H512.058C512.761 228.563 513.712 227.385 514.91 226.558C516.109 225.731 517.514 225.318 519.126 225.318C520.201 225.318 521.42 225.545 522.784 226L521.73 233.564ZM527.099 226H535.159V257H527.099V226ZM525.921 217.258C525.921 216.059 526.355 215.047 527.223 214.22C528.132 213.352 529.372 212.918 530.943 212.918C532.513 212.918 533.774 213.352 534.725 214.22C535.717 215.047 536.213 216.059 536.213 217.258C536.213 218.457 535.717 219.469 534.725 220.296C533.774 221.081 532.513 221.474 530.943 221.474C529.372 221.474 528.132 221.081 527.223 220.296C526.355 219.469 525.921 218.457 525.921 217.258ZM561.977 257V239.392C561.977 236.871 561.605 235.052 560.861 233.936C560.159 232.82 558.939 232.262 557.203 232.262C555.674 232.262 554.372 232.717 553.297 233.626C552.264 234.494 551.52 235.589 551.065 236.912V257H543.005V226H549.391L550.321 230.092H550.569C551.52 228.769 552.781 227.612 554.351 226.62C555.922 225.628 557.947 225.132 560.427 225.132C561.957 225.132 563.321 225.339 564.519 225.752C565.718 226.165 566.731 226.847 567.557 227.798C568.384 228.749 569.004 230.051 569.417 231.704C569.831 233.316 570.037 235.321 570.037 237.718V257H561.977ZM603.016 257C603.016 261.505 601.797 264.812 599.358 266.92C596.92 269.069 593.51 270.144 589.128 270.144C586.152 270.144 583.796 269.937 582.06 269.524C580.366 269.111 579.084 268.677 578.216 268.222L579.89 261.836C580.841 262.208 581.936 262.58 583.176 262.952C584.458 263.324 586.028 263.51 587.888 263.51C590.699 263.51 592.6 262.89 593.592 261.65C594.626 260.451 595.142 258.757 595.142 256.566V254.582H594.894C593.448 256.525 590.885 257.496 587.206 257.496C583.197 257.496 580.2 256.256 578.216 253.776C576.274 251.296 575.302 247.411 575.302 242.12C575.302 236.581 576.625 232.386 579.27 229.534C581.916 226.682 585.76 225.256 590.802 225.256C593.448 225.256 595.804 225.442 597.87 225.814C599.978 226.186 601.694 226.62 603.016 227.116V257ZM589.376 251.048C590.947 251.048 592.146 250.697 592.972 249.994C593.84 249.291 594.502 248.237 594.956 246.832V232.882C593.675 232.345 592.084 232.076 590.182 232.076C588.116 232.076 586.504 232.861 585.346 234.432C584.189 235.961 583.61 238.421 583.61 241.81C583.61 244.827 584.106 247.121 585.098 248.692C586.09 250.263 587.516 251.048 589.376 251.048ZM654.499 255.202C653.176 256.153 651.482 256.835 649.415 257.248C647.39 257.661 645.302 257.868 643.153 257.868C640.549 257.868 638.069 257.475 635.713 256.69C633.398 255.863 631.352 254.561 629.575 252.784C627.798 250.965 626.372 248.63 625.297 245.778C624.264 242.885 623.747 239.392 623.747 235.3C623.747 231.043 624.326 227.488 625.483 224.636C626.682 221.743 628.211 219.428 630.071 217.692C631.972 215.915 634.08 214.654 636.395 213.91C638.71 213.125 641.024 212.732 643.339 212.732C645.819 212.732 647.906 212.897 649.601 213.228C651.337 213.559 652.763 213.951 653.879 214.406L652.205 221.598C651.254 221.143 650.118 220.813 648.795 220.606C647.514 220.399 645.943 220.296 644.083 220.296C640.652 220.296 637.883 221.515 635.775 223.954C633.708 226.393 632.675 230.175 632.675 235.3C632.675 237.532 632.923 239.578 633.419 241.438C633.915 243.257 634.659 244.827 635.651 246.15C636.684 247.431 637.945 248.444 639.433 249.188C640.962 249.891 642.719 250.242 644.703 250.242C646.563 250.242 648.134 250.056 649.415 249.684C650.696 249.312 651.812 248.837 652.763 248.258L654.499 255.202ZM656.321 235.3C656.321 228.067 657.913 222.507 661.095 218.622C664.278 214.695 668.825 212.732 674.735 212.732C677.835 212.732 680.543 213.269 682.857 214.344C685.172 215.419 687.094 216.948 688.623 218.932C690.153 220.916 691.289 223.293 692.033 226.062C692.777 228.831 693.149 231.911 693.149 235.3C693.149 242.533 691.537 248.113 688.313 252.04C685.131 255.925 680.605 257.868 674.735 257.868C671.594 257.868 668.866 257.331 666.551 256.256C664.237 255.181 662.315 253.652 660.785 251.668C659.297 249.684 658.181 247.307 657.437 244.538C656.693 241.769 656.321 238.689 656.321 235.3ZM665.249 235.3C665.249 237.491 665.435 239.516 665.807 241.376C666.179 243.195 666.737 244.765 667.481 246.088C668.267 247.411 669.259 248.444 670.457 249.188C671.656 249.932 673.082 250.304 674.735 250.304C677.753 250.304 680.088 249.126 681.741 246.77C683.395 244.414 684.221 240.591 684.221 235.3C684.221 233.192 684.035 231.229 683.663 229.41C683.333 227.591 682.795 226 682.051 224.636C681.307 223.272 680.336 222.218 679.137 221.474C677.939 220.689 676.471 220.296 674.735 220.296C671.718 220.296 669.383 221.515 667.729 223.954C666.076 226.351 665.249 230.133 665.249 235.3ZM711.18 239.082L712.296 246.46H712.606L713.846 239.02L722.154 213.6H731.082L714.962 257.31H708.886L692.642 213.6H702.5L711.18 239.082ZM735.085 213.6H743.579V257H735.085V213.6ZM751.896 213.6C752.764 213.476 753.736 213.373 754.81 213.29C755.926 213.207 757.063 213.145 758.22 213.104C759.378 213.063 760.494 213.042 761.568 213.042C762.684 213.001 763.676 212.98 764.544 212.98C768.388 212.98 771.674 213.517 774.402 214.592C777.13 215.667 779.342 217.175 781.036 219.118C782.731 221.061 783.971 223.375 784.756 226.062C785.542 228.749 785.934 231.704 785.934 234.928C785.934 237.863 785.562 240.694 784.818 243.422C784.074 246.15 782.834 248.568 781.098 250.676C779.362 252.784 777.068 254.479 774.216 255.76C771.406 257.041 767.913 257.682 763.738 257.682C763.077 257.682 762.188 257.661 761.072 257.62C759.998 257.579 758.861 257.517 757.662 257.434C756.505 257.393 755.389 257.331 754.314 257.248C753.24 257.207 752.434 257.145 751.896 257.062V213.6ZM765.226 220.544C764.317 220.544 763.387 220.565 762.436 220.606C761.527 220.647 760.845 220.709 760.39 220.792V249.87C760.556 249.911 760.824 249.953 761.196 249.994C761.61 249.994 762.044 250.015 762.498 250.056C762.953 250.056 763.387 250.077 763.8 250.118C764.214 250.118 764.524 250.118 764.73 250.118C767.128 250.118 769.112 249.705 770.682 248.878C772.294 248.01 773.555 246.873 774.464 245.468C775.415 244.063 776.076 242.451 776.448 240.632C776.82 238.772 777.006 236.871 777.006 234.928C777.006 233.233 776.841 231.539 776.51 229.844C776.18 228.108 775.56 226.558 774.65 225.194C773.782 223.83 772.584 222.714 771.054 221.846C769.525 220.978 767.582 220.544 765.226 220.544ZM791.667 235.61H807.229V242.74H791.667V235.61ZM816.923 250.18H825.541V225.69L826.471 221.474L823.495 225.132L817.977 228.914L814.567 224.264L828.703 212.856H833.229V250.18H841.661V257H816.923V250.18ZM848.628 227.178C848.628 225.07 848.938 223.127 849.558 221.35C850.22 219.573 851.15 218.064 852.348 216.824C853.588 215.543 855.076 214.551 856.812 213.848C858.59 213.104 860.615 212.732 862.888 212.732C867.559 212.732 871.217 214.137 873.862 216.948C876.549 219.717 877.892 223.768 877.892 229.1C877.892 233.895 877.272 238.049 876.032 241.562C874.834 245.034 873.201 247.948 871.134 250.304C869.109 252.619 866.753 254.396 864.066 255.636C861.38 256.876 858.548 257.62 855.572 257.868L853.836 251.544C856.11 251.255 858.135 250.697 859.912 249.87C861.69 249.043 863.219 248.031 864.5 246.832C865.782 245.592 866.815 244.207 867.6 242.678C868.427 241.107 869.006 239.433 869.336 237.656C868.344 238.731 867.27 239.475 866.112 239.888C864.996 240.301 863.488 240.508 861.586 240.508C860.016 240.508 858.445 240.239 856.874 239.702C855.345 239.165 853.96 238.359 852.72 237.284C851.522 236.168 850.53 234.783 849.744 233.13C849 231.435 848.628 229.451 848.628 227.178ZM856.44 226.744C856.44 229.1 857.102 230.877 858.424 232.076C859.747 233.275 861.4 233.874 863.384 233.874C865.079 233.874 866.464 233.605 867.538 233.068C868.613 232.531 869.44 231.869 870.018 231.084C870.142 230.216 870.204 229.389 870.204 228.604C870.204 227.447 870.06 226.31 869.77 225.194C869.481 224.078 869.026 223.086 868.406 222.218C867.828 221.35 867.063 220.668 866.112 220.172C865.203 219.635 864.108 219.366 862.826 219.366C860.801 219.366 859.23 220.027 858.114 221.35C856.998 222.631 856.44 224.429 856.44 226.744ZM900.232 226H906.122L907.052 229.72H907.3C908.374 228.149 909.635 226.992 911.082 226.248C912.57 225.504 914.368 225.132 916.476 225.132C920.361 225.132 923.275 226.372 925.218 228.852C927.16 231.291 928.132 235.238 928.132 240.694C928.132 243.339 927.822 245.737 927.202 247.886C926.582 249.994 925.652 251.792 924.412 253.28C923.213 254.768 921.725 255.905 919.948 256.69C918.212 257.475 916.207 257.868 913.934 257.868C912.652 257.868 911.598 257.765 910.772 257.558C909.945 257.393 909.118 257.103 908.292 256.69V269.4H900.232V226ZM914.058 231.952C912.487 231.952 911.247 232.345 910.338 233.13C909.47 233.915 908.788 235.093 908.292 236.664V249.56C908.87 250.015 909.49 250.387 910.152 250.676C910.854 250.924 911.764 251.048 912.88 251.048C915.194 251.048 916.93 250.242 918.088 248.63C919.245 246.977 919.824 244.269 919.824 240.508C919.824 237.78 919.369 235.672 918.46 234.184C917.55 232.696 916.083 231.952 914.058 231.952ZM933.528 227.798C935.182 227.054 937.145 226.475 939.418 226.062C941.692 225.607 944.068 225.38 946.548 225.38C948.698 225.38 950.496 225.649 951.942 226.186C953.389 226.682 954.526 227.405 955.352 228.356C956.22 229.307 956.82 230.443 957.15 231.766C957.522 233.089 957.708 234.577 957.708 236.23C957.708 238.049 957.646 239.888 957.522 241.748C957.398 243.567 957.316 245.365 957.274 247.142C957.274 248.919 957.336 250.655 957.46 252.35C957.584 254.003 957.894 255.574 958.39 257.062H951.818L950.516 252.784H950.206C949.38 254.065 948.222 255.181 946.734 256.132C945.288 257.041 943.407 257.496 941.092 257.496C939.646 257.496 938.344 257.289 937.186 256.876C936.029 256.421 935.037 255.801 934.21 255.016C933.384 254.189 932.743 253.239 932.288 252.164C931.834 251.048 931.606 249.808 931.606 248.444C931.606 246.543 932.02 244.951 932.846 243.67C933.714 242.347 934.934 241.293 936.504 240.508C938.116 239.681 940.018 239.123 942.208 238.834C944.44 238.503 946.92 238.4 949.648 238.524C949.938 236.209 949.772 234.556 949.152 233.564C948.532 232.531 947.148 232.014 944.998 232.014C943.386 232.014 941.671 232.179 939.852 232.51C938.075 232.841 936.608 233.275 935.45 233.812L933.528 227.798ZM943.758 250.862C945.37 250.862 946.652 250.511 947.602 249.808C948.553 249.064 949.256 248.279 949.71 247.452V243.422C948.429 243.298 947.189 243.277 945.99 243.36C944.833 243.443 943.8 243.629 942.89 243.918C941.981 244.207 941.258 244.621 940.72 245.158C940.183 245.695 939.914 246.377 939.914 247.204C939.914 248.361 940.245 249.271 940.906 249.932C941.609 250.552 942.56 250.862 943.758 250.862ZM983.444 257V239.392C983.444 236.871 983.072 235.052 982.328 233.936C981.625 232.82 980.406 232.262 978.67 232.262C977.141 232.262 975.839 232.717 974.764 233.626C973.731 234.494 972.987 235.589 972.532 236.912V257H964.472V226H970.858L971.788 230.092H972.036C972.987 228.769 974.247 227.612 975.818 226.62C977.389 225.628 979.414 225.132 981.894 225.132C983.423 225.132 984.787 225.339 985.986 225.752C987.185 226.165 988.197 226.847 989.024 227.798C989.851 228.749 990.471 230.051 990.884 231.704C991.297 233.316 991.504 235.321 991.504 237.718V257H983.444ZM1024.61 246.088C1024.61 247.824 1024.63 249.56 1024.67 251.296C1024.71 253.032 1024.9 254.954 1025.23 257.062H1019.46L1018.35 253.032H1018.1C1017.27 254.479 1016.07 255.657 1014.5 256.566C1012.97 257.434 1011.15 257.868 1009.05 257.868C1005.16 257.868 1002.14 256.587 999.993 254.024C997.844 251.461 996.769 247.452 996.769 241.996C996.769 236.705 997.968 232.593 1000.37 229.658C1002.76 226.723 1006.28 225.256 1010.91 225.256C1012.19 225.256 1013.24 225.339 1014.07 225.504C1014.89 225.628 1015.72 225.855 1016.55 226.186V213.6H1024.61V246.088ZM1010.91 251.048C1012.48 251.048 1013.72 250.676 1014.63 249.932C1015.53 249.147 1016.18 248.031 1016.55 246.584V233.44C1015.97 232.985 1015.33 232.655 1014.63 232.448C1013.92 232.2 1013.01 232.076 1011.9 232.076C1009.62 232.076 1007.91 232.841 1006.75 234.37C1005.64 235.899 1005.08 238.524 1005.08 242.244C1005.08 244.889 1005.53 247.018 1006.44 248.63C1007.39 250.242 1008.88 251.048 1010.91 251.048ZM1056.48 254.334C1055.24 255.326 1053.54 256.173 1051.4 256.876C1049.29 257.537 1047.03 257.868 1044.64 257.868C1039.64 257.868 1035.98 256.421 1033.66 253.528C1031.35 250.593 1030.19 246.584 1030.19 241.5C1030.19 236.044 1031.49 231.952 1034.1 229.224C1036.7 226.496 1040.36 225.132 1045.07 225.132C1046.64 225.132 1048.17 225.339 1049.66 225.752C1051.15 226.165 1052.47 226.847 1053.63 227.798C1054.78 228.749 1055.71 230.03 1056.42 231.642C1057.12 233.254 1057.47 235.259 1057.47 237.656C1057.47 238.524 1057.41 239.454 1057.29 240.446C1057.2 241.438 1057.06 242.471 1056.85 243.546H1038.25C1038.38 246.15 1039.04 248.113 1040.24 249.436C1041.48 250.759 1043.46 251.42 1046.19 251.42C1047.88 251.42 1049.39 251.172 1050.71 250.676C1052.08 250.139 1053.11 249.601 1053.81 249.064L1056.48 254.334ZM1044.95 231.58C1042.84 231.58 1041.27 232.221 1040.24 233.502C1039.24 234.742 1038.64 236.416 1038.44 238.524H1049.97C1050.13 236.292 1049.78 234.577 1048.92 233.378C1048.09 232.179 1046.77 231.58 1044.95 231.58ZM1080.77 257V240.136C1080.77 237.284 1080.5 235.259 1079.97 234.06C1079.43 232.861 1078.31 232.262 1076.62 232.262C1075.21 232.262 1074.08 232.655 1073.21 233.44C1072.34 234.184 1071.68 235.155 1071.22 236.354V257H1063.16V226H1069.43L1070.36 230.092H1070.6C1071.55 228.769 1072.75 227.612 1074.2 226.62C1075.69 225.628 1077.59 225.132 1079.9 225.132C1081.89 225.132 1083.5 225.545 1084.74 226.372C1086.02 227.157 1087.01 228.501 1087.72 230.402C1088.67 228.79 1089.89 227.509 1091.37 226.558C1092.86 225.607 1094.66 225.132 1096.77 225.132C1098.5 225.132 1099.97 225.339 1101.17 225.752C1102.41 226.165 1103.4 226.889 1104.15 227.922C1104.93 228.914 1105.51 230.257 1105.88 231.952C1106.25 233.647 1106.44 235.796 1106.44 238.4V257H1098.38V239.578C1098.38 237.139 1098.11 235.321 1097.57 234.122C1097.08 232.882 1095.94 232.262 1094.16 232.262C1092.72 232.262 1091.56 232.655 1090.69 233.44C1089.86 234.225 1089.24 235.3 1088.83 236.664V257H1080.77ZM1113.8 226H1121.86V257H1113.8V226ZM1112.62 217.258C1112.62 216.059 1113.05 215.047 1113.92 214.22C1114.83 213.352 1116.07 212.918 1117.64 212.918C1119.21 212.918 1120.47 213.352 1121.42 214.22C1122.42 215.047 1122.91 216.059 1122.91 217.258C1122.91 218.457 1122.42 219.469 1121.42 220.296C1120.47 221.081 1119.21 221.474 1117.64 221.474C1116.07 221.474 1114.83 221.081 1113.92 220.296C1113.05 219.469 1112.62 218.457 1112.62 217.258ZM1151.65 255.078C1150.41 255.987 1148.9 256.669 1147.13 257.124C1145.39 257.62 1143.59 257.868 1141.73 257.868C1139.25 257.868 1137.14 257.475 1135.41 256.69C1133.71 255.905 1132.33 254.809 1131.25 253.404C1130.18 251.957 1129.39 250.221 1128.9 248.196C1128.44 246.171 1128.22 243.939 1128.22 241.5C1128.22 236.251 1129.39 232.221 1131.75 229.41C1134.11 226.558 1137.54 225.132 1142.04 225.132C1144.32 225.132 1146.13 225.318 1147.5 225.69C1148.9 226.062 1150.16 226.537 1151.28 227.116L1149.36 233.688C1148.41 233.233 1147.46 232.882 1146.51 232.634C1145.6 232.386 1144.54 232.262 1143.34 232.262C1141.11 232.262 1139.42 233.006 1138.26 234.494C1137.1 235.941 1136.52 238.276 1136.52 241.5C1136.52 242.823 1136.67 244.042 1136.96 245.158C1137.25 246.274 1137.68 247.245 1138.26 248.072C1138.84 248.899 1139.58 249.56 1140.49 250.056C1141.44 250.511 1142.54 250.738 1143.78 250.738C1145.14 250.738 1146.3 250.573 1147.25 250.242C1148.2 249.87 1149.05 249.436 1149.79 248.94L1151.65 255.078Z" fill="black"/>
<path d="M350.238 119L87.244 119" stroke="#922A2A" stroke-width="12"/>
<path d="M350.238 237H87.244" stroke="#922A2A" stroke-width="12" stroke-dasharray="14 14"/>
<path d="M1513.06 120L1250.07 120" stroke="#121212" stroke-width="12"/>
<path d="M1513.06 238H1250.07" stroke="#121212" stroke-width="12" stroke-dasharray="14 14"/>
<rect x="1215.82" y="97" width="68.488" height="46" fill="#121212"/>
<rect x="1478.82" y="97" width="68.488" height="46" fill="#121212"/>
<rect x="1215.82" y="215" width="68.488" height="46" fill="#121212"/>
<rect x="1478.82" y="215" width="68.488" height="46" fill="#121212"/>
<circle cx="88.5" cy="118.5" r="23.5" fill="#922A2A"/>
<circle cx="349.5" cy="118.5" r="23.5" fill="#922A2A"/>
<circle cx="88.5" cy="233.5" r="23.5" fill="#922A2A"/>
<circle cx="349.5" cy="233.5" r="23.5" fill="#922A2A"/>
<path d="M432.72 328.6C433.588 328.476 434.559 328.373 435.634 328.29C436.75 328.207 437.887 328.145 439.044 328.104C440.201 328.063 441.317 328.042 442.392 328.042C443.508 328.001 444.5 327.98 445.368 327.98C449.212 327.98 452.498 328.517 455.226 329.592C457.954 330.667 460.165 332.175 461.86 334.118C463.555 336.061 464.795 338.375 465.58 341.062C466.365 343.749 466.758 346.704 466.758 349.928C466.758 352.863 466.386 355.694 465.642 358.422C464.898 361.15 463.658 363.568 461.922 365.676C460.186 367.784 457.892 369.479 455.04 370.76C452.229 372.041 448.737 372.682 444.562 372.682C443.901 372.682 443.012 372.661 441.896 372.62C440.821 372.579 439.685 372.517 438.486 372.434C437.329 372.393 436.213 372.331 435.138 372.248C434.063 372.207 433.257 372.145 432.72 372.062V328.6ZM446.05 335.544C445.141 335.544 444.211 335.565 443.26 335.606C442.351 335.647 441.669 335.709 441.214 335.792V364.87C441.379 364.911 441.648 364.953 442.02 364.994C442.433 364.994 442.867 365.015 443.322 365.056C443.777 365.056 444.211 365.077 444.624 365.118C445.037 365.118 445.347 365.118 445.554 365.118C447.951 365.118 449.935 364.705 451.506 363.878C453.118 363.01 454.379 361.873 455.288 360.468C456.239 359.063 456.9 357.451 457.272 355.632C457.644 353.772 457.83 351.871 457.83 349.928C457.83 348.233 457.665 346.539 457.334 344.844C457.003 343.108 456.383 341.558 455.474 340.194C454.606 338.83 453.407 337.714 451.878 336.846C450.349 335.978 448.406 335.544 446.05 335.544ZM480.427 341V358.608C480.427 361.129 480.716 362.948 481.295 364.064C481.915 365.18 483.093 365.738 484.829 365.738C486.358 365.738 487.619 365.283 488.611 364.374C489.644 363.465 490.409 362.349 490.905 361.026V341H498.965V362.576C498.965 364.271 499.047 365.945 499.213 367.598C499.378 369.21 499.626 370.677 499.957 372H493.881L492.455 367.412H492.207C491.256 368.983 489.933 370.285 488.239 371.318C486.544 372.351 484.539 372.868 482.225 372.868C480.654 372.868 479.249 372.661 478.009 372.248C476.769 371.835 475.735 371.153 474.909 370.202C474.082 369.251 473.441 367.97 472.987 366.358C472.573 364.746 472.367 362.721 472.367 360.282V341H480.427ZM523.15 348.564C521.869 348.109 520.711 347.882 519.678 347.882C518.231 347.882 517.012 348.275 516.02 349.06C515.069 349.804 514.429 350.775 514.098 351.974V372H506.038V341H512.3L513.23 345.092H513.478C514.181 343.563 515.131 342.385 516.33 341.558C517.529 340.731 518.934 340.318 520.546 340.318C521.621 340.318 522.84 340.545 524.204 341L523.15 348.564ZM528.518 341H536.578V372H528.518V341ZM527.34 332.258C527.34 331.059 527.774 330.047 528.642 329.22C529.552 328.352 530.792 327.918 532.362 327.918C533.933 327.918 535.194 328.352 536.144 329.22C537.136 330.047 537.632 331.059 537.632 332.258C537.632 333.457 537.136 334.469 536.144 335.296C535.194 336.081 533.933 336.474 532.362 336.474C530.792 336.474 529.552 336.081 528.642 335.296C527.774 334.469 527.34 333.457 527.34 332.258ZM563.397 372V354.392C563.397 351.871 563.025 350.052 562.281 348.936C561.578 347.82 560.359 347.262 558.623 347.262C557.093 347.262 555.791 347.717 554.717 348.626C553.683 349.494 552.939 350.589 552.485 351.912V372H544.425V341H550.811L551.741 345.092H551.989C552.939 343.769 554.2 342.612 555.771 341.62C557.341 340.628 559.367 340.132 561.847 340.132C563.376 340.132 564.74 340.339 565.939 340.752C567.137 341.165 568.15 341.847 568.977 342.798C569.803 343.749 570.423 345.051 570.837 346.704C571.25 348.316 571.457 350.321 571.457 352.718V372H563.397ZM604.436 372C604.436 376.505 603.216 379.812 600.778 381.92C598.339 384.069 594.929 385.144 590.548 385.144C587.572 385.144 585.216 384.937 583.48 384.524C581.785 384.111 580.504 383.677 579.636 383.222L581.31 376.836C582.26 377.208 583.356 377.58 584.596 377.952C585.877 378.324 587.448 378.51 589.308 378.51C592.118 378.51 594.02 377.89 595.012 376.65C596.045 375.451 596.562 373.757 596.562 371.566V369.582H596.314C594.867 371.525 592.304 372.496 588.626 372.496C584.616 372.496 581.62 371.256 579.636 368.776C577.693 366.296 576.722 362.411 576.722 357.12C576.722 351.581 578.044 347.386 580.69 344.534C583.335 341.682 587.179 340.256 592.222 340.256C594.867 340.256 597.223 340.442 599.29 340.814C601.398 341.186 603.113 341.62 604.436 342.116V372ZM590.796 366.048C592.366 366.048 593.565 365.697 594.392 364.994C595.26 364.291 595.921 363.237 596.376 361.832V347.882C595.094 347.345 593.503 347.076 591.602 347.076C589.535 347.076 587.923 347.861 586.766 349.432C585.608 350.961 585.03 353.421 585.03 356.81C585.03 359.827 585.526 362.121 586.518 363.692C587.51 365.263 588.936 366.048 590.796 366.048ZM655.919 370.202C654.596 371.153 652.901 371.835 650.835 372.248C648.809 372.661 646.722 372.868 644.573 372.868C641.969 372.868 639.489 372.475 637.133 371.69C634.818 370.863 632.772 369.561 630.995 367.784C629.217 365.965 627.791 363.63 626.717 360.778C625.683 357.885 625.167 354.392 625.167 350.3C625.167 346.043 625.745 342.488 626.903 339.636C628.101 336.743 629.631 334.428 631.491 332.692C633.392 330.915 635.5 329.654 637.815 328.91C640.129 328.125 642.444 327.732 644.759 327.732C647.239 327.732 649.326 327.897 651.021 328.228C652.757 328.559 654.183 328.951 655.299 329.406L653.625 336.598C652.674 336.143 651.537 335.813 650.215 335.606C648.933 335.399 647.363 335.296 645.503 335.296C642.072 335.296 639.303 336.515 637.195 338.954C635.128 341.393 634.095 345.175 634.095 350.3C634.095 352.532 634.343 354.578 634.839 356.438C635.335 358.257 636.079 359.827 637.071 361.15C638.104 362.431 639.365 363.444 640.853 364.188C642.382 364.891 644.139 365.242 646.123 365.242C647.983 365.242 649.553 365.056 650.835 364.684C652.116 364.312 653.232 363.837 654.183 363.258L655.919 370.202ZM657.741 350.3C657.741 343.067 659.332 337.507 662.515 333.622C665.697 329.695 670.244 327.732 676.155 327.732C679.255 327.732 681.962 328.269 684.277 329.344C686.591 330.419 688.513 331.948 690.043 333.932C691.572 335.916 692.709 338.293 693.453 341.062C694.197 343.831 694.569 346.911 694.569 350.3C694.569 357.533 692.957 363.113 689.733 367.04C686.55 370.925 682.024 372.868 676.155 372.868C673.013 372.868 670.285 372.331 667.971 371.256C665.656 370.181 663.734 368.652 662.205 366.668C660.717 364.684 659.601 362.307 658.857 359.538C658.113 356.769 657.741 353.689 657.741 350.3ZM666.669 350.3C666.669 352.491 666.855 354.516 667.227 356.376C667.599 358.195 668.157 359.765 668.901 361.088C669.686 362.411 670.678 363.444 671.877 364.188C673.075 364.932 674.501 365.304 676.155 365.304C679.172 365.304 681.507 364.126 683.161 361.77C684.814 359.414 685.641 355.591 685.641 350.3C685.641 348.192 685.455 346.229 685.083 344.41C684.752 342.591 684.215 341 683.471 339.636C682.727 338.272 681.755 337.218 680.557 336.474C679.358 335.689 677.891 335.296 676.155 335.296C673.137 335.296 670.802 336.515 669.149 338.954C667.495 341.351 666.669 345.133 666.669 350.3ZM712.599 354.082L713.715 361.46H714.025L715.265 354.02L723.573 328.6H732.501L716.381 372.31H710.305L694.061 328.6H703.919L712.599 354.082ZM736.504 328.6H744.998V372H736.504V328.6ZM753.316 328.6C754.184 328.476 755.155 328.373 756.23 328.29C757.346 328.207 758.482 328.145 759.64 328.104C760.797 328.063 761.913 328.042 762.988 328.042C764.104 328.001 765.096 327.98 765.964 327.98C769.808 327.98 773.094 328.517 775.822 329.592C778.55 330.667 780.761 332.175 782.456 334.118C784.15 336.061 785.39 338.375 786.176 341.062C786.961 343.749 787.354 346.704 787.354 349.928C787.354 352.863 786.982 355.694 786.238 358.422C785.494 361.15 784.254 363.568 782.518 365.676C780.782 367.784 778.488 369.479 775.636 370.76C772.825 372.041 769.332 372.682 765.158 372.682C764.496 372.682 763.608 372.661 762.492 372.62C761.417 372.579 760.28 372.517 759.082 372.434C757.924 372.393 756.808 372.331 755.734 372.248C754.659 372.207 753.853 372.145 753.316 372.062V328.6ZM766.646 335.544C765.736 335.544 764.806 335.565 763.856 335.606C762.946 335.647 762.264 335.709 761.81 335.792V364.87C761.975 364.911 762.244 364.953 762.616 364.994C763.029 364.994 763.463 365.015 763.918 365.056C764.372 365.056 764.806 365.077 765.22 365.118C765.633 365.118 765.943 365.118 766.15 365.118C768.547 365.118 770.531 364.705 772.102 363.878C773.714 363.01 774.974 361.873 775.884 360.468C776.834 359.063 777.496 357.451 777.868 355.632C778.24 353.772 778.426 351.871 778.426 349.928C778.426 348.233 778.26 346.539 777.93 344.844C777.599 343.108 776.979 341.558 776.07 340.194C775.202 338.83 774.003 337.714 772.474 336.846C770.944 335.978 769.002 335.544 766.646 335.544ZM793.086 350.61H808.648V357.74H793.086V350.61ZM818.342 365.18H826.96V340.69L827.89 336.474L824.914 340.132L819.396 343.914L815.986 339.264L830.122 327.856H834.648V365.18H843.08V372H818.342V365.18ZM850.048 342.178C850.048 340.07 850.358 338.127 850.978 336.35C851.639 334.573 852.569 333.064 853.768 331.824C855.008 330.543 856.496 329.551 858.232 328.848C860.009 328.104 862.034 327.732 864.308 327.732C868.978 327.732 872.636 329.137 875.282 331.948C877.968 334.717 879.312 338.768 879.312 344.1C879.312 348.895 878.692 353.049 877.452 356.562C876.253 360.034 874.62 362.948 872.554 365.304C870.528 367.619 868.172 369.396 865.486 370.636C862.799 371.876 859.968 372.62 856.992 372.868L855.256 366.544C857.529 366.255 859.554 365.697 861.332 364.87C863.109 364.043 864.638 363.031 865.92 361.832C867.201 360.592 868.234 359.207 869.02 357.678C869.846 356.107 870.425 354.433 870.756 352.656C869.764 353.731 868.689 354.475 867.532 354.888C866.416 355.301 864.907 355.508 863.006 355.508C861.435 355.508 859.864 355.239 858.294 354.702C856.764 354.165 855.38 353.359 854.14 352.284C852.941 351.168 851.949 349.783 851.164 348.13C850.42 346.435 850.048 344.451 850.048 342.178ZM857.86 341.744C857.86 344.1 858.521 345.877 859.844 347.076C861.166 348.275 862.82 348.874 864.804 348.874C866.498 348.874 867.883 348.605 868.958 348.068C870.032 347.531 870.859 346.869 871.438 346.084C871.562 345.216 871.624 344.389 871.624 343.604C871.624 342.447 871.479 341.31 871.19 340.194C870.9 339.078 870.446 338.086 869.826 337.218C869.247 336.35 868.482 335.668 867.532 335.172C866.622 334.635 865.527 334.366 864.246 334.366C862.22 334.366 860.65 335.027 859.534 336.35C858.418 337.631 857.86 339.429 857.86 341.744ZM901.651 341H907.541L908.471 344.72H908.719C909.794 343.149 911.055 341.992 912.501 341.248C913.989 340.504 915.787 340.132 917.895 340.132C921.781 340.132 924.695 341.372 926.637 343.852C928.58 346.291 929.551 350.238 929.551 355.694C929.551 358.339 929.241 360.737 928.621 362.886C928.001 364.994 927.071 366.792 925.831 368.28C924.633 369.768 923.145 370.905 921.367 371.69C919.631 372.475 917.627 372.868 915.353 372.868C914.072 372.868 913.018 372.765 912.191 372.558C911.365 372.393 910.538 372.103 909.711 371.69V384.4H901.651V341ZM915.477 346.952C913.907 346.952 912.667 347.345 911.757 348.13C910.889 348.915 910.207 350.093 909.711 351.664V364.56C910.29 365.015 910.91 365.387 911.571 365.676C912.274 365.924 913.183 366.048 914.299 366.048C916.614 366.048 918.35 365.242 919.507 363.63C920.665 361.977 921.243 359.269 921.243 355.508C921.243 352.78 920.789 350.672 919.879 349.184C918.97 347.696 917.503 346.952 915.477 346.952ZM934.948 342.798C936.601 342.054 938.564 341.475 940.838 341.062C943.111 340.607 945.488 340.38 947.968 340.38C950.117 340.38 951.915 340.649 953.362 341.186C954.808 341.682 955.945 342.405 956.772 343.356C957.64 344.307 958.239 345.443 958.57 346.766C958.942 348.089 959.128 349.577 959.128 351.23C959.128 353.049 959.066 354.888 958.942 356.748C958.818 358.567 958.735 360.365 958.694 362.142C958.694 363.919 958.756 365.655 958.88 367.35C959.004 369.003 959.314 370.574 959.81 372.062H953.238L951.936 367.784H951.626C950.799 369.065 949.642 370.181 948.154 371.132C946.707 372.041 944.826 372.496 942.512 372.496C941.065 372.496 939.763 372.289 938.606 371.876C937.448 371.421 936.456 370.801 935.63 370.016C934.803 369.189 934.162 368.239 933.708 367.164C933.253 366.048 933.026 364.808 933.026 363.444C933.026 361.543 933.439 359.951 934.266 358.67C935.134 357.347 936.353 356.293 937.924 355.508C939.536 354.681 941.437 354.123 943.628 353.834C945.86 353.503 948.34 353.4 951.068 353.524C951.357 351.209 951.192 349.556 950.572 348.564C949.952 347.531 948.567 347.014 946.418 347.014C944.806 347.014 943.09 347.179 941.272 347.51C939.494 347.841 938.027 348.275 936.87 348.812L934.948 342.798ZM945.178 365.862C946.79 365.862 948.071 365.511 949.022 364.808C949.972 364.064 950.675 363.279 951.13 362.452V358.422C949.848 358.298 948.608 358.277 947.41 358.36C946.252 358.443 945.219 358.629 944.31 358.918C943.4 359.207 942.677 359.621 942.14 360.158C941.602 360.695 941.334 361.377 941.334 362.204C941.334 363.361 941.664 364.271 942.326 364.932C943.028 365.552 943.979 365.862 945.178 365.862ZM984.863 372V354.392C984.863 351.871 984.491 350.052 983.747 348.936C983.045 347.82 981.825 347.262 980.089 347.262C978.56 347.262 977.258 347.717 976.183 348.626C975.15 349.494 974.406 350.589 973.951 351.912V372H965.891V341H972.277L973.207 345.092H973.455C974.406 343.769 975.667 342.612 977.237 341.62C978.808 340.628 980.833 340.132 983.313 340.132C984.843 340.132 986.207 340.339 987.405 340.752C988.604 341.165 989.617 341.847 990.443 342.798C991.27 343.749 991.89 345.051 992.303 346.704C992.717 348.316 992.923 350.321 992.923 352.718V372H984.863ZM1026.03 361.088C1026.03 362.824 1026.05 364.56 1026.09 366.296C1026.13 368.032 1026.32 369.954 1026.65 372.062H1020.88L1019.76 368.032H1019.52C1018.69 369.479 1017.49 370.657 1015.92 371.566C1014.39 372.434 1012.57 372.868 1010.46 372.868C1006.58 372.868 1003.56 371.587 1001.41 369.024C999.263 366.461 998.189 362.452 998.189 356.996C998.189 351.705 999.387 347.593 1001.78 344.658C1004.18 341.723 1007.7 340.256 1012.32 340.256C1013.61 340.256 1014.66 340.339 1015.49 340.504C1016.31 340.628 1017.14 340.855 1017.97 341.186V328.6H1026.03V361.088ZM1012.32 366.048C1013.9 366.048 1015.14 365.676 1016.04 364.932C1016.95 364.147 1017.59 363.031 1017.97 361.584V348.44C1017.39 347.985 1016.75 347.655 1016.04 347.448C1015.34 347.2 1014.43 347.076 1013.32 347.076C1011.04 347.076 1009.33 347.841 1008.17 349.37C1007.05 350.899 1006.5 353.524 1006.5 357.244C1006.5 359.889 1006.95 362.018 1007.86 363.63C1008.81 365.242 1010.3 366.048 1012.32 366.048ZM1057.9 369.334C1056.66 370.326 1054.96 371.173 1052.81 371.876C1050.71 372.537 1048.45 372.868 1046.06 372.868C1041.06 372.868 1037.4 371.421 1035.08 368.528C1032.77 365.593 1031.61 361.584 1031.61 356.5C1031.61 351.044 1032.91 346.952 1035.52 344.224C1038.12 341.496 1041.78 340.132 1046.49 340.132C1048.06 340.132 1049.59 340.339 1051.08 340.752C1052.57 341.165 1053.89 341.847 1055.05 342.798C1056.2 343.749 1057.13 345.03 1057.84 346.642C1058.54 348.254 1058.89 350.259 1058.89 352.656C1058.89 353.524 1058.83 354.454 1058.7 355.446C1058.62 356.438 1058.48 357.471 1058.27 358.546H1039.67C1039.79 361.15 1040.46 363.113 1041.65 364.436C1042.89 365.759 1044.88 366.42 1047.61 366.42C1049.3 366.42 1050.81 366.172 1052.13 365.676C1053.5 365.139 1054.53 364.601 1055.23 364.064L1057.9 369.334ZM1046.37 346.58C1044.26 346.58 1042.69 347.221 1041.65 348.502C1040.66 349.742 1040.06 351.416 1039.86 353.524H1051.39C1051.55 351.292 1051.2 349.577 1050.33 348.378C1049.51 347.179 1048.19 346.58 1046.37 346.58ZM1082.19 372V355.136C1082.19 352.284 1081.92 350.259 1081.38 349.06C1080.85 347.861 1079.73 347.262 1078.04 347.262C1076.63 347.262 1075.49 347.655 1074.63 348.44C1073.76 349.184 1073.1 350.155 1072.64 351.354V372H1064.58V341H1070.84L1071.77 345.092H1072.02C1072.97 343.769 1074.17 342.612 1075.62 341.62C1077.11 340.628 1079.01 340.132 1081.32 340.132C1083.31 340.132 1084.92 340.545 1086.16 341.372C1087.44 342.157 1088.43 343.501 1089.13 345.402C1090.09 343.79 1091.3 342.509 1092.79 341.558C1094.28 340.607 1096.08 340.132 1098.19 340.132C1099.92 340.132 1101.39 340.339 1102.59 340.752C1103.83 341.165 1104.82 341.889 1105.56 342.922C1106.35 343.914 1106.93 345.257 1107.3 346.952C1107.67 348.647 1107.86 350.796 1107.86 353.4V372H1099.8V354.578C1099.8 352.139 1099.53 350.321 1098.99 349.122C1098.5 347.882 1097.36 347.262 1095.58 347.262C1094.14 347.262 1092.98 347.655 1092.11 348.44C1091.28 349.225 1090.66 350.3 1090.25 351.664V372H1082.19ZM1115.22 341H1123.28V372H1115.22V341ZM1114.04 332.258C1114.04 331.059 1114.47 330.047 1115.34 329.22C1116.25 328.352 1117.49 327.918 1119.06 327.918C1120.63 327.918 1121.89 328.352 1122.84 329.22C1123.84 330.047 1124.33 331.059 1124.33 332.258C1124.33 333.457 1123.84 334.469 1122.84 335.296C1121.89 336.081 1120.63 336.474 1119.06 336.474C1117.49 336.474 1116.25 336.081 1115.34 335.296C1114.47 334.469 1114.04 333.457 1114.04 332.258ZM1153.07 370.078C1151.83 370.987 1150.32 371.669 1148.55 372.124C1146.81 372.62 1145.01 372.868 1143.15 372.868C1140.67 372.868 1138.56 372.475 1136.83 371.69C1135.13 370.905 1133.75 369.809 1132.67 368.404C1131.6 366.957 1130.81 365.221 1130.32 363.196C1129.86 361.171 1129.64 358.939 1129.64 356.5C1129.64 351.251 1130.81 347.221 1133.17 344.41C1135.53 341.558 1138.96 340.132 1143.46 340.132C1145.74 340.132 1147.55 340.318 1148.92 340.69C1150.32 341.062 1151.58 341.537 1152.7 342.116L1150.78 348.688C1149.83 348.233 1148.88 347.882 1147.93 347.634C1147.02 347.386 1145.96 347.262 1144.76 347.262C1142.53 347.262 1140.84 348.006 1139.68 349.494C1138.52 350.941 1137.94 353.276 1137.94 356.5C1137.94 357.823 1138.09 359.042 1138.38 360.158C1138.67 361.274 1139.1 362.245 1139.68 363.072C1140.26 363.899 1141 364.56 1141.91 365.056C1142.86 365.511 1143.96 365.738 1145.2 365.738C1146.56 365.738 1147.72 365.573 1148.67 365.242C1149.62 364.87 1150.47 364.436 1151.21 363.94L1153.07 370.078ZM432.348 400.798C434.001 400.054 435.965 399.475 438.238 399.062C440.511 398.607 442.888 398.38 445.368 398.38C447.517 398.38 449.315 398.649 450.762 399.186C452.209 399.682 453.345 400.405 454.172 401.356C455.04 402.307 455.639 403.443 455.97 404.766C456.342 406.089 456.528 407.577 456.528 409.23C456.528 411.049 456.466 412.888 456.342 414.748C456.218 416.567 456.135 418.365 456.094 420.142C456.094 421.919 456.156 423.655 456.28 425.35C456.404 427.003 456.714 428.574 457.21 430.062H450.638L449.336 425.784H449.026C448.199 427.065 447.042 428.181 445.554 429.132C444.107 430.041 442.227 430.496 439.912 430.496C438.465 430.496 437.163 430.289 436.006 429.876C434.849 429.421 433.857 428.801 433.03 428.016C432.203 427.189 431.563 426.239 431.108 425.164C430.653 424.048 430.426 422.808 430.426 421.444C430.426 419.543 430.839 417.951 431.666 416.67C432.534 415.347 433.753 414.293 435.324 413.508C436.936 412.681 438.837 412.123 441.028 411.834C443.26 411.503 445.74 411.4 448.468 411.524C448.757 409.209 448.592 407.556 447.972 406.564C447.352 405.531 445.967 405.014 443.818 405.014C442.206 405.014 440.491 405.179 438.672 405.51C436.895 405.841 435.427 406.275 434.27 406.812L432.348 400.798ZM442.578 423.862C444.19 423.862 445.471 423.511 446.422 422.808C447.373 422.064 448.075 421.279 448.53 420.452V416.422C447.249 416.298 446.009 416.277 444.81 416.36C443.653 416.443 442.619 416.629 441.71 416.918C440.801 417.207 440.077 417.621 439.54 418.158C439.003 418.695 438.734 419.377 438.734 420.204C438.734 421.361 439.065 422.271 439.726 422.932C440.429 423.552 441.379 423.862 442.578 423.862ZM482.264 430V412.392C482.264 409.871 481.892 408.052 481.148 406.936C480.445 405.82 479.226 405.262 477.49 405.262C475.96 405.262 474.658 405.717 473.584 406.626C472.55 407.494 471.806 408.589 471.352 409.912V430H463.292V399H469.678L470.608 403.092H470.856C471.806 401.769 473.067 400.612 474.638 399.62C476.208 398.628 478.234 398.132 480.714 398.132C482.243 398.132 483.607 398.339 484.806 398.752C486.004 399.165 487.017 399.847 487.844 400.798C488.67 401.749 489.29 403.051 489.704 404.704C490.117 406.316 490.324 408.321 490.324 410.718V430H482.264ZM523.427 419.088C523.427 420.824 523.448 422.56 523.489 424.296C523.53 426.032 523.716 427.954 524.047 430.062H518.281L517.165 426.032H516.917C516.09 427.479 514.892 428.657 513.321 429.566C511.792 430.434 509.973 430.868 507.865 430.868C503.98 430.868 500.962 429.587 498.813 427.024C496.664 424.461 495.589 420.452 495.589 414.996C495.589 409.705 496.788 405.593 499.185 402.658C501.582 399.723 505.096 398.256 509.725 398.256C511.006 398.256 512.06 398.339 512.887 398.504C513.714 398.628 514.54 398.855 515.367 399.186V386.6H523.427V419.088ZM509.725 424.048C511.296 424.048 512.536 423.676 513.445 422.932C514.354 422.147 514.995 421.031 515.367 419.584V406.44C514.788 405.985 514.148 405.655 513.445 405.448C512.742 405.2 511.833 405.076 510.717 405.076C508.444 405.076 506.728 405.841 505.571 407.37C504.455 408.899 503.897 411.524 503.897 415.244C503.897 417.889 504.352 420.018 505.261 421.63C506.212 423.242 507.7 424.048 509.725 424.048ZM545.994 400.798C547.648 400.054 549.611 399.475 551.884 399.062C554.158 398.607 556.534 398.38 559.014 398.38C561.164 398.38 562.962 398.649 564.408 399.186C565.855 399.682 566.992 400.405 567.818 401.356C568.686 402.307 569.286 403.443 569.616 404.766C569.988 406.089 570.174 407.577 570.174 409.23C570.174 411.049 570.112 412.888 569.988 414.748C569.864 416.567 569.782 418.365 569.74 420.142C569.74 421.919 569.802 423.655 569.926 425.35C570.05 427.003 570.36 428.574 570.856 430.062H564.284L562.982 425.784H562.672C561.846 427.065 560.688 428.181 559.2 429.132C557.754 430.041 555.873 430.496 553.558 430.496C552.112 430.496 550.81 430.289 549.652 429.876C548.495 429.421 547.503 428.801 546.676 428.016C545.85 427.189 545.209 426.239 544.754 425.164C544.3 424.048 544.072 422.808 544.072 421.444C544.072 419.543 544.486 417.951 545.312 416.67C546.18 415.347 547.4 414.293 548.97 413.508C550.582 412.681 552.484 412.123 554.674 411.834C556.906 411.503 559.386 411.4 562.114 411.524C562.404 409.209 562.238 407.556 561.618 406.564C560.998 405.531 559.614 405.014 557.464 405.014C555.852 405.014 554.137 405.179 552.318 405.51C550.541 405.841 549.074 406.275 547.916 406.812L545.994 400.798ZM556.224 423.862C557.836 423.862 559.118 423.511 560.068 422.808C561.019 422.064 561.722 421.279 562.176 420.452V416.422C560.895 416.298 559.655 416.277 558.456 416.36C557.299 416.443 556.266 416.629 555.356 416.918C554.447 417.207 553.724 417.621 553.186 418.158C552.649 418.695 552.38 419.377 552.38 420.204C552.38 421.361 552.711 422.271 553.372 422.932C554.075 423.552 555.026 423.862 556.224 423.862ZM573.714 399H577.992V393.172L586.052 390.878V399H593.616V405.82H586.052V417.724C586.052 419.873 586.259 421.423 586.672 422.374C587.127 423.283 587.954 423.738 589.152 423.738C589.979 423.738 590.682 423.655 591.26 423.49C591.88 423.325 592.562 423.077 593.306 422.746L594.732 428.946C593.616 429.483 592.314 429.938 590.826 430.31C589.338 430.682 587.83 430.868 586.3 430.868C583.448 430.868 581.34 430.145 579.976 428.698C578.654 427.21 577.992 424.792 577.992 421.444V405.82H573.714V399ZM622.543 419.584C622.543 421.031 622.729 422.085 623.101 422.746C623.473 423.407 624.073 423.738 624.899 423.738C625.395 423.738 625.871 423.697 626.325 423.614C626.821 423.531 627.421 423.345 628.123 423.056L628.991 429.38C628.33 429.711 627.317 430.041 625.953 430.372C624.589 430.703 623.184 430.868 621.737 430.868C619.381 430.868 617.583 430.331 616.343 429.256C615.103 428.14 614.483 426.321 614.483 423.8V386.6H622.543V419.584ZM657.26 427.334C656.02 428.326 654.325 429.173 652.176 429.876C650.068 430.537 647.815 430.868 645.418 430.868C640.416 430.868 636.758 429.421 634.444 426.528C632.129 423.593 630.972 419.584 630.972 414.5C630.972 409.044 632.274 404.952 634.878 402.224C637.482 399.496 641.14 398.132 645.852 398.132C647.422 398.132 648.952 398.339 650.44 398.752C651.928 399.165 653.25 399.847 654.408 400.798C655.565 401.749 656.495 403.03 657.198 404.642C657.9 406.254 658.252 408.259 658.252 410.656C658.252 411.524 658.19 412.454 658.066 413.446C657.983 414.438 657.838 415.471 657.632 416.546H639.032C639.156 419.15 639.817 421.113 641.016 422.436C642.256 423.759 644.24 424.42 646.968 424.42C648.662 424.42 650.171 424.172 651.494 423.676C652.858 423.139 653.891 422.601 654.594 422.064L657.26 427.334ZM645.728 404.58C643.62 404.58 642.049 405.221 641.016 406.502C640.024 407.742 639.424 409.416 639.218 411.524H650.75C650.915 409.292 650.564 407.577 649.696 406.378C648.869 405.179 647.546 404.58 645.728 404.58ZM663.758 400.798C665.411 400.054 667.375 399.475 669.648 399.062C671.921 398.607 674.298 398.38 676.778 398.38C678.927 398.38 680.725 398.649 682.172 399.186C683.619 399.682 684.755 400.405 685.582 401.356C686.45 402.307 687.049 403.443 687.38 404.766C687.752 406.089 687.938 407.577 687.938 409.23C687.938 411.049 687.876 412.888 687.752 414.748C687.628 416.567 687.545 418.365 687.504 420.142C687.504 421.919 687.566 423.655 687.69 425.35C687.814 427.003 688.124 428.574 688.62 430.062H682.048L680.746 425.784H680.436C679.609 427.065 678.452 428.181 676.964 429.132C675.517 430.041 673.637 430.496 671.322 430.496C669.875 430.496 668.573 430.289 667.416 429.876C666.259 429.421 665.267 428.801 664.44 428.016C663.613 427.189 662.973 426.239 662.518 425.164C662.063 424.048 661.836 422.808 661.836 421.444C661.836 419.543 662.249 417.951 663.076 416.67C663.944 415.347 665.163 414.293 666.734 413.508C668.346 412.681 670.247 412.123 672.438 411.834C674.67 411.503 677.15 411.4 679.878 411.524C680.167 409.209 680.002 407.556 679.382 406.564C678.762 405.531 677.377 405.014 675.228 405.014C673.616 405.014 671.901 405.179 670.082 405.51C668.305 405.841 666.837 406.275 665.68 406.812L663.758 400.798ZM673.988 423.862C675.6 423.862 676.881 423.511 677.832 422.808C678.783 422.064 679.485 421.279 679.94 420.452V416.422C678.659 416.298 677.419 416.277 676.22 416.36C675.063 416.443 674.029 416.629 673.12 416.918C672.211 417.207 671.487 417.621 670.95 418.158C670.413 418.695 670.144 419.377 670.144 420.204C670.144 421.361 670.475 422.271 671.136 422.932C671.839 423.552 672.789 423.862 673.988 423.862ZM707.536 421.444C707.536 420.617 707.185 419.956 706.482 419.46C705.779 418.964 704.911 418.509 703.878 418.096C702.845 417.683 701.708 417.269 700.468 416.856C699.228 416.401 698.091 415.802 697.058 415.058C696.025 414.273 695.157 413.301 694.454 412.144C693.751 410.945 693.4 409.416 693.4 407.556C693.4 404.497 694.309 402.162 696.128 400.55C697.947 398.938 700.571 398.132 704.002 398.132C706.358 398.132 708.487 398.38 710.388 398.876C712.289 399.372 713.777 399.93 714.852 400.55L713.054 406.378C712.103 406.006 710.905 405.613 709.458 405.2C708.011 404.787 706.544 404.58 705.056 404.58C702.659 404.58 701.46 405.51 701.46 407.37C701.46 408.114 701.811 408.713 702.514 409.168C703.217 409.623 704.085 410.057 705.118 410.47C706.151 410.842 707.288 411.255 708.528 411.71C709.768 412.165 710.905 412.764 711.938 413.508C712.971 414.211 713.839 415.141 714.542 416.298C715.245 417.455 715.596 418.943 715.596 420.762C715.596 423.903 714.583 426.383 712.558 428.202C710.574 429.979 707.577 430.868 703.568 430.868C701.377 430.868 699.311 430.579 697.368 430C695.467 429.463 693.917 428.822 692.718 428.078L694.95 422.064C695.901 422.601 697.161 423.139 698.732 423.676C700.303 424.172 701.915 424.42 703.568 424.42C704.767 424.42 705.717 424.193 706.42 423.738C707.164 423.283 707.536 422.519 707.536 421.444ZM717.634 399H721.912V393.172L729.972 390.878V399H737.536V405.82H729.972V417.724C729.972 419.873 730.179 421.423 730.592 422.374C731.047 423.283 731.874 423.738 733.072 423.738C733.899 423.738 734.602 423.655 735.18 423.49C735.8 423.325 736.482 423.077 737.226 422.746L738.652 428.946C737.536 429.483 736.234 429.938 734.746 430.31C733.258 430.682 731.75 430.868 730.22 430.868C727.368 430.868 725.26 430.145 723.896 428.698C722.574 427.21 721.912 424.792 721.912 421.444V405.82H717.634V399ZM788.907 417.91H782.087V430H774.585V417.91H755.799V413.322L775.453 386.29H782.087V411.462H788.907V417.91ZM774.585 401.976L775.143 396.768H774.895L772.787 401.232L766.339 409.602L763.239 411.958L767.207 411.462H774.585V401.976ZM826.622 430V413.136C826.622 410.284 826.354 408.259 825.816 407.06C825.279 405.861 824.163 405.262 822.468 405.262C821.063 405.262 819.926 405.655 819.058 406.44C818.19 407.184 817.529 408.155 817.074 409.354V430H809.014V399H815.276L816.206 403.092H816.454C817.405 401.769 818.604 400.612 820.05 399.62C821.538 398.628 823.44 398.132 825.754 398.132C827.738 398.132 829.35 398.545 830.59 399.372C831.872 400.157 832.864 401.501 833.566 403.402C834.517 401.79 835.736 400.509 837.224 399.558C838.712 398.607 840.51 398.132 842.618 398.132C844.354 398.132 845.822 398.339 847.02 398.752C848.26 399.165 849.252 399.889 849.996 400.922C850.782 401.914 851.36 403.257 851.732 404.952C852.104 406.647 852.29 408.796 852.29 411.4V430H844.23V412.578C844.23 410.139 843.962 408.321 843.424 407.122C842.928 405.882 841.792 405.262 840.014 405.262C838.568 405.262 837.41 405.655 836.542 406.44C835.716 407.225 835.096 408.3 834.682 409.664V430H826.622ZM857.417 414.5C857.417 409.251 858.698 405.221 861.261 402.41C863.824 399.558 867.42 398.132 872.049 398.132C874.529 398.132 876.678 398.525 878.497 399.31C880.316 400.095 881.824 401.211 883.023 402.658C884.222 404.063 885.11 405.779 885.689 407.804C886.309 409.829 886.619 412.061 886.619 414.5C886.619 419.749 885.338 423.8 882.775 426.652C880.254 429.463 876.678 430.868 872.049 430.868C869.569 430.868 867.42 430.475 865.601 429.69C863.782 428.905 862.253 427.809 861.013 426.404C859.814 424.957 858.905 423.221 858.285 421.196C857.706 419.171 857.417 416.939 857.417 414.5ZM865.725 414.5C865.725 415.864 865.849 417.125 866.097 418.282C866.345 419.439 866.717 420.452 867.213 421.32C867.709 422.188 868.35 422.87 869.135 423.366C869.962 423.821 870.933 424.048 872.049 424.048C874.157 424.048 875.728 423.283 876.761 421.754C877.794 420.225 878.311 417.807 878.311 414.5C878.311 411.648 877.836 409.354 876.885 407.618C875.934 405.841 874.322 404.952 872.049 404.952C870.065 404.952 868.515 405.696 867.399 407.184C866.283 408.672 865.725 411.111 865.725 414.5ZM911.178 430V412.392C911.178 409.871 910.806 408.052 910.062 406.936C909.359 405.82 908.14 405.262 906.404 405.262C904.875 405.262 903.573 405.717 902.498 406.626C901.465 407.494 900.721 408.589 900.266 409.912V430H892.206V399H898.592L899.522 403.092H899.77C900.721 401.769 901.981 400.612 903.552 399.62C905.123 398.628 907.148 398.132 909.628 398.132C911.157 398.132 912.521 398.339 913.72 398.752C914.919 399.165 915.931 399.847 916.758 400.798C917.585 401.749 918.205 403.051 918.618 404.704C919.031 406.316 919.238 408.321 919.238 410.718V430H911.178ZM922.767 399H927.045V393.172L935.105 390.878V399H942.669V405.82H935.105V417.724C935.105 419.873 935.312 421.423 935.725 422.374C936.18 423.283 937.006 423.738 938.205 423.738C939.032 423.738 939.734 423.655 940.313 423.49C940.933 423.325 941.615 423.077 942.359 422.746L943.785 428.946C942.669 429.483 941.367 429.938 939.879 430.31C938.391 430.682 936.882 430.868 935.353 430.868C932.501 430.868 930.393 430.145 929.029 428.698C927.706 427.21 927.045 424.792 927.045 421.444V405.82H922.767V399ZM966.578 430V412.392C966.578 409.871 966.227 408.052 965.524 406.936C964.822 405.82 963.54 405.262 961.68 405.262C960.316 405.262 959.056 405.737 957.898 406.688C956.782 407.597 956.038 408.775 955.666 410.222V430H947.606V386.6H955.666V402.472H955.914C956.906 401.149 958.126 400.095 959.572 399.31C961.019 398.525 962.858 398.132 965.09 398.132C966.661 398.132 968.046 398.339 969.244 398.752C970.443 399.165 971.435 399.847 972.22 400.798C973.047 401.749 973.646 403.051 974.018 404.704C974.432 406.316 974.638 408.321 974.638 410.718V430H966.578ZM994.225 421.444C994.225 420.617 993.874 419.956 993.171 419.46C992.469 418.964 991.601 418.509 990.567 418.096C989.534 417.683 988.397 417.269 987.157 416.856C985.917 416.401 984.781 415.802 983.747 415.058C982.714 414.273 981.846 413.301 981.143 412.144C980.441 410.945 980.089 409.416 980.089 407.556C980.089 404.497 980.999 402.162 982.817 400.55C984.636 398.938 987.261 398.132 990.691 398.132C993.047 398.132 995.176 398.38 997.077 398.876C998.979 399.372 1000.47 399.93 1001.54 400.55L999.743 406.378C998.793 406.006 997.594 405.613 996.147 405.2C994.701 404.787 993.233 404.58 991.745 404.58C989.348 404.58 988.149 405.51 988.149 407.37C988.149 408.114 988.501 408.713 989.203 409.168C989.906 409.623 990.774 410.057 991.807 410.47C992.841 410.842 993.977 411.255 995.217 411.71C996.457 412.165 997.594 412.764 998.627 413.508C999.661 414.211 1000.53 415.141 1001.23 416.298C1001.93 417.455 1002.29 418.943 1002.29 420.762C1002.29 423.903 1001.27 426.383 999.247 428.202C997.263 429.979 994.267 430.868 990.257 430.868C988.067 430.868 986 430.579 984.057 430C982.156 429.463 980.606 428.822 979.407 428.078L981.639 422.064C982.59 422.601 983.851 423.139 985.421 423.676C986.992 424.172 988.604 424.42 990.257 424.42C991.456 424.42 992.407 424.193 993.109 423.738C993.853 423.283 994.225 422.519 994.225 421.444ZM1021.74 414.5C1021.74 409.251 1023.02 405.221 1025.59 402.41C1028.15 399.558 1031.74 398.132 1036.37 398.132C1038.85 398.132 1041 398.525 1042.82 399.31C1044.64 400.095 1046.15 401.211 1047.35 402.658C1048.55 404.063 1049.43 405.779 1050.01 407.804C1050.63 409.829 1050.94 412.061 1050.94 414.5C1050.94 419.749 1049.66 423.8 1047.1 426.652C1044.58 429.463 1041 430.868 1036.37 430.868C1033.89 430.868 1031.74 430.475 1029.93 429.69C1028.11 428.905 1026.58 427.809 1025.34 426.404C1024.14 424.957 1023.23 423.221 1022.61 421.196C1022.03 419.171 1021.74 416.939 1021.74 414.5ZM1030.05 414.5C1030.05 415.864 1030.17 417.125 1030.42 418.282C1030.67 419.439 1031.04 420.452 1031.54 421.32C1032.03 422.188 1032.67 422.87 1033.46 423.366C1034.29 423.821 1035.26 424.048 1036.37 424.048C1038.48 424.048 1040.05 423.283 1041.09 421.754C1042.12 420.225 1042.64 417.807 1042.64 414.5C1042.64 411.648 1042.16 409.354 1041.21 407.618C1040.26 405.841 1038.65 404.952 1036.37 404.952C1034.39 404.952 1032.84 405.696 1031.72 407.184C1030.61 408.672 1030.05 411.111 1030.05 414.5ZM1064.84 419.584C1064.84 421.031 1065.02 422.085 1065.4 422.746C1065.77 423.407 1066.37 423.738 1067.19 423.738C1067.69 423.738 1068.17 423.697 1068.62 423.614C1069.12 423.531 1069.72 423.345 1070.42 423.056L1071.29 429.38C1070.62 429.711 1069.61 430.041 1068.25 430.372C1066.88 430.703 1065.48 430.868 1064.03 430.868C1061.68 430.868 1059.88 430.331 1058.64 429.256C1057.4 428.14 1056.78 426.321 1056.78 423.8V386.6H1064.84V419.584ZM1101.1 419.088C1101.1 420.824 1101.13 422.56 1101.17 424.296C1101.21 426.032 1101.39 427.954 1101.72 430.062H1095.96L1094.84 426.032H1094.59C1093.77 427.479 1092.57 428.657 1091 429.566C1089.47 430.434 1087.65 430.868 1085.54 430.868C1081.66 430.868 1078.64 429.587 1076.49 427.024C1074.34 424.461 1073.27 420.452 1073.27 414.996C1073.27 409.705 1074.47 405.593 1076.86 402.658C1079.26 399.723 1082.77 398.256 1087.4 398.256C1088.68 398.256 1089.74 398.339 1090.56 398.504C1091.39 398.628 1092.22 398.855 1093.04 399.186V386.6H1101.1V419.088ZM1087.4 424.048C1088.97 424.048 1090.21 423.676 1091.12 422.932C1092.03 422.147 1092.67 421.031 1093.04 419.584V406.44C1092.47 405.985 1091.83 405.655 1091.12 405.448C1090.42 405.2 1089.51 405.076 1088.39 405.076C1086.12 405.076 1084.41 405.841 1083.25 407.37C1082.13 408.899 1081.57 411.524 1081.57 415.244C1081.57 417.889 1082.03 420.018 1082.94 421.63C1083.89 423.242 1085.38 424.048 1087.4 424.048ZM1132.98 427.334C1131.74 428.326 1130.04 429.173 1127.89 429.876C1125.78 430.537 1123.53 430.868 1121.13 430.868C1116.13 430.868 1112.48 429.421 1110.16 426.528C1107.85 423.593 1106.69 419.584 1106.69 414.5C1106.69 409.044 1107.99 404.952 1110.59 402.224C1113.2 399.496 1116.86 398.132 1121.57 398.132C1123.14 398.132 1124.67 398.339 1126.16 398.752C1127.64 399.165 1128.97 399.847 1130.12 400.798C1131.28 401.749 1132.21 403.03 1132.91 404.642C1133.62 406.254 1133.97 408.259 1133.97 410.656C1133.97 411.524 1133.91 412.454 1133.78 413.446C1133.7 414.438 1133.56 415.471 1133.35 416.546H1114.75C1114.87 419.15 1115.53 421.113 1116.73 422.436C1117.97 423.759 1119.96 424.42 1122.68 424.42C1124.38 424.42 1125.89 424.172 1127.21 423.676C1128.57 423.139 1129.61 422.601 1130.31 422.064L1132.98 427.334ZM1121.44 404.58C1119.34 404.58 1117.77 405.221 1116.73 406.502C1115.74 407.742 1115.14 409.416 1114.93 411.524H1126.47C1126.63 409.292 1126.28 407.577 1125.41 406.378C1124.59 405.179 1123.26 404.58 1121.44 404.58ZM1156.77 406.564C1155.49 406.109 1154.33 405.882 1153.3 405.882C1151.85 405.882 1150.63 406.275 1149.64 407.06C1148.69 407.804 1148.05 408.775 1147.72 409.974V430H1139.66V399H1145.92L1146.85 403.092H1147.1C1147.8 401.563 1148.75 400.385 1149.95 399.558C1151.15 398.731 1152.56 398.318 1154.17 398.318C1155.24 398.318 1156.46 398.545 1157.83 399L1156.77 406.564Z" fill="black"/>
<path d="M351.238 363H88.244" stroke="#CFB4B4" stroke-width="12" stroke-dasharray="14 14"/>
<path d="M1514.06 364H1251.07" stroke="#7A7A7A" stroke-width="12" stroke-dasharray="14 14"/>
<rect x="1216.82" y="341" width="68.488" height="46" fill="#7A7A7A"/>
<rect x="1479.82" y="341" width="68.488" height="46" fill="#7A7A7A"/>
<circle cx="88.5" cy="359.5" r="23.5" fill="#CFB4B4"/>
<circle cx="350.5" cy="359.5" r="23.5" fill="#CFB4B4"/>
</g>
<defs>
<clipPath id="clip0_404_2">
<rect width="1577" height="454" fill="white"/>
</clipPath>
</defs>
</svg>
