<svg width="1336" height="514" viewBox="0 0 1336 514" fill="none" xmlns="http://www.w3.org/2000/svg">
<g clip-path="url(#clip0_328_2)">
<mask id="mask0_328_2" style="mask-type:luminance" maskUnits="userSpaceOnUse" x="0" y="0" width="1336" height="514">
<path d="M1336 0H0V514H1336V0Z" fill="white"/>
</mask>
<g mask="url(#mask0_328_2)">
<path d="M148.926 62.457C155.19 62.457 159.761 63.8073 162.639 66.5078C165.516 69.1862 166.955 72.8828 166.955 77.5977C166.955 79.7227 166.634 81.7591 165.992 83.707C165.35 85.6328 164.299 87.3483 162.838 88.8535C161.399 90.3587 159.473 91.554 157.061 92.4395C154.648 93.3027 151.671 93.7344 148.129 93.7344H143.713V111H133.42V62.457H148.926ZM148.395 70.8906H143.713V85.3008H147.1C149.025 85.3008 150.697 85.0462 152.113 84.5371C153.53 84.028 154.626 83.2311 155.4 82.1465C156.175 81.0618 156.562 79.6673 156.562 77.9629C156.562 75.5723 155.898 73.8014 154.57 72.6504C153.242 71.4772 151.184 70.8906 148.395 70.8906ZM190.629 73.1816C194.06 73.1816 197.015 73.8457 199.494 75.1738C201.973 76.4798 203.888 78.3835 205.238 80.8848C206.589 83.3861 207.264 86.4408 207.264 90.0488V94.9629H183.324C183.435 97.8184 184.287 100.065 185.881 101.703C187.497 103.319 189.732 104.127 192.588 104.127C194.956 104.127 197.126 103.883 199.096 103.396C201.066 102.91 203.091 102.179 205.172 101.205V109.041C203.335 109.949 201.409 110.613 199.395 111.033C197.402 111.454 194.979 111.664 192.123 111.664C188.404 111.664 185.106 110.978 182.229 109.605C179.373 108.233 177.126 106.141 175.488 103.33C173.872 100.519 173.064 96.9772 173.064 92.7051C173.064 88.3665 173.795 84.7585 175.256 81.8809C176.739 78.9811 178.798 76.8118 181.432 75.373C184.066 73.9121 187.132 73.1816 190.629 73.1816ZM190.695 80.3867C188.725 80.3867 187.087 81.0176 185.781 82.2793C184.497 83.541 183.756 85.5221 183.557 88.2227H197.768C197.745 86.7174 197.469 85.3783 196.938 84.2051C196.428 83.0319 195.654 82.1022 194.613 81.416C193.595 80.7298 192.289 80.3867 190.695 80.3867ZM236.217 73.1816C236.726 73.1816 237.312 73.2148 237.977 73.2812C238.663 73.3255 239.216 73.3919 239.637 73.4805L238.873 82.9766C238.541 82.8659 238.065 82.7884 237.445 82.7441C236.848 82.6777 236.327 82.6445 235.885 82.6445C234.579 82.6445 233.306 82.8105 232.066 83.1426C230.849 83.4746 229.753 84.0169 228.779 84.7695C227.805 85.5 227.031 86.474 226.455 87.6914C225.902 88.8867 225.625 90.3587 225.625 92.1074V111H215.498V73.8789H223.168L224.662 80.1211H225.16C225.891 78.8594 226.798 77.7083 227.883 76.668C228.99 75.6055 230.24 74.7643 231.635 74.1445C233.051 73.5026 234.579 73.1816 236.217 73.1816ZM261.451 111.664C257.777 111.664 254.645 111 252.055 109.672C249.465 108.322 247.495 106.241 246.145 103.43C244.794 100.618 244.119 97.0215 244.119 92.6387C244.119 88.1009 244.883 84.4043 246.41 81.5488C247.96 78.6712 250.096 76.5573 252.818 75.207C255.563 73.8568 258.74 73.1816 262.348 73.1816C264.915 73.1816 267.129 73.4362 268.988 73.9453C270.87 74.4323 272.508 75.0189 273.902 75.7051L270.914 83.541C269.32 82.8991 267.837 82.3789 266.465 81.9805C265.092 81.5599 263.72 81.3496 262.348 81.3496C260.577 81.3496 259.105 81.7702 257.932 82.6113C256.758 83.4303 255.884 84.6699 255.309 86.3301C254.733 87.9902 254.445 90.071 254.445 92.5723C254.445 95.0293 254.755 97.0658 255.375 98.6816C255.995 100.298 256.891 101.504 258.064 102.301C259.238 103.076 260.665 103.463 262.348 103.463C264.451 103.463 266.321 103.186 267.959 102.633C269.597 102.057 271.191 101.26 272.74 100.242V108.908C271.191 109.882 269.564 110.579 267.859 111C266.177 111.443 264.041 111.664 261.451 111.664ZM296.68 73.1816C300.111 73.1816 303.066 73.8457 305.545 75.1738C308.024 76.4798 309.939 78.3835 311.289 80.8848C312.639 83.3861 313.314 86.4408 313.314 90.0488V94.9629H289.375C289.486 97.8184 290.338 100.065 291.932 101.703C293.548 103.319 295.783 104.127 298.639 104.127C301.007 104.127 303.176 103.883 305.146 103.396C307.117 102.91 309.142 102.179 311.223 101.205V109.041C309.385 109.949 307.46 110.613 305.445 111.033C303.453 111.454 301.029 111.664 298.174 111.664C294.455 111.664 291.157 110.978 288.279 109.605C285.424 108.233 283.177 106.141 281.539 103.33C279.923 100.519 279.115 96.9772 279.115 92.7051C279.115 88.3665 279.846 84.7585 281.307 81.8809C282.79 78.9811 284.848 76.8118 287.482 75.373C290.117 73.9121 293.182 73.1816 296.68 73.1816ZM296.746 80.3867C294.776 80.3867 293.138 81.0176 291.832 82.2793C290.548 83.541 289.807 85.5221 289.607 88.2227H303.818C303.796 86.7174 303.52 85.3783 302.988 84.2051C302.479 83.0319 301.704 82.1022 300.664 81.416C299.646 80.7298 298.34 80.3867 296.746 80.3867ZM342.633 73.1816C346.595 73.1816 349.783 74.2663 352.195 76.4355C354.608 78.5827 355.814 82.0358 355.814 86.7949V111H345.688V89.3184C345.688 86.6621 345.201 84.6589 344.227 83.3086C343.275 81.9583 341.77 81.2832 339.711 81.2832C336.612 81.2832 334.498 82.3346 333.369 84.4375C332.24 86.5404 331.676 89.5729 331.676 93.5352V111H321.549V73.8789H329.285L330.646 78.627H331.211C332.008 77.3431 332.993 76.3027 334.166 75.5059C335.361 74.709 336.678 74.1224 338.117 73.7461C339.578 73.3698 341.083 73.1816 342.633 73.1816ZM381.879 103.596C382.986 103.596 384.059 103.485 385.1 103.264C386.162 103.042 387.214 102.766 388.254 102.434V109.971C387.169 110.458 385.819 110.856 384.203 111.166C382.609 111.498 380.861 111.664 378.957 111.664C376.743 111.664 374.751 111.31 372.98 110.602C371.232 109.871 369.848 108.62 368.83 106.85C367.834 105.057 367.336 102.566 367.336 99.3789V81.4824H362.488V77.1992L368.066 73.8125L370.988 65.9766H377.463V73.8789H387.855V81.4824H377.463V99.3789C377.463 100.796 377.861 101.858 378.658 102.566C379.477 103.253 380.551 103.596 381.879 103.596ZM405.918 73.8789V111H395.791V73.8789H405.918ZM400.871 59.3359C402.376 59.3359 403.671 59.6901 404.756 60.3984C405.84 61.0846 406.383 62.3796 406.383 64.2832C406.383 66.1647 405.84 67.4707 404.756 68.2012C403.671 68.9095 402.376 69.2637 400.871 69.2637C399.344 69.2637 398.038 68.9095 396.953 68.2012C395.891 67.4707 395.359 66.1647 395.359 64.2832C395.359 62.3796 395.891 61.0846 396.953 60.3984C398.038 59.6901 399.344 59.3359 400.871 59.3359ZM426.703 111H416.576V59.3359H426.703V111ZM452.668 73.1816C456.099 73.1816 459.054 73.8457 461.533 75.1738C464.012 76.4798 465.927 78.3835 467.277 80.8848C468.628 83.3861 469.303 86.4408 469.303 90.0488V94.9629H445.363C445.474 97.8184 446.326 100.065 447.92 101.703C449.536 103.319 451.771 104.127 454.627 104.127C456.995 104.127 459.165 103.883 461.135 103.396C463.105 102.91 465.13 102.179 467.211 101.205V109.041C465.374 109.949 463.448 110.613 461.434 111.033C459.441 111.454 457.018 111.664 454.162 111.664C450.443 111.664 447.145 110.978 444.268 109.605C441.412 108.233 439.165 106.141 437.527 103.33C435.911 100.519 435.104 96.9772 435.104 92.7051C435.104 88.3665 435.834 84.7585 437.295 81.8809C438.778 78.9811 440.837 76.8118 443.471 75.373C446.105 73.9121 449.171 73.1816 452.668 73.1816ZM452.734 80.3867C450.764 80.3867 449.126 81.0176 447.82 82.2793C446.536 83.541 445.795 85.5221 445.596 88.2227H459.807C459.785 86.7174 459.508 85.3783 458.977 84.2051C458.467 83.0319 457.693 82.1022 456.652 81.416C455.634 80.7298 454.328 80.3867 452.734 80.3867ZM503.436 99.9766C503.436 102.5 502.838 104.636 501.643 106.385C500.469 108.111 498.71 109.428 496.363 110.336C494.017 111.221 491.095 111.664 487.598 111.664C485.008 111.664 482.783 111.498 480.924 111.166C479.087 110.834 477.227 110.281 475.346 109.506V101.139C477.36 102.046 479.518 102.799 481.82 103.396C484.145 103.972 486.181 104.26 487.93 104.26C489.9 104.26 491.305 103.972 492.146 103.396C493.01 102.799 493.441 102.024 493.441 101.072C493.441 100.452 493.264 99.8991 492.91 99.4121C492.578 98.903 491.848 98.3385 490.719 97.7188C489.59 97.0768 487.819 96.2467 485.406 95.2285C483.082 94.2546 481.167 93.2695 479.662 92.2734C478.179 91.2773 477.072 90.1042 476.342 88.7539C475.633 87.3815 475.279 85.6439 475.279 83.541C475.279 80.11 476.607 77.5312 479.264 75.8047C481.942 74.056 485.517 73.1816 489.988 73.1816C492.29 73.1816 494.482 73.4141 496.562 73.8789C498.665 74.3438 500.824 75.0853 503.037 76.1035L499.982 83.4082C498.145 82.6113 496.408 81.9583 494.77 81.4492C493.154 80.9401 491.505 80.6855 489.822 80.6855C488.339 80.6855 487.221 80.8848 486.469 81.2832C485.716 81.6816 485.34 82.2904 485.34 83.1094C485.34 83.707 485.528 84.2383 485.904 84.7031C486.303 85.168 487.055 85.6882 488.162 86.2637C489.291 86.8171 490.94 87.5365 493.109 88.4219C495.212 89.2852 497.038 90.1927 498.588 91.1445C500.137 92.0742 501.333 93.2363 502.174 94.6309C503.015 96.0033 503.436 97.7852 503.436 99.9766ZM562.736 92.373C562.736 95.472 562.316 98.2168 561.475 100.607C560.656 102.998 559.449 105.023 557.855 106.684C556.284 108.322 554.38 109.561 552.145 110.402C549.931 111.243 547.43 111.664 544.641 111.664C542.029 111.664 539.627 111.243 537.436 110.402C535.266 109.561 533.374 108.322 531.758 106.684C530.164 105.023 528.924 102.998 528.039 100.607C527.176 98.2168 526.744 95.472 526.744 92.373C526.744 88.2559 527.475 84.7695 528.936 81.9141C530.396 79.0586 532.477 76.8893 535.178 75.4062C537.878 73.9232 541.099 73.1816 544.84 73.1816C548.315 73.1816 551.392 73.9232 554.07 75.4062C556.771 76.8893 558.885 79.0586 560.412 81.9141C561.962 84.7695 562.736 88.2559 562.736 92.373ZM537.07 92.373C537.07 94.8079 537.336 96.8555 537.867 98.5156C538.398 100.176 539.229 101.426 540.357 102.268C541.486 103.109 542.958 103.529 544.773 103.529C546.566 103.529 548.016 103.109 549.123 102.268C550.252 101.426 551.071 100.176 551.58 98.5156C552.111 96.8555 552.377 94.8079 552.377 92.373C552.377 89.916 552.111 87.8796 551.58 86.2637C551.071 84.6257 550.252 83.3971 549.123 82.5781C547.994 81.7591 546.522 81.3496 544.707 81.3496C542.029 81.3496 540.081 82.2682 538.863 84.1055C537.668 85.9427 537.07 88.6986 537.07 92.373ZM591.623 81.4824H582.857V111H572.73V81.4824H567.152V76.6016L572.73 73.8789V71.1562C572.73 67.9909 573.262 65.5339 574.324 63.7852C575.409 62.0143 576.925 60.7747 578.873 60.0664C580.843 59.3359 583.167 58.9707 585.846 58.9707C587.816 58.9707 589.609 59.1367 591.225 59.4688C592.84 59.7786 594.158 60.1328 595.176 60.5312L592.586 67.9688C591.811 67.7253 590.97 67.5039 590.062 67.3047C589.155 67.1055 588.115 67.0059 586.941 67.0059C585.525 67.0059 584.484 67.4375 583.82 68.3008C583.178 69.1419 582.857 70.2266 582.857 71.5547V73.8789H591.623V81.4824ZM631.434 62.457C637.698 62.457 642.269 63.8073 645.146 66.5078C648.024 69.1862 649.463 72.8828 649.463 77.5977C649.463 79.7227 649.142 81.7591 648.5 83.707C647.858 85.6328 646.807 87.3483 645.346 88.8535C643.907 90.3587 641.981 91.554 639.568 92.4395C637.156 93.3027 634.178 93.7344 630.637 93.7344H626.221V111H615.928V62.457H631.434ZM630.902 70.8906H626.221V85.3008H629.607C631.533 85.3008 633.204 85.0462 634.621 84.5371C636.038 84.028 637.133 83.2311 637.908 82.1465C638.683 81.0618 639.07 79.6673 639.07 77.9629C639.07 75.5723 638.406 73.8014 637.078 72.6504C635.75 71.4772 633.691 70.8906 630.902 70.8906ZM673.137 73.1816C676.568 73.1816 679.523 73.8457 682.002 75.1738C684.481 76.4798 686.396 78.3835 687.746 80.8848C689.096 83.3861 689.771 86.4408 689.771 90.0488V94.9629H665.832C665.943 97.8184 666.795 100.065 668.389 101.703C670.005 103.319 672.24 104.127 675.096 104.127C677.464 104.127 679.633 103.883 681.604 103.396C683.574 102.91 685.599 102.179 687.68 101.205V109.041C685.842 109.949 683.917 110.613 681.902 111.033C679.91 111.454 677.486 111.664 674.631 111.664C670.912 111.664 667.614 110.978 664.736 109.605C661.881 108.233 659.634 106.141 657.996 103.33C656.38 100.519 655.572 96.9772 655.572 92.7051C655.572 88.3665 656.303 84.7585 657.764 81.8809C659.247 78.9811 661.305 76.8118 663.939 75.373C666.574 73.9121 669.639 73.1816 673.137 73.1816ZM673.203 80.3867C671.233 80.3867 669.595 81.0176 668.289 82.2793C667.005 83.541 666.264 85.5221 666.064 88.2227H680.275C680.253 86.7174 679.977 85.3783 679.445 84.2051C678.936 83.0319 678.161 82.1022 677.121 81.416C676.103 80.7298 674.797 80.3867 673.203 80.3867ZM718.725 73.1816C719.234 73.1816 719.82 73.2148 720.484 73.2812C721.171 73.3255 721.724 73.3919 722.145 73.4805L721.381 82.9766C721.049 82.8659 720.573 82.7884 719.953 82.7441C719.355 82.6777 718.835 82.6445 718.393 82.6445C717.087 82.6445 715.814 82.8105 714.574 83.1426C713.357 83.4746 712.261 84.0169 711.287 84.7695C710.313 85.5 709.538 86.474 708.963 87.6914C708.41 88.8867 708.133 90.3587 708.133 92.1074V111H698.006V73.8789H705.676L707.17 80.1211H707.668C708.398 78.8594 709.306 77.7083 710.391 76.668C711.497 75.6055 712.748 74.7643 714.143 74.1445C715.559 73.5026 717.087 73.1816 718.725 73.1816ZM749.404 81.4824H740.639V111H730.512V81.4824H724.934V76.6016L730.512 73.8789V71.1562C730.512 67.9909 731.043 65.5339 732.105 63.7852C733.19 62.0143 734.706 60.7747 736.654 60.0664C738.624 59.3359 740.949 58.9707 743.627 58.9707C745.597 58.9707 747.39 59.1367 749.006 59.4688C750.622 59.7786 751.939 60.1328 752.957 60.5312L750.367 67.9688C749.592 67.7253 748.751 67.5039 747.844 67.3047C746.936 67.1055 745.896 67.0059 744.723 67.0059C743.306 67.0059 742.266 67.4375 741.602 68.3008C740.96 69.1419 740.639 70.2266 740.639 71.5547V73.8789H749.404V81.4824ZM788.982 92.373C788.982 95.472 788.562 98.2168 787.721 100.607C786.902 102.998 785.695 105.023 784.102 106.684C782.53 108.322 780.626 109.561 778.391 110.402C776.177 111.243 773.676 111.664 770.887 111.664C768.275 111.664 765.873 111.243 763.682 110.402C761.512 109.561 759.62 108.322 758.004 106.684C756.41 105.023 755.171 102.998 754.285 100.607C753.422 98.2168 752.99 95.472 752.99 92.373C752.99 88.2559 753.721 84.7695 755.182 81.9141C756.643 79.0586 758.723 76.8893 761.424 75.4062C764.124 73.9232 767.345 73.1816 771.086 73.1816C774.561 73.1816 777.638 73.9232 780.316 75.4062C783.017 76.8893 785.131 79.0586 786.658 81.9141C788.208 84.7695 788.982 88.2559 788.982 92.373ZM763.316 92.373C763.316 94.8079 763.582 96.8555 764.113 98.5156C764.645 100.176 765.475 101.426 766.604 102.268C767.732 103.109 769.204 103.529 771.02 103.529C772.812 103.529 774.262 103.109 775.369 102.268C776.498 101.426 777.317 100.176 777.826 98.5156C778.357 96.8555 778.623 94.8079 778.623 92.373C778.623 89.916 778.357 87.8796 777.826 86.2637C777.317 84.6257 776.498 83.3971 775.369 82.5781C774.24 81.7591 772.768 81.3496 770.953 81.3496C768.275 81.3496 766.327 82.2682 765.109 84.1055C763.914 85.9427 763.316 88.6986 763.316 92.373ZM818.068 73.1816C818.577 73.1816 819.164 73.2148 819.828 73.2812C820.514 73.3255 821.068 73.3919 821.488 73.4805L820.725 82.9766C820.393 82.8659 819.917 82.7884 819.297 82.7441C818.699 82.6777 818.179 82.6445 817.736 82.6445C816.43 82.6445 815.158 82.8105 813.918 83.1426C812.701 83.4746 811.605 84.0169 810.631 84.7695C809.657 85.5 808.882 86.474 808.307 87.6914C807.753 88.8867 807.477 90.3587 807.477 92.1074V111H797.35V73.8789H805.02L806.514 80.1211H807.012C807.742 78.8594 808.65 77.7083 809.734 76.668C810.841 75.6055 812.092 74.7643 813.486 74.1445C814.903 73.5026 816.43 73.1816 818.068 73.1816ZM871.824 73.1816C876.03 73.1816 879.206 74.2663 881.354 76.4355C883.523 78.5827 884.607 82.0358 884.607 86.7949V111H874.447V89.3184C874.447 86.6621 873.993 84.6589 873.086 83.3086C872.178 81.9583 870.773 81.2832 868.869 81.2832C866.191 81.2832 864.287 82.2461 863.158 84.1719C862.029 86.0755 861.465 88.8092 861.465 92.373V111H851.338V89.3184C851.338 87.5475 851.139 86.0645 850.74 84.8691C850.342 83.6738 849.733 82.7773 848.914 82.1797C848.095 81.582 847.044 81.2832 845.76 81.2832C843.878 81.2832 842.395 81.7591 841.311 82.7109C840.248 83.6406 839.484 85.0241 839.02 86.8613C838.577 88.6764 838.355 90.901 838.355 93.5352V111H828.229V73.8789H835.965L837.326 78.627H837.891C838.643 77.3431 839.584 76.3027 840.713 75.5059C841.864 74.709 843.126 74.1224 844.498 73.7461C845.87 73.3698 847.265 73.1816 848.682 73.1816C851.404 73.1816 853.706 73.6243 855.588 74.5098C857.492 75.3952 858.952 76.7676 859.971 78.627H860.867C861.974 76.7233 863.535 75.3398 865.549 74.4766C867.585 73.6133 869.677 73.1816 871.824 73.1816ZM910.24 73.1152C915.221 73.1152 919.039 74.1999 921.695 76.3691C924.352 78.5384 925.68 81.8366 925.68 86.2637V111H918.607L916.648 105.953H916.383C915.32 107.281 914.236 108.366 913.129 109.207C912.022 110.048 910.749 110.668 909.311 111.066C907.872 111.465 906.123 111.664 904.064 111.664C901.873 111.664 899.903 111.243 898.154 110.402C896.428 109.561 895.066 108.277 894.07 106.551C893.074 104.802 892.576 102.589 892.576 99.9102C892.576 95.9701 893.96 93.0703 896.727 91.2109C899.493 89.3294 903.644 88.2891 909.178 88.0898L915.619 87.8906V86.2637C915.619 84.3158 915.11 82.888 914.092 81.9805C913.074 81.0729 911.657 80.6191 909.842 80.6191C908.049 80.6191 906.289 80.8737 904.562 81.3828C902.836 81.8919 901.109 82.5339 899.383 83.3086L896.029 76.4688C897.999 75.4284 900.202 74.6094 902.637 74.0117C905.094 73.4141 907.628 73.1152 910.24 73.1152ZM915.619 93.8008L911.701 93.9336C908.425 94.0221 906.145 94.6087 904.861 95.6934C903.6 96.778 902.969 98.2057 902.969 99.9766C902.969 101.526 903.423 102.633 904.33 103.297C905.238 103.939 906.422 104.26 907.883 104.26C910.052 104.26 911.878 103.618 913.361 102.334C914.867 101.05 915.619 99.224 915.619 96.8555V93.8008ZM957.223 73.1816C961.185 73.1816 964.372 74.2663 966.785 76.4355C969.198 78.5827 970.404 82.0358 970.404 86.7949V111H960.277V89.3184C960.277 86.6621 959.79 84.6589 958.816 83.3086C957.865 81.9583 956.359 81.2832 954.301 81.2832C951.202 81.2832 949.088 82.3346 947.959 84.4375C946.83 86.5404 946.266 89.5729 946.266 93.5352V111H936.139V73.8789H943.875L945.236 78.627H945.801C946.598 77.3431 947.583 76.3027 948.756 75.5059C949.951 74.709 951.268 74.1224 952.707 73.7461C954.168 73.3698 955.673 73.1816 957.223 73.1816ZM995.904 111.664C992.23 111.664 989.098 111 986.508 109.672C983.918 108.322 981.948 106.241 980.598 103.43C979.247 100.618 978.572 97.0215 978.572 92.6387C978.572 88.1009 979.336 84.4043 980.863 81.5488C982.413 78.6712 984.549 76.5573 987.271 75.207C990.016 73.8568 993.193 73.1816 996.801 73.1816C999.368 73.1816 1001.58 73.4362 1003.44 73.9453C1005.32 74.4323 1006.96 75.0189 1008.36 75.7051L1005.37 83.541C1003.77 82.8991 1002.29 82.3789 1000.92 81.9805C999.546 81.5599 998.173 81.3496 996.801 81.3496C995.03 81.3496 993.558 81.7702 992.385 82.6113C991.212 83.4303 990.337 84.6699 989.762 86.3301C989.186 87.9902 988.898 90.071 988.898 92.5723C988.898 95.0293 989.208 97.0658 989.828 98.6816C990.448 100.298 991.344 101.504 992.518 102.301C993.691 103.076 995.118 103.463 996.801 103.463C998.904 103.463 1000.77 103.186 1002.41 102.633C1004.05 102.057 1005.64 101.26 1007.19 100.242V108.908C1005.64 109.882 1004.02 110.579 1002.31 111C1000.63 111.443 998.494 111.664 995.904 111.664ZM1031.13 73.1816C1034.56 73.1816 1037.52 73.8457 1040 75.1738C1042.48 76.4798 1044.39 78.3835 1045.74 80.8848C1047.09 83.3861 1047.77 86.4408 1047.77 90.0488V94.9629H1023.83C1023.94 97.8184 1024.79 100.065 1026.38 101.703C1028 103.319 1030.24 104.127 1033.09 104.127C1035.46 104.127 1037.63 103.883 1039.6 103.396C1041.57 102.91 1043.6 102.179 1045.68 101.205V109.041C1043.84 109.949 1041.91 110.613 1039.9 111.033C1037.91 111.454 1035.48 111.664 1032.63 111.664C1028.91 111.664 1025.61 110.978 1022.73 109.605C1019.88 108.233 1017.63 106.141 1015.99 103.33C1014.38 100.519 1013.57 96.9772 1013.57 92.7051C1013.57 88.3665 1014.3 84.7585 1015.76 81.8809C1017.24 78.9811 1019.3 76.8118 1021.94 75.373C1024.57 73.9121 1027.64 73.1816 1031.13 73.1816ZM1031.2 80.3867C1029.23 80.3867 1027.59 81.0176 1026.29 82.2793C1025 83.541 1024.26 85.5221 1024.06 88.2227H1038.27C1038.25 86.7174 1037.97 85.3783 1037.44 84.2051C1036.93 83.0319 1036.16 82.1022 1035.12 81.416C1034.1 80.7298 1032.79 80.3867 1031.2 80.3867Z" fill="black"/>
<path d="M11.2354 179.9C13.7139 179.9 15.8936 180.349 17.7744 181.245C19.6729 182.124 21.1494 183.425 22.2041 185.147C23.2588 186.853 23.7861 188.944 23.7861 191.423C23.7861 194.13 23.2148 196.468 22.0723 198.437C20.9297 200.388 19.251 201.891 17.0361 202.945C14.8213 204 12.123 204.527 8.94141 204.527C6.91992 204.527 5.03027 204.352 3.27246 204C1.53223 203.648 0.0292988 203.121 -1.23633 202.418V196.828C0.082033 197.566 1.66406 198.173 3.50977 198.647C5.35547 199.104 7.12207 199.333 8.80957 199.333C10.6025 199.333 12.1406 199.069 13.4238 198.542C14.707 198.015 15.6914 197.206 16.377 196.116C17.0801 195.026 17.4316 193.646 17.4316 191.977C17.4316 189.762 16.7197 188.057 15.2959 186.861C13.8896 185.648 11.6836 185.042 8.67773 185.042C7.62305 185.042 6.49805 185.139 5.30273 185.332C4.125 185.508 3.14062 185.701 2.34961 185.912L-0.366209 184.304L1.08398 165.451H21.123V170.909H6.54199L5.69824 180.507C6.33105 180.366 7.08691 180.234 7.96582 180.111C8.84473 179.971 9.93457 179.9 11.2354 179.9ZM41.9004 199.518C42.709 199.518 43.5088 199.447 44.2998 199.307C45.0908 199.148 45.8115 198.964 46.4619 198.753V203.446C45.7764 203.745 44.8887 204 43.7988 204.211C42.709 204.422 41.5752 204.527 40.3975 204.527C38.7451 204.527 37.2598 204.255 35.9414 203.71C34.623 203.147 33.5771 202.189 32.8037 200.836C32.0303 199.482 31.6436 197.61 31.6436 195.22V179.531H27.6621V176.763L31.9336 174.574L33.9639 168.325H37.8662V174.812H46.2246V179.531H37.8662V195.141C37.8662 196.617 38.2354 197.716 38.9736 198.437C39.7119 199.157 40.6875 199.518 41.9004 199.518ZM58.5908 162.973V173.282C58.5908 174.354 58.5557 175.4 58.4854 176.42C58.4326 177.439 58.3711 178.23 58.3008 178.793H58.6436C59.2588 177.773 60.0146 176.938 60.9111 176.288C61.8076 175.62 62.8096 175.119 63.917 174.785C65.042 174.451 66.2373 174.284 67.5029 174.284C69.7354 174.284 71.6338 174.662 73.1982 175.418C74.7627 176.156 75.958 177.308 76.7842 178.872C77.6279 180.437 78.0498 182.467 78.0498 184.963V204H71.8535V186.123C71.8535 183.855 71.3877 182.159 70.4561 181.034C69.5244 179.892 68.083 179.32 66.1318 179.32C64.251 179.32 62.7568 179.716 61.6494 180.507C60.5596 181.28 59.7773 182.432 59.3027 183.961C58.8281 185.473 58.5908 187.318 58.5908 189.498V204H52.3945V162.973H58.5908Z" fill="black"/>
<path d="M258 282H38V357H258V282Z" fill="#922A2A"/>
<path d="M698 282H478V357H698V282Z" fill="black"/>
<path d="M478 282H258V357H478V282Z" fill="#D9D9D9"/>
<path d="M1138 282H918V357H1138V282Z" fill="#922A2A"/>
<path d="M918 282H698V357H918V282Z" fill="#D9D9D9"/>
<path d="M41 223V357" stroke="black" stroke-width="6"/>
<path d="M227.783 204H201.68V199.333L211.673 189.208C213.606 187.239 215.197 185.543 216.445 184.119C217.693 182.678 218.616 181.315 219.214 180.032C219.829 178.749 220.137 177.352 220.137 175.84C220.137 173.977 219.601 172.57 218.528 171.621C217.456 170.654 216.041 170.171 214.283 170.171C212.613 170.171 211.066 170.505 209.643 171.173C208.236 171.823 206.777 172.755 205.266 173.968L201.864 169.881C202.937 168.967 204.079 168.132 205.292 167.376C206.522 166.62 207.894 166.022 209.405 165.583C210.917 165.126 212.64 164.897 214.573 164.897C217.017 164.897 219.126 165.337 220.901 166.216C222.677 167.077 224.039 168.281 224.988 169.828C225.955 171.375 226.438 173.177 226.438 175.233C226.438 177.308 226.025 179.224 225.199 180.981C224.373 182.739 223.195 184.479 221.666 186.202C220.137 187.907 218.317 189.762 216.208 191.766L209.537 198.278V198.568H227.783V204ZM245.687 179.9C248.165 179.9 250.345 180.349 252.226 181.245C254.124 182.124 255.601 183.425 256.655 185.147C257.71 186.853 258.237 188.944 258.237 191.423C258.237 194.13 257.666 196.468 256.523 198.437C255.381 200.388 253.702 201.891 251.487 202.945C249.272 204 246.574 204.527 243.393 204.527C241.371 204.527 239.481 204.352 237.724 204C235.983 203.648 234.48 203.121 233.215 202.418V196.828C234.533 197.566 236.115 198.173 237.961 198.647C239.807 199.104 241.573 199.333 243.261 199.333C245.054 199.333 246.592 199.069 247.875 198.542C249.158 198.015 250.143 197.206 250.828 196.116C251.531 195.026 251.883 193.646 251.883 191.977C251.883 189.762 251.171 188.057 249.747 186.861C248.341 185.648 246.135 185.042 243.129 185.042C242.074 185.042 240.949 185.139 239.754 185.332C238.576 185.508 237.592 185.701 236.801 185.912L234.085 184.304L235.535 165.451H255.574V170.909H240.993L240.149 180.507C240.782 180.366 241.538 180.234 242.417 180.111C243.296 179.971 244.386 179.9 245.687 179.9ZM276.352 199.518C277.16 199.518 277.96 199.447 278.751 199.307C279.542 199.148 280.263 198.964 280.913 198.753V203.446C280.228 203.745 279.34 204 278.25 204.211C277.16 204.422 276.026 204.527 274.849 204.527C273.196 204.527 271.711 204.255 270.393 203.71C269.074 203.147 268.028 202.189 267.255 200.836C266.481 199.482 266.095 197.61 266.095 195.22V179.531H262.113V176.763L266.385 174.574L268.415 168.325H272.317V174.812H280.676V179.531H272.317V195.141C272.317 196.617 272.687 197.716 273.425 198.437C274.163 199.157 275.139 199.518 276.352 199.518ZM293.042 162.973V173.282C293.042 174.354 293.007 175.4 292.937 176.42C292.884 177.439 292.822 178.23 292.752 178.793H293.095C293.71 177.773 294.466 176.938 295.362 176.288C296.259 175.62 297.261 175.119 298.368 174.785C299.493 174.451 300.688 174.284 301.954 174.284C304.187 174.284 306.085 174.662 307.649 175.418C309.214 176.156 310.409 177.308 311.235 178.872C312.079 180.437 312.501 182.467 312.501 184.963V204H306.305V186.123C306.305 183.855 305.839 182.159 304.907 181.034C303.976 179.892 302.534 179.32 300.583 179.32C298.702 179.32 297.208 179.716 296.101 180.507C295.011 181.28 294.229 182.432 293.754 183.961C293.279 185.473 293.042 187.318 293.042 189.498V204H286.846V162.973H293.042Z" fill="black"/>
<path d="M25.4766 462.878C25.4766 465.163 25.3096 467.404 24.9756 469.602C24.6592 471.799 24.0967 473.855 23.2881 475.771C22.4971 477.688 21.3984 479.384 19.9922 480.86C18.6035 482.319 16.8457 483.462 14.7188 484.288C12.5918 485.114 10.0254 485.527 7.01953 485.527C6.26367 485.527 5.38477 485.483 4.38281 485.396C3.39844 485.325 2.58984 485.22 1.95703 485.079V479.911C2.625 480.104 3.37207 480.263 4.19824 480.386C5.04199 480.491 5.87695 480.544 6.70312 480.544C9.95508 480.544 12.4863 479.938 14.2969 478.725C16.125 477.512 17.417 475.842 18.1729 473.715C18.9463 471.588 19.3857 469.171 19.4912 466.464H19.1748C18.665 467.308 18.0234 468.081 17.25 468.784C16.4766 469.47 15.5186 470.023 14.376 470.445C13.2334 470.85 11.8447 471.052 10.21 471.052C7.99512 471.052 6.06152 470.586 4.40918 469.654C2.77441 468.723 1.5 467.369 0.585938 465.594C-0.310547 463.801 -0.758789 461.647 -0.758789 459.134C-0.758789 456.409 -0.240234 454.062 0.796875 452.094C1.83398 450.125 3.30176 448.613 5.2002 447.559C7.09863 446.486 9.33105 445.95 11.8975 445.95C13.8311 445.95 15.6152 446.302 17.25 447.005C18.9023 447.69 20.3438 448.745 21.5742 450.169C22.8047 451.575 23.7627 453.342 24.4482 455.469C25.1338 457.578 25.4766 460.048 25.4766 462.878ZM11.9766 451.065C10.0254 451.065 8.43457 451.725 7.2041 453.043C5.97363 454.344 5.3584 456.348 5.3584 459.055C5.3584 461.252 5.88574 462.992 6.94043 464.275C7.99512 465.559 9.6123 466.2 11.792 466.2C13.3037 466.2 14.6045 465.893 15.6943 465.277C16.8018 464.645 17.6543 463.845 18.252 462.878C18.8672 461.911 19.1748 460.927 19.1748 459.925C19.1748 458.888 19.0254 457.851 18.7266 456.813C18.4453 455.776 18.0059 454.827 17.4082 453.966C16.8105 453.104 16.0547 452.41 15.1406 451.883C14.2441 451.338 13.1895 451.065 11.9766 451.065ZM43.4326 460.9C45.9111 460.9 48.0908 461.349 49.9717 462.245C51.8701 463.124 53.3467 464.425 54.4014 466.147C55.4561 467.853 55.9834 469.944 55.9834 472.423C55.9834 475.13 55.4121 477.468 54.2695 479.437C53.127 481.388 51.4482 482.891 49.2334 483.945C47.0186 485 44.3203 485.527 41.1387 485.527C39.1172 485.527 37.2275 485.352 35.4697 485C33.7295 484.648 32.2266 484.121 30.9609 483.418V477.828C32.2793 478.566 33.8613 479.173 35.707 479.647C37.5527 480.104 39.3193 480.333 41.0068 480.333C42.7998 480.333 44.3379 480.069 45.6211 479.542C46.9043 479.015 47.8887 478.206 48.5742 477.116C49.2773 476.026 49.6289 474.646 49.6289 472.977C49.6289 470.762 48.917 469.057 47.4932 467.861C46.0869 466.648 43.8809 466.042 40.875 466.042C39.8203 466.042 38.6953 466.139 37.5 466.332C36.3223 466.508 35.3379 466.701 34.5469 466.912L31.8311 465.304L33.2812 446.451H53.3203V451.909H38.7393L37.8955 461.507C38.5283 461.366 39.2842 461.234 40.1631 461.111C41.042 460.971 42.1318 460.9 43.4326 460.9ZM69.457 445.897C72.2871 445.897 74.4316 446.952 75.8906 449.062C77.3496 451.153 78.0791 454.115 78.0791 457.947C78.0791 461.762 77.376 464.741 75.9697 466.886C74.5811 469.03 72.4102 470.103 69.457 470.103C66.6973 470.103 64.5967 469.03 63.1553 466.886C61.7139 464.741 60.9932 461.762 60.9932 457.947C60.9932 454.115 61.6699 451.153 63.0234 449.062C64.3945 446.952 66.5391 445.897 69.457 445.897ZM69.4834 450.222C68.3408 450.222 67.4971 450.863 66.9521 452.146C66.4248 453.43 66.1611 455.372 66.1611 457.974C66.1611 460.558 66.4248 462.509 66.9521 463.827C67.4971 465.128 68.3408 465.778 69.4834 465.778C70.6436 465.778 71.5049 465.128 72.0674 463.827C72.6475 462.526 72.9375 460.575 72.9375 457.974C72.9375 455.39 72.6562 453.456 72.0938 452.173C71.5312 450.872 70.6611 450.222 69.4834 450.222ZM95.3496 446.451L73.9658 485H68.877L90.2607 446.451H95.3496ZM94.6377 461.322C97.4678 461.322 99.6123 462.377 101.071 464.486C102.548 466.578 103.286 469.54 103.286 473.372C103.286 477.169 102.583 480.14 101.177 482.284C99.7881 484.429 97.6084 485.501 94.6377 485.501C91.8779 485.501 89.7773 484.429 88.3359 482.284C86.8945 480.14 86.1738 477.169 86.1738 473.372C86.1738 469.54 86.8506 466.578 88.2041 464.486C89.5752 462.377 91.7197 461.322 94.6377 461.322ZM94.6641 465.646C93.5215 465.646 92.6777 466.288 92.1328 467.571C91.6055 468.854 91.3418 470.797 91.3418 473.398C91.3418 475.982 91.6055 477.934 92.1328 479.252C92.6777 480.553 93.5215 481.203 94.6641 481.203C95.8418 481.203 96.7119 480.562 97.2744 479.278C97.8369 477.978 98.1182 476.018 98.1182 473.398C98.1182 470.814 97.8369 468.881 97.2744 467.598C96.7119 466.297 95.8418 465.646 94.6641 465.646ZM140.991 451.276C139.146 451.276 137.493 451.61 136.034 452.278C134.593 452.946 133.371 453.913 132.369 455.179C131.367 456.427 130.603 457.947 130.075 459.74C129.548 461.516 129.284 463.52 129.284 465.752C129.284 468.74 129.706 471.315 130.55 473.478C131.394 475.622 132.677 477.274 134.399 478.435C136.122 479.577 138.302 480.148 140.938 480.148C142.573 480.148 144.164 479.99 145.711 479.674C147.258 479.357 148.857 478.927 150.51 478.382V483.761C148.945 484.376 147.363 484.824 145.764 485.105C144.164 485.387 142.318 485.527 140.227 485.527C136.289 485.527 133.02 484.71 130.418 483.075C127.834 481.44 125.9 479.138 124.617 476.167C123.352 473.196 122.719 469.716 122.719 465.726C122.719 462.808 123.123 460.136 123.932 457.71C124.74 455.284 125.918 453.192 127.465 451.435C129.012 449.659 130.919 448.297 133.187 447.348C135.472 446.381 138.082 445.897 141.018 445.897C142.951 445.897 144.85 446.117 146.713 446.557C148.594 446.979 150.334 447.585 151.934 448.376L149.719 453.597C148.383 452.964 146.985 452.419 145.526 451.962C144.067 451.505 142.556 451.276 140.991 451.276ZM183.996 470.34C183.996 472.766 183.68 474.919 183.047 476.8C182.414 478.681 181.491 480.271 180.278 481.572C179.065 482.855 177.606 483.84 175.901 484.525C174.196 485.193 172.271 485.527 170.127 485.527C168.123 485.527 166.286 485.193 164.616 484.525C162.946 483.84 161.496 482.855 160.266 481.572C159.053 480.271 158.112 478.681 157.444 476.8C156.776 474.919 156.442 472.766 156.442 470.34C156.442 467.123 156.996 464.398 158.104 462.166C159.229 459.916 160.828 458.202 162.902 457.024C164.977 455.847 167.446 455.258 170.312 455.258C173.001 455.258 175.374 455.847 177.431 457.024C179.487 458.202 181.096 459.916 182.256 462.166C183.416 464.416 183.996 467.141 183.996 470.34ZM162.823 470.34C162.823 472.467 163.078 474.286 163.588 475.798C164.115 477.31 164.924 478.47 166.014 479.278C167.104 480.069 168.51 480.465 170.232 480.465C171.955 480.465 173.361 480.069 174.451 479.278C175.541 478.47 176.341 477.31 176.851 475.798C177.36 474.286 177.615 472.467 177.615 470.34C177.615 468.213 177.36 466.411 176.851 464.935C176.341 463.44 175.541 462.307 174.451 461.533C173.361 460.742 171.946 460.347 170.206 460.347C167.64 460.347 165.768 461.208 164.59 462.931C163.412 464.653 162.823 467.123 162.823 470.34ZM206.329 455.258C209.616 455.258 212.174 456.11 214.002 457.815C215.848 459.503 216.771 462.219 216.771 465.963V485H210.574V467.123C210.574 464.855 210.108 463.159 209.177 462.034C208.245 460.892 206.804 460.32 204.853 460.32C202.022 460.32 200.054 461.19 198.946 462.931C197.856 464.671 197.312 467.193 197.312 470.498V485H191.115V455.812H195.94L196.811 459.767H197.153C197.786 458.747 198.568 457.912 199.5 457.262C200.449 456.594 201.504 456.093 202.664 455.759C203.842 455.425 205.063 455.258 206.329 455.258ZM240.026 460.531H232.934V485H226.737V460.531H221.965V457.552L226.737 455.732V453.702C226.737 451.224 227.124 449.255 227.897 447.796C228.688 446.337 229.813 445.291 231.272 444.658C232.749 444.008 234.507 443.683 236.546 443.683C237.882 443.683 239.104 443.797 240.211 444.025C241.318 444.236 242.25 444.482 243.006 444.764L241.397 449.457C240.8 449.264 240.132 449.088 239.394 448.93C238.655 448.754 237.864 448.666 237.021 448.666C235.614 448.666 234.577 449.105 233.909 449.984C233.259 450.863 232.934 452.146 232.934 453.834V455.812H240.026V460.531ZM251.18 455.812V485H244.983V455.812H251.18ZM248.121 444.632C249.07 444.632 249.888 444.887 250.573 445.396C251.276 445.906 251.628 446.785 251.628 448.033C251.628 449.264 251.276 450.143 250.573 450.67C249.888 451.18 249.07 451.435 248.121 451.435C247.137 451.435 246.302 451.18 245.616 450.67C244.948 450.143 244.614 449.264 244.614 448.033C244.614 446.785 244.948 445.906 245.616 445.396C246.302 444.887 247.137 444.632 248.121 444.632ZM269.848 485.527C266.367 485.527 263.572 484.262 261.463 481.73C259.371 479.182 258.325 475.429 258.325 470.472C258.325 465.462 259.389 461.674 261.516 459.107C263.66 456.541 266.481 455.258 269.979 455.258C271.456 455.258 272.748 455.46 273.855 455.864C274.963 456.251 275.912 456.778 276.703 457.446C277.512 458.114 278.197 458.861 278.76 459.688H279.05C278.962 459.143 278.856 458.36 278.733 457.341C278.628 456.304 278.575 455.346 278.575 454.467V443.973H284.798V485H279.946L278.839 481.019H278.575C278.048 481.862 277.38 482.627 276.571 483.312C275.78 483.98 274.831 484.517 273.724 484.921C272.634 485.325 271.342 485.527 269.848 485.527ZM271.588 480.491C274.242 480.491 276.114 479.727 277.204 478.197C278.294 476.668 278.856 474.374 278.892 471.315V470.498C278.892 467.229 278.364 464.724 277.31 462.983C276.255 461.226 274.33 460.347 271.535 460.347C269.303 460.347 267.598 461.252 266.42 463.062C265.26 464.855 264.68 467.36 264.68 470.577C264.68 473.794 265.26 476.255 266.42 477.96C267.598 479.647 269.32 480.491 271.588 480.491ZM305.312 455.258C307.913 455.258 310.146 455.794 312.009 456.866C313.872 457.938 315.305 459.459 316.307 461.428C317.309 463.396 317.81 465.752 317.81 468.494V471.816H298.324C298.395 474.646 299.15 476.826 300.592 478.355C302.051 479.885 304.09 480.649 306.709 480.649C308.572 480.649 310.242 480.474 311.719 480.122C313.213 479.753 314.751 479.217 316.333 478.514V483.55C314.874 484.235 313.389 484.736 311.877 485.053C310.365 485.369 308.555 485.527 306.445 485.527C303.58 485.527 301.058 484.974 298.878 483.866C296.716 482.741 295.02 481.071 293.789 478.856C292.576 476.642 291.97 473.891 291.97 470.604C291.97 467.334 292.523 464.557 293.631 462.271C294.738 459.986 296.294 458.246 298.298 457.051C300.302 455.855 302.64 455.258 305.312 455.258ZM305.312 459.925C303.36 459.925 301.778 460.558 300.565 461.823C299.37 463.089 298.667 464.943 298.456 467.387H311.745C311.728 465.928 311.481 464.636 311.007 463.511C310.55 462.386 309.847 461.507 308.897 460.874C307.966 460.241 306.771 459.925 305.312 459.925ZM340.011 455.258C343.298 455.258 345.855 456.11 347.684 457.815C349.529 459.503 350.452 462.219 350.452 465.963V485H344.256V467.123C344.256 464.855 343.79 463.159 342.858 462.034C341.927 460.892 340.485 460.32 338.534 460.32C335.704 460.32 333.735 461.19 332.628 462.931C331.538 464.671 330.993 467.193 330.993 470.498V485H324.797V455.812H329.622L330.492 459.767H330.835C331.468 458.747 332.25 457.912 333.182 457.262C334.131 456.594 335.186 456.093 336.346 455.759C337.523 455.425 338.745 455.258 340.011 455.258ZM370.887 485.527C368.127 485.527 365.736 484.991 363.715 483.919C361.693 482.847 360.138 481.203 359.048 478.988C357.958 476.773 357.413 473.961 357.413 470.551C357.413 467 358.011 464.1 359.206 461.85C360.401 459.6 362.054 457.938 364.163 456.866C366.29 455.794 368.725 455.258 371.467 455.258C373.207 455.258 374.78 455.434 376.187 455.785C377.61 456.119 378.814 456.532 379.799 457.024L377.953 461.981C376.881 461.542 375.782 461.173 374.657 460.874C373.532 460.575 372.451 460.426 371.414 460.426C369.709 460.426 368.285 460.804 367.143 461.56C366.018 462.315 365.174 463.44 364.611 464.935C364.066 466.429 363.794 468.283 363.794 470.498C363.794 472.643 364.075 474.453 364.638 475.93C365.2 477.389 366.035 478.496 367.143 479.252C368.25 479.99 369.612 480.359 371.229 480.359C372.829 480.359 374.262 480.166 375.527 479.779C376.793 479.393 377.988 478.892 379.113 478.276V483.655C378.006 484.288 376.819 484.754 375.554 485.053C374.288 485.369 372.732 485.527 370.887 485.527ZM397.597 455.258C400.198 455.258 402.431 455.794 404.294 456.866C406.157 457.938 407.59 459.459 408.592 461.428C409.594 463.396 410.095 465.752 410.095 468.494V471.816H390.609C390.68 474.646 391.436 476.826 392.877 478.355C394.336 479.885 396.375 480.649 398.994 480.649C400.857 480.649 402.527 480.474 404.004 480.122C405.498 479.753 407.036 479.217 408.618 478.514V483.55C407.159 484.235 405.674 484.736 404.162 485.053C402.65 485.369 400.84 485.527 398.73 485.527C395.865 485.527 393.343 484.974 391.163 483.866C389.001 482.741 387.305 481.071 386.074 478.856C384.861 476.642 384.255 473.891 384.255 470.604C384.255 467.334 384.809 464.557 385.916 462.271C387.023 459.986 388.579 458.246 390.583 457.051C392.587 455.855 394.925 455.258 397.597 455.258ZM397.597 459.925C395.646 459.925 394.063 460.558 392.851 461.823C391.655 463.089 390.952 464.943 390.741 467.387H404.03C404.013 465.928 403.767 464.636 403.292 463.511C402.835 462.386 402.132 461.507 401.183 460.874C400.251 460.241 399.056 459.925 397.597 459.925ZM431.742 485V446.451H438.07V485H431.742ZM462.829 455.258C466.116 455.258 468.674 456.11 470.502 457.815C472.348 459.503 473.271 462.219 473.271 465.963V485H467.074V467.123C467.074 464.855 466.608 463.159 465.677 462.034C464.745 460.892 463.304 460.32 461.353 460.32C458.522 460.32 456.554 461.19 455.446 462.931C454.356 464.671 453.812 467.193 453.812 470.498V485H447.615V455.812H452.44L453.311 459.767H453.653C454.286 458.747 455.068 457.912 456 457.262C456.949 456.594 458.004 456.093 459.164 455.759C460.342 455.425 461.563 455.258 462.829 455.258ZM492.809 480.518C493.617 480.518 494.417 480.447 495.208 480.307C495.999 480.148 496.72 479.964 497.37 479.753V484.446C496.685 484.745 495.797 485 494.707 485.211C493.617 485.422 492.483 485.527 491.306 485.527C489.653 485.527 488.168 485.255 486.85 484.71C485.531 484.147 484.485 483.189 483.712 481.836C482.938 480.482 482.552 478.61 482.552 476.22V460.531H478.57V457.763L482.842 455.574L484.872 449.325H488.774V455.812H497.133V460.531H488.774V476.141C488.774 477.617 489.144 478.716 489.882 479.437C490.62 480.157 491.596 480.518 492.809 480.518ZM514.931 455.258C517.532 455.258 519.765 455.794 521.628 456.866C523.491 457.938 524.924 459.459 525.926 461.428C526.928 463.396 527.429 465.752 527.429 468.494V471.816H507.943C508.014 474.646 508.77 476.826 510.211 478.355C511.67 479.885 513.709 480.649 516.328 480.649C518.191 480.649 519.861 480.474 521.338 480.122C522.832 479.753 524.37 479.217 525.952 478.514V483.55C524.493 484.235 523.008 484.736 521.496 485.053C519.984 485.369 518.174 485.527 516.064 485.527C513.199 485.527 510.677 484.974 508.497 483.866C506.335 482.741 504.639 481.071 503.408 478.856C502.195 476.642 501.589 473.891 501.589 470.604C501.589 467.334 502.143 464.557 503.25 462.271C504.357 459.986 505.913 458.246 507.917 457.051C509.921 455.855 512.259 455.258 514.931 455.258ZM514.931 459.925C512.979 459.925 511.397 460.558 510.185 461.823C508.989 463.089 508.286 464.943 508.075 467.387H521.364C521.347 465.928 521.101 464.636 520.626 463.511C520.169 462.386 519.466 461.507 518.517 460.874C517.585 460.241 516.39 459.925 514.931 459.925ZM549.208 455.258C549.7 455.258 550.236 455.284 550.816 455.337C551.396 455.39 551.897 455.46 552.319 455.548L551.739 461.349C551.37 461.243 550.913 461.164 550.368 461.111C549.841 461.059 549.366 461.032 548.944 461.032C547.837 461.032 546.782 461.217 545.78 461.586C544.778 461.938 543.891 462.482 543.117 463.221C542.344 463.941 541.737 464.847 541.298 465.937C540.858 467.026 540.639 468.292 540.639 469.733V485H534.416V455.812H539.268L540.111 460.953H540.401C540.981 459.916 541.702 458.967 542.563 458.105C543.425 457.244 544.409 456.559 545.517 456.049C546.642 455.521 547.872 455.258 549.208 455.258ZM564.396 485L553.295 455.812H559.86L565.872 472.95C566.259 474.04 566.61 475.218 566.927 476.483C567.243 477.749 567.463 478.812 567.586 479.674H567.797C567.92 478.777 568.157 477.705 568.509 476.457C568.86 475.191 569.221 474.022 569.59 472.95L575.602 455.812H582.141L571.04 485H564.396ZM598.014 455.258C601.705 455.258 604.491 456.075 606.372 457.71C608.271 459.345 609.22 461.894 609.22 465.356V485H604.816L603.63 480.86H603.419C602.593 481.915 601.74 482.785 600.861 483.471C599.982 484.156 598.963 484.666 597.803 485C596.66 485.352 595.263 485.527 593.61 485.527C591.87 485.527 590.314 485.211 588.943 484.578C587.572 483.928 586.491 482.943 585.7 481.625C584.909 480.307 584.514 478.637 584.514 476.615C584.514 473.609 585.63 471.351 587.862 469.839C590.112 468.327 593.505 467.492 598.04 467.334L603.103 467.149V465.62C603.103 463.599 602.628 462.157 601.679 461.296C600.747 460.435 599.429 460.004 597.724 460.004C596.265 460.004 594.85 460.215 593.479 460.637C592.107 461.059 590.771 461.577 589.471 462.192L587.467 457.815C588.891 457.06 590.508 456.444 592.318 455.97C594.146 455.495 596.045 455.258 598.014 455.258ZM603.076 471.052L599.306 471.184C596.212 471.289 594.041 471.816 592.793 472.766C591.545 473.715 590.921 475.016 590.921 476.668C590.921 478.109 591.352 479.164 592.213 479.832C593.074 480.482 594.208 480.808 595.614 480.808C597.759 480.808 599.534 480.201 600.94 478.988C602.364 477.758 603.076 475.956 603.076 473.583V471.052ZM624.117 485H617.895V443.973H624.117V485ZM661.585 460.531H654.492V485H648.296V460.531H643.523V457.552L648.296 455.732V453.702C648.296 451.224 648.683 449.255 649.456 447.796C650.247 446.337 651.372 445.291 652.831 444.658C654.308 444.008 656.065 443.683 658.104 443.683C659.44 443.683 660.662 443.797 661.77 444.025C662.877 444.236 663.809 444.482 664.564 444.764L662.956 449.457C662.358 449.264 661.69 449.088 660.952 448.93C660.214 448.754 659.423 448.666 658.579 448.666C657.173 448.666 656.136 449.105 655.468 449.984C654.817 450.863 654.492 452.146 654.492 453.834V455.812H661.585V460.531ZM692.408 470.34C692.408 472.766 692.092 474.919 691.459 476.8C690.826 478.681 689.903 480.271 688.69 481.572C687.478 482.855 686.019 483.84 684.313 484.525C682.608 485.193 680.684 485.527 678.539 485.527C676.535 485.527 674.698 485.193 673.028 484.525C671.358 483.84 669.908 482.855 668.678 481.572C667.465 480.271 666.524 478.681 665.856 476.8C665.188 474.919 664.854 472.766 664.854 470.34C664.854 467.123 665.408 464.398 666.516 462.166C667.641 459.916 669.24 458.202 671.314 457.024C673.389 455.847 675.858 455.258 678.724 455.258C681.413 455.258 683.786 455.847 685.843 457.024C687.899 458.202 689.508 459.916 690.668 462.166C691.828 464.416 692.408 467.141 692.408 470.34ZM671.235 470.34C671.235 472.467 671.49 474.286 672 475.798C672.527 477.31 673.336 478.47 674.426 479.278C675.516 480.069 676.922 480.465 678.645 480.465C680.367 480.465 681.773 480.069 682.863 479.278C683.953 478.47 684.753 477.31 685.263 475.798C685.772 474.286 686.027 472.467 686.027 470.34C686.027 468.213 685.772 466.411 685.263 464.935C684.753 463.44 683.953 462.307 682.863 461.533C681.773 460.742 680.358 460.347 678.618 460.347C676.052 460.347 674.18 461.208 673.002 462.931C671.824 464.653 671.235 467.123 671.235 470.34ZM714.319 455.258C714.812 455.258 715.348 455.284 715.928 455.337C716.508 455.39 717.009 455.46 717.431 455.548L716.851 461.349C716.481 461.243 716.024 461.164 715.479 461.111C714.952 461.059 714.478 461.032 714.056 461.032C712.948 461.032 711.894 461.217 710.892 461.586C709.89 461.938 709.002 462.482 708.229 463.221C707.455 463.941 706.849 464.847 706.409 465.937C705.97 467.026 705.75 468.292 705.75 469.733V485H699.527V455.812H704.379L705.223 460.953H705.513C706.093 459.916 706.813 458.967 707.675 458.105C708.536 457.244 709.521 456.559 710.628 456.049C711.753 455.521 712.983 455.258 714.319 455.258ZM761.385 485L757.614 474.295H742.875L739.104 485H732.434L746.777 446.293H753.791L768.108 485H761.385ZM755.979 468.863L752.314 458.316C752.174 457.859 751.972 457.218 751.708 456.392C751.444 455.548 751.181 454.695 750.917 453.834C750.653 452.955 750.434 452.217 750.258 451.619C750.082 452.34 749.862 453.148 749.599 454.045C749.353 454.924 749.106 455.75 748.86 456.523C748.632 457.297 748.456 457.895 748.333 458.316L744.642 468.863H755.979ZM779.235 485L768.135 455.812H774.7L780.712 472.95C781.099 474.04 781.45 475.218 781.767 476.483C782.083 477.749 782.303 478.812 782.426 479.674H782.637C782.76 478.777 782.997 477.705 783.349 476.457C783.7 475.191 784.061 474.022 784.43 472.95L790.441 455.812H796.98L785.88 485H779.235ZM813.038 455.258C815.64 455.258 817.872 455.794 819.735 456.866C821.599 457.938 823.031 459.459 824.033 461.428C825.035 463.396 825.536 465.752 825.536 468.494V471.816H806.051C806.121 474.646 806.877 476.826 808.318 478.355C809.777 479.885 811.816 480.649 814.436 480.649C816.299 480.649 817.969 480.474 819.445 480.122C820.939 479.753 822.478 479.217 824.06 478.514V483.55C822.601 484.235 821.115 484.736 819.604 485.053C818.092 485.369 816.281 485.527 814.172 485.527C811.307 485.527 808.784 484.974 806.604 483.866C804.442 482.741 802.746 481.071 801.516 478.856C800.303 476.642 799.696 473.891 799.696 470.604C799.696 467.334 800.25 464.557 801.357 462.271C802.465 459.986 804.021 458.246 806.024 457.051C808.028 455.855 810.366 455.258 813.038 455.258ZM813.038 459.925C811.087 459.925 809.505 460.558 808.292 461.823C807.097 463.089 806.394 464.943 806.183 467.387H819.472C819.454 465.928 819.208 464.636 818.733 463.511C818.276 462.386 817.573 461.507 816.624 460.874C815.692 460.241 814.497 459.925 813.038 459.925ZM847.315 455.258C847.808 455.258 848.344 455.284 848.924 455.337C849.504 455.39 850.005 455.46 850.427 455.548L849.847 461.349C849.478 461.243 849.021 461.164 848.476 461.111C847.948 461.059 847.474 461.032 847.052 461.032C845.944 461.032 844.89 461.217 843.888 461.586C842.886 461.938 841.998 462.482 841.225 463.221C840.451 463.941 839.845 464.847 839.405 465.937C838.966 467.026 838.746 468.292 838.746 469.733V485H832.523V455.812H837.375L838.219 460.953H838.509C839.089 459.916 839.81 458.967 840.671 458.105C841.532 457.244 842.517 456.559 843.624 456.049C844.749 455.521 845.979 455.258 847.315 455.258ZM867.275 455.258C870.967 455.258 873.753 456.075 875.634 457.71C877.532 459.345 878.481 461.894 878.481 465.356V485H874.078L872.892 480.86H872.681C871.854 481.915 871.002 482.785 870.123 483.471C869.244 484.156 868.225 484.666 867.064 485C865.922 485.352 864.524 485.527 862.872 485.527C861.132 485.527 859.576 485.211 858.205 484.578C856.834 483.928 855.753 482.943 854.962 481.625C854.171 480.307 853.775 478.637 853.775 476.615C853.775 473.609 854.892 471.351 857.124 469.839C859.374 468.327 862.767 467.492 867.302 467.334L872.364 467.149V465.62C872.364 463.599 871.89 462.157 870.94 461.296C870.009 460.435 868.69 460.004 866.985 460.004C865.526 460.004 864.111 460.215 862.74 460.637C861.369 461.059 860.033 461.577 858.732 462.192L856.729 457.815C858.152 457.06 859.77 456.444 861.58 455.97C863.408 455.495 865.307 455.258 867.275 455.258ZM872.338 471.052L868.567 471.184C865.474 471.289 863.303 471.816 862.055 472.766C860.807 473.715 860.183 475.016 860.183 476.668C860.183 478.109 860.613 479.164 861.475 479.832C862.336 480.482 863.47 480.808 864.876 480.808C867.021 480.808 868.796 480.201 870.202 478.988C871.626 477.758 872.338 475.956 872.338 473.583V471.052ZM895.488 497.973C891.533 497.973 888.501 497.261 886.392 495.837C884.282 494.413 883.228 492.418 883.228 489.852C883.228 488.059 883.79 486.538 884.915 485.29C886.04 484.06 887.648 483.207 889.74 482.732C888.949 482.381 888.264 481.836 887.684 481.098C887.121 480.342 886.84 479.507 886.84 478.593C886.84 477.503 887.147 476.571 887.763 475.798C888.378 475.024 889.301 474.277 890.531 473.557C889.002 472.906 887.771 471.852 886.84 470.393C885.926 468.916 885.469 467.185 885.469 465.198C885.469 463.089 885.917 461.296 886.813 459.819C887.71 458.325 889.02 457.191 890.742 456.418C892.465 455.627 894.548 455.231 896.991 455.231C897.519 455.231 898.09 455.267 898.705 455.337C899.338 455.39 899.918 455.46 900.445 455.548C900.99 455.618 901.403 455.697 901.685 455.785H911.783V459.239L906.826 460.162C907.301 460.83 907.679 461.595 907.96 462.456C908.241 463.3 908.382 464.223 908.382 465.225C908.382 468.248 907.336 470.63 905.244 472.37C903.17 474.093 900.305 474.954 896.648 474.954C895.77 474.919 894.917 474.849 894.091 474.743C893.458 475.13 892.975 475.561 892.641 476.035C892.307 476.492 892.14 477.011 892.14 477.591C892.14 478.065 892.307 478.452 892.641 478.751C892.975 479.032 893.467 479.243 894.117 479.384C894.785 479.524 895.594 479.595 896.543 479.595H901.579C904.778 479.595 907.222 480.271 908.909 481.625C910.597 482.979 911.44 484.965 911.44 487.584C911.44 490.906 910.069 493.464 907.327 495.257C904.585 497.067 900.639 497.973 895.488 497.973ZM895.726 493.622C897.888 493.622 899.707 493.411 901.184 492.989C902.66 492.567 903.776 491.961 904.532 491.17C905.288 490.396 905.666 489.474 905.666 488.401C905.666 487.452 905.429 486.723 904.954 486.213C904.479 485.703 903.768 485.352 902.818 485.158C901.869 484.965 900.691 484.868 899.285 484.868H894.697C893.555 484.868 892.544 485.044 891.665 485.396C890.786 485.765 890.101 486.292 889.608 486.978C889.134 487.663 888.896 488.489 888.896 489.456C888.896 490.792 889.485 491.82 890.663 492.541C891.858 493.262 893.546 493.622 895.726 493.622ZM896.938 470.894C898.749 470.894 900.094 470.401 900.973 469.417C901.852 468.415 902.291 467.009 902.291 465.198C902.291 463.229 901.834 461.753 900.92 460.769C900.023 459.784 898.688 459.292 896.912 459.292C895.172 459.292 893.845 459.793 892.931 460.795C892.034 461.797 891.586 463.282 891.586 465.251C891.586 467.026 892.034 468.415 892.931 469.417C893.845 470.401 895.181 470.894 896.938 470.894ZM928.737 455.258C931.339 455.258 933.571 455.794 935.435 456.866C937.298 457.938 938.73 459.459 939.732 461.428C940.734 463.396 941.235 465.752 941.235 468.494V471.816H921.75C921.82 474.646 922.576 476.826 924.018 478.355C925.477 479.885 927.516 480.649 930.135 480.649C931.998 480.649 933.668 480.474 935.145 480.122C936.639 479.753 938.177 479.217 939.759 478.514V483.55C938.3 484.235 936.814 484.736 935.303 485.053C933.791 485.369 931.98 485.527 929.871 485.527C927.006 485.527 924.483 484.974 922.304 483.866C920.142 482.741 918.445 481.071 917.215 478.856C916.002 476.642 915.396 473.891 915.396 470.604C915.396 467.334 915.949 464.557 917.057 462.271C918.164 459.986 919.72 458.246 921.724 457.051C923.728 455.855 926.065 455.258 928.737 455.258ZM928.737 459.925C926.786 459.925 925.204 460.558 923.991 461.823C922.796 463.089 922.093 464.943 921.882 467.387H935.171C935.153 465.928 934.907 464.636 934.433 463.511C933.976 462.386 933.272 461.507 932.323 460.874C931.392 460.241 930.196 459.925 928.737 459.925ZM959.982 470.208C959.982 467.255 960.264 464.372 960.826 461.56C961.406 458.747 962.285 456.066 963.463 453.518C964.641 450.969 966.126 448.613 967.919 446.451H973.324C970.811 449.809 968.912 453.526 967.629 457.604C966.363 461.683 965.73 465.866 965.73 470.155C965.73 472.95 966.012 475.719 966.574 478.461C967.137 481.203 967.98 483.84 969.105 486.371C970.23 488.92 971.619 491.311 973.271 493.543H967.919C966.126 491.434 964.641 489.131 963.463 486.635C962.285 484.139 961.406 481.502 960.826 478.725C960.264 475.947 959.982 473.108 959.982 470.208ZM977.49 485V480.333H1003.28V485H977.49ZM992.704 462.746H1003.25V467.439H992.704V478.092H988.011V467.439H977.49V462.746H988.011V451.988H992.704V462.746ZM1034.39 485H1008.29V480.333L1018.28 470.208C1020.21 468.239 1021.8 466.543 1023.05 465.119C1024.3 463.678 1025.22 462.315 1025.82 461.032C1026.44 459.749 1026.74 458.352 1026.74 456.84C1026.74 454.977 1026.21 453.57 1025.14 452.621C1024.06 451.654 1022.65 451.171 1020.89 451.171C1019.22 451.171 1017.67 451.505 1016.25 452.173C1014.84 452.823 1013.38 453.755 1011.87 454.968L1008.47 450.881C1009.54 449.967 1010.69 449.132 1011.9 448.376C1013.13 447.62 1014.5 447.022 1016.01 446.583C1017.52 446.126 1019.25 445.897 1021.18 445.897C1023.62 445.897 1025.73 446.337 1027.51 447.216C1029.28 448.077 1030.65 449.281 1031.6 450.828C1032.56 452.375 1033.05 454.177 1033.05 456.233C1033.05 458.308 1032.63 460.224 1031.81 461.981C1030.98 463.739 1029.8 465.479 1028.27 467.202C1026.74 468.907 1024.92 470.762 1022.82 472.766L1016.14 479.278V479.568H1034.39V485ZM1064.08 474.506C1064.08 476.791 1063.52 478.76 1062.39 480.412C1061.29 482.064 1059.69 483.33 1057.59 484.209C1055.52 485.088 1053.04 485.527 1050.16 485.527C1048.75 485.527 1047.41 485.448 1046.12 485.29C1044.84 485.132 1043.63 484.903 1042.49 484.604C1041.36 484.288 1040.33 483.91 1039.4 483.471V477.512C1040.96 478.197 1042.71 478.821 1044.65 479.384C1046.58 479.929 1048.55 480.201 1050.55 480.201C1052.19 480.201 1053.54 479.99 1054.61 479.568C1055.7 479.129 1056.51 478.514 1057.04 477.723C1057.57 476.914 1057.83 475.974 1057.83 474.901C1057.83 473.759 1057.52 472.792 1056.91 472.001C1056.29 471.21 1055.36 470.489 1054.11 469.839C1052.88 469.171 1051.34 468.459 1049.47 467.703C1048.21 467.193 1046.99 466.613 1045.83 465.963C1044.69 465.312 1043.67 464.548 1042.78 463.669C1041.88 462.79 1041.17 461.753 1040.64 460.558C1040.13 459.345 1039.88 457.921 1039.88 456.286C1039.88 454.106 1040.39 452.243 1041.43 450.696C1042.49 449.149 1043.96 447.963 1045.86 447.137C1047.78 446.311 1050.01 445.897 1052.56 445.897C1054.58 445.897 1056.48 446.108 1058.25 446.53C1060.05 446.952 1061.8 447.55 1063.53 448.323L1061.52 453.412C1059.94 452.762 1058.4 452.243 1056.91 451.856C1055.43 451.47 1053.92 451.276 1052.37 451.276C1051.04 451.276 1049.9 451.479 1048.97 451.883C1048.04 452.287 1047.33 452.858 1046.84 453.597C1046.36 454.317 1046.12 455.179 1046.12 456.181C1046.12 457.306 1046.4 458.255 1046.94 459.028C1047.5 459.784 1048.37 460.479 1049.53 461.111C1050.7 461.744 1052.21 462.447 1054.06 463.221C1056.19 464.1 1057.99 465.022 1059.47 465.989C1060.96 466.956 1062.1 468.116 1062.89 469.47C1063.68 470.806 1064.08 472.484 1064.08 474.506ZM1093.35 485H1071.52V446.451H1093.35V451.777H1077.84V462.245H1092.37V467.545H1077.84V479.647H1093.35V485ZM1111.57 470.182C1111.57 473.1 1111.29 475.947 1110.72 478.725C1110.16 481.502 1109.29 484.139 1108.11 486.635C1106.95 489.131 1105.46 491.434 1103.63 493.543H1098.3C1099.96 491.311 1101.35 488.92 1102.47 486.371C1103.6 483.822 1104.44 481.177 1105 478.435C1105.56 475.692 1105.85 472.924 1105.85 470.129C1105.85 467.281 1105.56 464.469 1104.98 461.691C1104.41 458.914 1103.57 456.242 1102.44 453.676C1101.32 451.092 1099.92 448.684 1098.25 446.451H1103.63C1105.46 448.613 1106.95 450.969 1108.11 453.518C1109.29 456.066 1110.16 458.747 1110.72 461.56C1111.29 464.354 1111.57 467.229 1111.57 470.182Z" fill="black"/>
<path d="M258 223V357" stroke="black" stroke-width="6"/>
<path d="M866.083 204L881.218 170.883H861.205V165.451H887.889V169.696L872.754 204H866.083ZM905.687 179.9C908.165 179.9 910.345 180.349 912.226 181.245C914.124 182.124 915.601 183.425 916.655 185.147C917.71 186.853 918.237 188.944 918.237 191.423C918.237 194.13 917.666 196.468 916.523 198.437C915.381 200.388 913.702 201.891 911.487 202.945C909.272 204 906.574 204.527 903.393 204.527C901.371 204.527 899.481 204.352 897.724 204C895.983 203.648 894.48 203.121 893.215 202.418V196.828C894.533 197.566 896.115 198.173 897.961 198.647C899.807 199.104 901.573 199.333 903.261 199.333C905.054 199.333 906.592 199.069 907.875 198.542C909.158 198.015 910.143 197.206 910.828 196.116C911.531 195.026 911.883 193.646 911.883 191.977C911.883 189.762 911.171 188.057 909.747 186.861C908.341 185.648 906.135 185.042 903.129 185.042C902.074 185.042 900.949 185.139 899.754 185.332C898.576 185.508 897.592 185.701 896.801 185.912L894.085 184.304L895.535 165.451H915.574V170.909H900.993L900.149 180.507C900.782 180.366 901.538 180.234 902.417 180.111C903.296 179.971 904.386 179.9 905.687 179.9ZM936.352 199.518C937.16 199.518 937.96 199.447 938.751 199.307C939.542 199.148 940.263 198.964 940.913 198.753V203.446C940.228 203.745 939.34 204 938.25 204.211C937.16 204.422 936.026 204.527 934.849 204.527C933.196 204.527 931.711 204.255 930.393 203.71C929.074 203.147 928.028 202.189 927.255 200.836C926.481 199.482 926.095 197.61 926.095 195.22V179.531H922.113V176.763L926.385 174.574L928.415 168.325H932.317V174.812H940.676V179.531H932.317V195.141C932.317 196.617 932.687 197.716 933.425 198.437C934.163 199.157 935.139 199.518 936.352 199.518ZM953.042 162.973V173.282C953.042 174.354 953.007 175.4 952.937 176.42C952.884 177.439 952.822 178.23 952.752 178.793H953.095C953.71 177.773 954.466 176.938 955.362 176.288C956.259 175.62 957.261 175.119 958.368 174.785C959.493 174.451 960.688 174.284 961.954 174.284C964.187 174.284 966.085 174.662 967.649 175.418C969.214 176.156 970.409 177.308 971.235 178.872C972.079 180.437 972.501 182.467 972.501 184.963V204H966.305V186.123C966.305 183.855 965.839 182.159 964.907 181.034C963.976 179.892 962.534 179.32 960.583 179.32C958.702 179.32 957.208 179.716 956.101 180.507C955.011 181.28 954.229 182.432 953.754 183.961C953.279 185.473 953.042 187.318 953.042 189.498V204H946.846V162.973H953.042Z" fill="black"/>
<path d="M918 223V357" stroke="black" stroke-width="6"/>
<path d="M1107.73 181.878C1107.73 184.163 1107.56 186.404 1107.23 188.602C1106.91 190.799 1106.35 192.855 1105.54 194.771C1104.75 196.688 1103.65 198.384 1102.25 199.86C1100.86 201.319 1099.1 202.462 1096.97 203.288C1094.85 204.114 1092.28 204.527 1089.27 204.527C1088.52 204.527 1087.64 204.483 1086.64 204.396C1085.65 204.325 1084.84 204.22 1084.21 204.079V198.911C1084.88 199.104 1085.63 199.263 1086.45 199.386C1087.3 199.491 1088.13 199.544 1088.96 199.544C1092.21 199.544 1094.74 198.938 1096.55 197.725C1098.38 196.512 1099.67 194.842 1100.43 192.715C1101.2 190.588 1101.64 188.171 1101.75 185.464H1101.43C1100.92 186.308 1100.28 187.081 1099.5 187.784C1098.73 188.47 1097.77 189.023 1096.63 189.445C1095.49 189.85 1094.1 190.052 1092.46 190.052C1090.25 190.052 1088.32 189.586 1086.66 188.654C1085.03 187.723 1083.75 186.369 1082.84 184.594C1081.94 182.801 1081.5 180.647 1081.5 178.134C1081.5 175.409 1082.01 173.062 1083.05 171.094C1084.09 169.125 1085.56 167.613 1087.45 166.559C1089.35 165.486 1091.58 164.95 1094.15 164.95C1096.08 164.95 1097.87 165.302 1099.5 166.005C1101.16 166.69 1102.6 167.745 1103.83 169.169C1105.06 170.575 1106.02 172.342 1106.7 174.469C1107.39 176.578 1107.73 179.048 1107.73 181.878ZM1094.23 170.065C1092.28 170.065 1090.69 170.725 1089.46 172.043C1088.23 173.344 1087.61 175.348 1087.61 178.055C1087.61 180.252 1088.14 181.992 1089.19 183.275C1090.25 184.559 1091.87 185.2 1094.05 185.2C1095.56 185.2 1096.86 184.893 1097.95 184.277C1099.06 183.645 1099.91 182.845 1100.51 181.878C1101.12 180.911 1101.43 179.927 1101.43 178.925C1101.43 177.888 1101.28 176.851 1100.98 175.813C1100.7 174.776 1100.26 173.827 1099.66 172.966C1099.06 172.104 1098.31 171.41 1097.39 170.883C1096.5 170.338 1095.44 170.065 1094.23 170.065ZM1125.69 179.9C1128.17 179.9 1130.34 180.349 1132.23 181.245C1134.12 182.124 1135.6 183.425 1136.66 185.147C1137.71 186.853 1138.24 188.944 1138.24 191.423C1138.24 194.13 1137.67 196.468 1136.52 198.437C1135.38 200.388 1133.7 201.891 1131.49 202.945C1129.27 204 1126.57 204.527 1123.39 204.527C1121.37 204.527 1119.48 204.352 1117.72 204C1115.98 203.648 1114.48 203.121 1113.21 202.418V196.828C1114.53 197.566 1116.12 198.173 1117.96 198.647C1119.81 199.104 1121.57 199.333 1123.26 199.333C1125.05 199.333 1126.59 199.069 1127.88 198.542C1129.16 198.015 1130.14 197.206 1130.83 196.116C1131.53 195.026 1131.88 193.646 1131.88 191.977C1131.88 189.762 1131.17 188.057 1129.75 186.861C1128.34 185.648 1126.13 185.042 1123.13 185.042C1122.07 185.042 1120.95 185.139 1119.75 185.332C1118.58 185.508 1117.59 185.701 1116.8 185.912L1114.08 184.304L1115.54 165.451H1135.57V170.909H1120.99L1120.15 180.507C1120.78 180.366 1121.54 180.234 1122.42 180.111C1123.3 179.971 1124.39 179.9 1125.69 179.9ZM1156.35 199.518C1157.16 199.518 1157.96 199.447 1158.75 199.307C1159.54 199.148 1160.26 198.964 1160.91 198.753V203.446C1160.23 203.745 1159.34 204 1158.25 204.211C1157.16 204.422 1156.03 204.527 1154.85 204.527C1153.2 204.527 1151.71 204.255 1150.39 203.71C1149.07 203.147 1148.03 202.189 1147.25 200.836C1146.48 199.482 1146.09 197.61 1146.09 195.22V179.531H1142.11V176.763L1146.38 174.574L1148.42 168.325H1152.32V174.812H1160.68V179.531H1152.32V195.141C1152.32 196.617 1152.69 197.716 1153.42 198.437C1154.16 199.157 1155.14 199.518 1156.35 199.518ZM1173.04 162.973V173.282C1173.04 174.354 1173.01 175.4 1172.94 176.42C1172.88 177.439 1172.82 178.23 1172.75 178.793H1173.09C1173.71 177.773 1174.47 176.938 1175.36 176.288C1176.26 175.62 1177.26 175.119 1178.37 174.785C1179.49 174.451 1180.69 174.284 1181.95 174.284C1184.19 174.284 1186.08 174.662 1187.65 175.418C1189.21 176.156 1190.41 177.308 1191.24 178.872C1192.08 180.437 1192.5 182.467 1192.5 184.963V204H1186.3V186.123C1186.3 183.855 1185.84 182.159 1184.91 181.034C1183.98 179.892 1182.53 179.32 1180.58 179.32C1178.7 179.32 1177.21 179.716 1176.1 180.507C1175.01 181.28 1174.23 182.432 1173.75 183.961C1173.28 185.473 1173.04 187.318 1173.04 189.498V204H1166.85V162.973H1173.04Z" fill="black"/>
<path d="M1138 223V357" stroke="black" stroke-width="6"/>
<path d="M586.5 411.5C606.241 386.91 640.932 373.395 657.354 389.741C673.776 406.087 701.905 380.456 692.951 367.296" stroke="black" stroke-width="7"/>
<path d="M590.5 412.5C570.759 387.91 536.068 373.395 519.646 389.741C503.224 406.087 475.095 380.456 484.049 367.296" stroke="black" stroke-width="7"/>
</g>
</g>
<defs>
<clipPath id="clip0_328_2">
<rect width="1336" height="514" fill="white"/>
</clipPath>
</defs>
</svg>
