<svg width="1336" height="439" viewBox="0 0 1336 439" fill="none" xmlns="http://www.w3.org/2000/svg">
<path d="M445.72 42.034C447.456 41.7033 449.357 41.4553 451.424 41.29C453.532 41.0833 455.619 40.98 457.686 40.98C459.835 40.98 461.985 41.166 464.134 41.538C466.325 41.8687 468.288 42.5713 470.024 43.646C471.76 44.6793 473.165 46.1467 474.24 48.048C475.356 49.908 475.914 52.3467 475.914 55.364C475.914 58.092 475.439 60.4067 474.488 62.308C473.537 64.168 472.277 65.6973 470.706 66.896C469.135 68.0947 467.337 68.9627 465.312 69.5C463.328 70.0373 461.261 70.306 459.112 70.306C458.905 70.306 458.575 70.306 458.12 70.306C457.665 70.306 457.19 70.306 456.694 70.306C456.198 70.2647 455.702 70.2233 455.206 70.182C454.751 70.1407 454.421 70.0993 454.214 70.058V85H445.72V42.034ZM458.368 48.296C457.541 48.296 456.756 48.3373 456.012 48.42C455.268 48.4613 454.669 48.5233 454.214 48.606V62.68C454.379 62.7213 454.627 62.7627 454.958 62.804C455.289 62.8453 455.64 62.8867 456.012 62.928C456.384 62.928 456.735 62.928 457.066 62.928C457.438 62.928 457.707 62.928 457.872 62.928C458.988 62.928 460.083 62.8247 461.158 62.618C462.274 62.4113 463.266 62.0393 464.134 61.502C465.002 60.9233 465.684 60.138 466.18 59.146C466.717 58.154 466.986 56.852 466.986 55.24C466.986 53.876 466.738 52.76 466.242 51.892C465.746 50.9827 465.085 50.2593 464.258 49.722C463.473 49.1847 462.563 48.8127 461.53 48.606C460.497 48.3993 459.443 48.296 458.368 48.296ZM496.31 61.564C495.029 61.1093 493.871 60.882 492.838 60.882C491.391 60.882 490.172 61.2747 489.18 62.06C488.229 62.804 487.589 63.7753 487.258 64.974V85H479.198V54H485.46L486.39 58.092H486.638C487.341 56.5627 488.291 55.3847 489.49 54.558C490.689 53.7313 492.094 53.318 493.706 53.318C494.781 53.318 496 53.5453 497.364 54L496.31 61.564ZM501.678 54H509.738V85H501.678V54ZM500.5 45.258C500.5 44.0593 500.934 43.0467 501.802 42.22C502.712 41.352 503.952 40.918 505.522 40.918C507.093 40.918 508.354 41.352 509.304 42.22C510.296 43.0467 510.792 44.0593 510.792 45.258C510.792 46.4567 510.296 47.4693 509.304 48.296C508.354 49.0813 507.093 49.474 505.522 49.474C503.952 49.474 502.712 49.0813 501.802 48.296C500.934 47.4693 500.5 46.4567 500.5 45.258ZM516.097 69.5C516.097 64.2507 517.378 60.2207 519.941 57.41C522.503 54.558 526.099 53.132 530.729 53.132C533.209 53.132 535.358 53.5247 537.177 54.31C538.995 55.0953 540.504 56.2113 541.703 57.658C542.901 59.0633 543.79 60.7787 544.369 62.804C544.989 64.8293 545.299 67.0613 545.299 69.5C545.299 74.7493 544.017 78.8 541.455 81.652C538.933 84.4627 535.358 85.868 530.729 85.868C528.249 85.868 526.099 85.4753 524.281 84.69C522.462 83.9047 520.933 82.8093 519.693 81.404C518.494 79.9573 517.585 78.2213 516.965 76.196C516.386 74.1707 516.097 71.9387 516.097 69.5ZM524.405 69.5C524.405 70.864 524.529 72.1247 524.777 73.282C525.025 74.4393 525.397 75.452 525.893 76.32C526.389 77.188 527.029 77.87 527.815 78.366C528.641 78.8207 529.613 79.048 530.729 79.048C532.837 79.048 534.407 78.2833 535.441 76.754C536.474 75.2247 536.991 72.8067 536.991 69.5C536.991 66.648 536.515 64.354 535.565 62.618C534.614 60.8407 533.002 59.952 530.729 59.952C528.745 59.952 527.195 60.696 526.079 62.184C524.963 63.672 524.405 66.1107 524.405 69.5ZM567.998 61.564C566.716 61.1093 565.559 60.882 564.526 60.882C563.079 60.882 561.86 61.2747 560.868 62.06C559.917 62.804 559.276 63.7753 558.946 64.974V85H550.886V54H557.148L558.078 58.092H558.326C559.028 56.5627 559.979 55.3847 561.178 54.558C562.376 53.7313 563.782 53.318 565.394 53.318C566.468 53.318 567.688 53.5453 569.052 54L567.998 61.564ZM585.08 54H589.358V48.172L597.418 45.878V54H604.982V60.82H597.418V72.724C597.418 74.8733 597.624 76.4233 598.038 77.374C598.492 78.2833 599.319 78.738 600.518 78.738C601.344 78.738 602.047 78.6553 602.626 78.49C603.246 78.3247 603.928 78.0767 604.672 77.746L606.098 83.946C604.982 84.4833 603.68 84.938 602.192 85.31C600.704 85.682 599.195 85.868 597.666 85.868C594.814 85.868 592.706 85.1447 591.342 83.698C590.019 82.21 589.358 79.792 589.358 76.444V60.82H585.08V54ZM608.128 69.5C608.128 64.2507 609.409 60.2207 611.972 57.41C614.535 54.558 618.131 53.132 622.76 53.132C625.24 53.132 627.389 53.5247 629.208 54.31C631.027 55.0953 632.535 56.2113 633.734 57.658C634.933 59.0633 635.821 60.7787 636.4 62.804C637.02 64.8293 637.33 67.0613 637.33 69.5C637.33 74.7493 636.049 78.8 633.486 81.652C630.965 84.4627 627.389 85.868 622.76 85.868C620.28 85.868 618.131 85.4753 616.312 84.69C614.493 83.9047 612.964 82.8093 611.724 81.404C610.525 79.9573 609.616 78.2213 608.996 76.196C608.417 74.1707 608.128 71.9387 608.128 69.5ZM616.436 69.5C616.436 70.864 616.56 72.1247 616.808 73.282C617.056 74.4393 617.428 75.452 617.924 76.32C618.42 77.188 619.061 77.87 619.846 78.366C620.673 78.8207 621.644 79.048 622.76 79.048C624.868 79.048 626.439 78.2833 627.472 76.754C628.505 75.2247 629.022 72.8067 629.022 69.5C629.022 66.648 628.547 64.354 627.596 62.618C626.645 60.8407 625.033 59.952 622.76 59.952C620.776 59.952 619.226 60.696 618.11 62.184C616.994 63.672 616.436 66.1107 616.436 69.5ZM687.385 83.202C686.063 84.1527 684.368 84.8347 682.301 85.248C680.276 85.6613 678.189 85.868 676.039 85.868C673.435 85.868 670.955 85.4753 668.599 84.69C666.285 83.8633 664.239 82.5613 662.461 80.784C660.684 78.9653 659.258 76.63 658.183 73.778C657.15 70.8847 656.633 67.392 656.633 63.3C656.633 59.0427 657.212 55.488 658.369 52.636C659.568 49.7427 661.097 47.428 662.957 45.692C664.859 43.9147 666.967 42.654 669.281 41.91C671.596 41.1247 673.911 40.732 676.225 40.732C678.705 40.732 680.793 40.8973 682.487 41.228C684.223 41.5587 685.649 41.9513 686.765 42.406L685.091 49.598C684.141 49.1433 683.004 48.8127 681.681 48.606C680.4 48.3993 678.829 48.296 676.969 48.296C673.539 48.296 670.769 49.5153 668.661 51.954C666.595 54.3927 665.561 58.1747 665.561 63.3C665.561 65.532 665.809 67.578 666.305 69.438C666.801 71.2567 667.545 72.8273 668.537 74.15C669.571 75.4313 670.831 76.444 672.319 77.188C673.849 77.8907 675.605 78.242 677.589 78.242C679.449 78.242 681.02 78.056 682.301 77.684C683.583 77.312 684.699 76.8367 685.649 76.258L687.385 83.202ZM689.208 63.3C689.208 56.0667 690.799 50.5073 693.982 46.622C697.164 42.6953 701.711 40.732 707.622 40.732C710.722 40.732 713.429 41.2693 715.744 42.344C718.058 43.4187 719.98 44.948 721.51 46.932C723.039 48.916 724.176 51.2927 724.92 54.062C725.664 56.8313 726.036 59.9107 726.036 63.3C726.036 70.5333 724.424 76.1133 721.2 80.04C718.017 83.9253 713.491 85.868 707.622 85.868C704.48 85.868 701.752 85.3307 699.438 84.256C697.123 83.1813 695.201 81.652 693.672 79.668C692.184 77.684 691.068 75.3073 690.324 72.538C689.58 69.7687 689.208 66.6893 689.208 63.3ZM698.136 63.3C698.136 65.4907 698.322 67.516 698.694 69.376C699.066 71.1947 699.624 72.7653 700.368 74.088C701.153 75.4107 702.145 76.444 703.344 77.188C704.542 77.932 705.968 78.304 707.622 78.304C710.639 78.304 712.974 77.126 714.628 74.77C716.281 72.414 717.108 68.5907 717.108 63.3C717.108 61.192 716.922 59.2287 716.55 57.41C716.219 55.5913 715.682 54 714.938 52.636C714.194 51.272 713.222 50.218 712.024 49.474C710.825 48.6887 709.358 48.296 707.622 48.296C704.604 48.296 702.269 49.5153 700.616 51.954C698.962 54.3513 698.136 58.1333 698.136 63.3ZM744.066 67.082L745.182 74.46H745.492L746.732 67.02L755.04 41.6H763.968L747.848 85.31H741.772L725.528 41.6H735.386L744.066 67.082ZM767.971 41.6H776.465V85H767.971V41.6ZM784.783 41.6C785.651 41.476 786.622 41.3727 787.697 41.29C788.813 41.2073 789.949 41.1453 791.107 41.104C792.264 41.0627 793.38 41.042 794.455 41.042C795.571 41.0007 796.563 40.98 797.43 40.98C801.275 40.98 804.561 41.5173 807.289 42.592C810.017 43.6667 812.228 45.1753 813.923 47.118C815.617 49.0607 816.857 51.3753 817.643 54.062C818.428 56.7487 818.821 59.704 818.821 62.928C818.821 65.8627 818.449 68.694 817.705 71.422C816.961 74.15 815.721 76.568 813.985 78.676C812.249 80.784 809.955 82.4787 807.103 83.76C804.292 85.0413 800.799 85.682 796.625 85.682C795.963 85.682 795.075 85.6613 793.959 85.62C792.884 85.5787 791.747 85.5167 790.549 85.434C789.391 85.3927 788.275 85.3307 787.201 85.248C786.126 85.2067 785.32 85.1447 784.783 85.062V41.6ZM798.113 48.544C797.203 48.544 796.273 48.5647 795.323 48.606C794.413 48.6473 793.731 48.7093 793.277 48.792V77.87C793.442 77.9113 793.711 77.9527 794.083 77.994C794.496 77.994 794.93 78.0147 795.385 78.056C795.839 78.056 796.273 78.0767 796.687 78.118C797.1 78.118 797.41 78.118 797.617 78.118C800.014 78.118 801.998 77.7047 803.569 76.878C805.181 76.01 806.441 74.8733 807.351 73.468C808.301 72.0627 808.963 70.4507 809.335 68.632C809.707 66.772 809.893 64.8707 809.893 62.928C809.893 61.2333 809.727 59.5387 809.397 57.844C809.066 56.108 808.446 54.558 807.537 53.194C806.669 51.83 805.47 50.714 803.941 49.846C802.411 48.978 800.469 48.544 798.113 48.544ZM824.553 63.61H840.115V70.74H824.553V63.61ZM849.809 78.18H858.427V53.69L859.357 49.474L856.381 53.132L850.863 56.914L847.453 52.264L861.589 40.856H866.115V78.18H874.547V85H849.809V78.18ZM881.515 55.178C881.515 53.07 881.825 51.1273 882.445 49.35C883.106 47.5727 884.036 46.064 885.235 44.824C886.475 43.5427 887.963 42.5507 889.699 41.848C891.476 41.104 893.501 40.732 895.775 40.732C900.445 40.732 904.103 42.1373 906.749 44.948C909.435 47.7173 910.779 51.768 910.779 57.1C910.779 61.8947 910.159 66.0487 908.919 69.562C907.72 73.034 906.087 75.948 904.021 78.304C901.995 80.6187 899.639 82.396 896.953 83.636C894.266 84.876 891.435 85.62 888.459 85.868L886.723 79.544C888.996 79.2547 891.021 78.6967 892.799 77.87C894.576 77.0433 896.105 76.0307 897.387 74.832C898.668 73.592 899.701 72.2073 900.487 70.678C901.313 69.1073 901.892 67.4333 902.223 65.656C901.231 66.7307 900.156 67.4747 898.999 67.888C897.883 68.3013 896.374 68.508 894.473 68.508C892.902 68.508 891.331 68.2393 889.761 67.702C888.231 67.1647 886.847 66.3587 885.607 65.284C884.408 64.168 883.416 62.7833 882.631 61.13C881.887 59.4353 881.515 57.4513 881.515 55.178ZM889.327 54.744C889.327 57.1 889.988 58.8773 891.311 60.076C892.633 61.2747 894.287 61.874 896.271 61.874C897.965 61.874 899.35 61.6053 900.425 61.068C901.499 60.5307 902.326 59.8693 902.905 59.084C903.029 58.216 903.091 57.3893 903.091 56.604C903.091 55.4467 902.946 54.31 902.657 53.194C902.367 52.078 901.913 51.086 901.293 50.218C900.714 49.35 899.949 48.668 898.999 48.172C898.089 47.6347 896.994 47.366 895.713 47.366C893.687 47.366 892.117 48.0273 891.001 49.35C889.885 50.6313 889.327 52.4293 889.327 54.744ZM933.118 54H939.008L939.938 57.72H940.186C941.261 56.1493 942.521 54.992 943.968 54.248C945.456 53.504 947.254 53.132 949.362 53.132C953.247 53.132 956.161 54.372 958.104 56.852C960.047 59.2907 961.018 63.238 961.018 68.694C961.018 71.3393 960.708 73.7367 960.088 75.886C959.468 77.994 958.538 79.792 957.298 81.28C956.099 82.768 954.611 83.9047 952.834 84.69C951.098 85.4753 949.093 85.868 946.82 85.868C945.539 85.868 944.485 85.7647 943.658 85.558C942.831 85.3927 942.005 85.1033 941.178 84.69V97.4H933.118V54ZM946.944 59.952C945.373 59.952 944.133 60.3447 943.224 61.13C942.356 61.9153 941.674 63.0933 941.178 64.664V77.56C941.757 78.0147 942.377 78.3867 943.038 78.676C943.741 78.924 944.65 79.048 945.766 79.048C948.081 79.048 949.817 78.242 950.974 76.63C952.131 74.9767 952.71 72.2693 952.71 68.508C952.71 65.78 952.255 63.672 951.346 62.184C950.437 60.696 948.969 59.952 946.944 59.952ZM966.414 55.798C968.068 55.054 970.031 54.4753 972.304 54.062C974.578 53.6073 976.954 53.38 979.434 53.38C981.584 53.38 983.382 53.6487 984.828 54.186C986.275 54.682 987.412 55.4053 988.238 56.356C989.106 57.3067 989.706 58.4433 990.036 59.766C990.408 61.0887 990.594 62.5767 990.594 64.23C990.594 66.0487 990.532 67.888 990.408 69.748C990.284 71.5667 990.202 73.3647 990.16 75.142C990.16 76.9193 990.222 78.6553 990.346 80.35C990.47 82.0033 990.78 83.574 991.276 85.062H984.704L983.402 80.784H983.092C982.266 82.0653 981.108 83.1813 979.62 84.132C978.174 85.0413 976.293 85.496 973.978 85.496C972.532 85.496 971.23 85.2893 970.072 84.876C968.915 84.4213 967.923 83.8013 967.096 83.016C966.27 82.1893 965.629 81.2387 965.174 80.164C964.72 79.048 964.492 77.808 964.492 76.444C964.492 74.5427 964.906 72.9513 965.732 71.67C966.6 70.3473 967.82 69.2933 969.39 68.508C971.002 67.6813 972.904 67.1233 975.094 66.834C977.326 66.5033 979.806 66.4 982.534 66.524C982.824 64.2093 982.658 62.556 982.038 61.564C981.418 60.5307 980.034 60.014 977.884 60.014C976.272 60.014 974.557 60.1793 972.738 60.51C970.961 60.8407 969.494 61.2747 968.336 61.812L966.414 55.798ZM976.644 78.862C978.256 78.862 979.538 78.5107 980.488 77.808C981.439 77.064 982.142 76.2787 982.596 75.452V71.422C981.315 71.298 980.075 71.2773 978.876 71.36C977.719 71.4427 976.686 71.6287 975.776 71.918C974.867 72.2073 974.144 72.6207 973.606 73.158C973.069 73.6953 972.8 74.3773 972.8 75.204C972.8 76.3613 973.131 77.2707 973.792 77.932C974.495 78.552 975.446 78.862 976.644 78.862ZM1016.33 85V67.392C1016.33 64.8707 1015.96 63.052 1015.21 61.936C1014.51 60.82 1013.29 60.262 1011.56 60.262C1010.03 60.262 1008.72 60.7167 1007.65 61.626C1006.62 62.494 1005.87 63.5893 1005.42 64.912V85H997.358V54H1003.74L1004.67 58.092H1004.92C1005.87 56.7693 1007.13 55.612 1008.7 54.62C1010.27 53.628 1012.3 53.132 1014.78 53.132C1016.31 53.132 1017.67 53.3387 1018.87 53.752C1020.07 54.1653 1021.08 54.8473 1021.91 55.798C1022.74 56.7487 1023.36 58.0507 1023.77 59.704C1024.18 61.316 1024.39 63.3207 1024.39 65.718V85H1016.33ZM1057.49 74.088C1057.49 75.824 1057.51 77.56 1057.56 79.296C1057.6 81.032 1057.78 82.954 1058.11 85.062H1052.35L1051.23 81.032H1050.98C1050.16 82.4787 1048.96 83.6567 1047.39 84.566C1045.86 85.434 1044.04 85.868 1041.93 85.868C1038.05 85.868 1035.03 84.5867 1032.88 82.024C1030.73 79.4613 1029.66 75.452 1029.66 69.996C1029.66 64.7053 1030.85 60.5927 1033.25 57.658C1035.65 54.7233 1039.16 53.256 1043.79 53.256C1045.07 53.256 1046.13 53.3387 1046.95 53.504C1047.78 53.628 1048.61 53.8553 1049.43 54.186V41.6H1057.49V74.088ZM1043.79 79.048C1045.36 79.048 1046.6 78.676 1047.51 77.932C1048.42 77.1467 1049.06 76.0307 1049.43 74.584V61.44C1048.85 60.9853 1048.21 60.6547 1047.51 60.448C1046.81 60.2 1045.9 60.076 1044.78 60.076C1042.51 60.076 1040.79 60.8407 1039.64 62.37C1038.52 63.8993 1037.96 66.524 1037.96 70.244C1037.96 72.8893 1038.42 75.018 1039.33 76.63C1040.28 78.242 1041.77 79.048 1043.79 79.048ZM1089.37 82.334C1088.13 83.326 1086.43 84.1733 1084.28 84.876C1082.17 85.5373 1079.92 85.868 1077.52 85.868C1072.52 85.868 1068.86 84.4213 1066.55 81.528C1064.23 78.5933 1063.08 74.584 1063.08 69.5C1063.08 64.044 1064.38 59.952 1066.98 57.224C1069.59 54.496 1073.25 53.132 1077.96 53.132C1079.53 53.132 1081.06 53.3387 1082.55 53.752C1084.03 54.1653 1085.36 54.8473 1086.51 55.798C1087.67 56.7487 1088.6 58.03 1089.3 59.642C1090.01 61.254 1090.36 63.2587 1090.36 65.656C1090.36 66.524 1090.3 67.454 1090.17 68.446C1090.09 69.438 1089.94 70.4713 1089.74 71.546H1071.14C1071.26 74.15 1071.92 76.1133 1073.12 77.436C1074.36 78.7587 1076.35 79.42 1079.07 79.42C1080.77 79.42 1082.28 79.172 1083.6 78.676C1084.96 78.1387 1086 77.6013 1086.7 77.064L1089.37 82.334ZM1077.83 59.58C1075.73 59.58 1074.15 60.2207 1073.12 61.502C1072.13 62.742 1071.53 64.416 1071.32 66.524H1082.86C1083.02 64.292 1082.67 62.5767 1081.8 61.378C1080.97 60.1793 1079.65 59.58 1077.83 59.58ZM1113.66 85V68.136C1113.66 65.284 1113.39 63.2587 1112.85 62.06C1112.31 60.8613 1111.2 60.262 1109.5 60.262C1108.1 60.262 1106.96 60.6547 1106.09 61.44C1105.23 62.184 1104.56 63.1553 1104.11 64.354V85H1096.05V54H1102.31L1103.24 58.092H1103.49C1104.44 56.7693 1105.64 55.612 1107.09 54.62C1108.57 53.628 1110.47 53.132 1112.79 53.132C1114.77 53.132 1116.39 53.5453 1117.63 54.372C1118.91 55.1573 1119.9 56.5007 1120.6 58.402C1121.55 56.79 1122.77 55.5087 1124.26 54.558C1125.75 53.6073 1127.55 53.132 1129.65 53.132C1131.39 53.132 1132.86 53.3387 1134.06 53.752C1135.3 54.1653 1136.29 54.8887 1137.03 55.922C1137.82 56.914 1138.4 58.2573 1138.77 59.952C1139.14 61.6467 1139.33 63.796 1139.33 66.4V85H1131.27V67.578C1131.27 65.1393 1131 63.3207 1130.46 62.122C1129.96 60.882 1128.83 60.262 1127.05 60.262C1125.6 60.262 1124.45 60.6547 1123.58 61.44C1122.75 62.2253 1122.13 63.3 1121.72 64.664V85H1113.66ZM1146.68 54H1154.74V85H1146.68V54ZM1145.51 45.258C1145.51 44.0593 1145.94 43.0467 1146.81 42.22C1147.72 41.352 1148.96 40.918 1150.53 40.918C1152.1 40.918 1153.36 41.352 1154.31 42.22C1155.3 43.0467 1155.8 44.0593 1155.8 45.258C1155.8 46.4567 1155.3 47.4693 1154.31 48.296C1153.36 49.0813 1152.1 49.474 1150.53 49.474C1148.96 49.474 1147.72 49.0813 1146.81 48.296C1145.94 47.4693 1145.51 46.4567 1145.51 45.258ZM1184.54 83.078C1183.3 83.9873 1181.79 84.6693 1180.01 85.124C1178.28 85.62 1176.48 85.868 1174.62 85.868C1172.14 85.868 1170.03 85.4753 1168.29 84.69C1166.6 83.9047 1165.22 82.8093 1164.14 81.404C1163.07 79.9573 1162.28 78.2213 1161.78 76.196C1161.33 74.1707 1161.1 71.9387 1161.1 69.5C1161.1 64.2507 1162.28 60.2207 1164.64 57.41C1166.99 54.558 1170.42 53.132 1174.93 53.132C1177.2 53.132 1179.02 53.318 1180.38 53.69C1181.79 54.062 1183.05 54.5373 1184.17 55.116L1182.24 61.688C1181.29 61.2333 1180.34 60.882 1179.39 60.634C1178.48 60.386 1177.43 60.262 1176.23 60.262C1174 60.262 1172.3 61.006 1171.15 62.494C1169.99 63.9407 1169.41 66.276 1169.41 69.5C1169.41 70.8227 1169.56 72.042 1169.84 73.158C1170.13 74.274 1170.57 75.2453 1171.15 76.072C1171.73 76.8987 1172.47 77.56 1173.38 78.056C1174.33 78.5107 1175.42 78.738 1176.66 78.738C1178.03 78.738 1179.19 78.5727 1180.14 78.242C1181.09 77.87 1181.93 77.436 1182.68 76.94L1184.54 83.078Z" fill="black"/>
<path d="M445.72 155.6C446.588 155.476 447.559 155.373 448.634 155.29C449.75 155.207 450.887 155.145 452.044 155.104C453.201 155.063 454.317 155.042 455.392 155.042C456.508 155.001 457.5 154.98 458.368 154.98C462.212 154.98 465.498 155.517 468.226 156.592C470.954 157.667 473.165 159.175 474.86 161.118C476.555 163.061 477.795 165.375 478.58 168.062C479.365 170.749 479.758 173.704 479.758 176.928C479.758 179.863 479.386 182.694 478.642 185.422C477.898 188.15 476.658 190.568 474.922 192.676C473.186 194.784 470.892 196.479 468.04 197.76C465.229 199.041 461.737 199.682 457.562 199.682C456.901 199.682 456.012 199.661 454.896 199.62C453.821 199.579 452.685 199.517 451.486 199.434C450.329 199.393 449.213 199.331 448.138 199.248C447.063 199.207 446.257 199.145 445.72 199.062V155.6ZM459.05 162.544C458.141 162.544 457.211 162.565 456.26 162.606C455.351 162.647 454.669 162.709 454.214 162.792V191.87C454.379 191.911 454.648 191.953 455.02 191.994C455.433 191.994 455.867 192.015 456.322 192.056C456.777 192.056 457.211 192.077 457.624 192.118C458.037 192.118 458.347 192.118 458.554 192.118C460.951 192.118 462.935 191.705 464.506 190.878C466.118 190.01 467.379 188.873 468.288 187.468C469.239 186.063 469.9 184.451 470.272 182.632C470.644 180.772 470.83 178.871 470.83 176.928C470.83 175.233 470.665 173.539 470.334 171.844C470.003 170.108 469.383 168.558 468.474 167.194C467.606 165.83 466.407 164.714 464.878 163.846C463.349 162.978 461.406 162.544 459.05 162.544ZM493.427 168V185.608C493.427 188.129 493.716 189.948 494.295 191.064C494.915 192.18 496.093 192.738 497.829 192.738C499.358 192.738 500.619 192.283 501.611 191.374C502.644 190.465 503.409 189.349 503.905 188.026V168H511.965V189.576C511.965 191.271 512.047 192.945 512.213 194.598C512.378 196.21 512.626 197.677 512.957 199H506.881L505.455 194.412H505.207C504.256 195.983 502.933 197.285 501.239 198.318C499.544 199.351 497.539 199.868 495.225 199.868C493.654 199.868 492.249 199.661 491.009 199.248C489.769 198.835 488.735 198.153 487.909 197.202C487.082 196.251 486.441 194.97 485.987 193.358C485.573 191.746 485.367 189.721 485.367 187.282V168H493.427ZM536.15 175.564C534.869 175.109 533.711 174.882 532.678 174.882C531.231 174.882 530.012 175.275 529.02 176.06C528.069 176.804 527.429 177.775 527.098 178.974V199H519.038V168H525.3L526.23 172.092H526.478C527.181 170.563 528.131 169.385 529.33 168.558C530.529 167.731 531.934 167.318 533.546 167.318C534.621 167.318 535.84 167.545 537.204 168L536.15 175.564ZM541.518 168H549.578V199H541.518V168ZM540.34 159.258C540.34 158.059 540.774 157.047 541.642 156.22C542.552 155.352 543.792 154.918 545.362 154.918C546.933 154.918 548.194 155.352 549.144 156.22C550.136 157.047 550.632 158.059 550.632 159.258C550.632 160.457 550.136 161.469 549.144 162.296C548.194 163.081 546.933 163.474 545.362 163.474C543.792 163.474 542.552 163.081 541.642 162.296C540.774 161.469 540.34 160.457 540.34 159.258ZM576.397 199V181.392C576.397 178.871 576.025 177.052 575.281 175.936C574.578 174.82 573.359 174.262 571.623 174.262C570.093 174.262 568.791 174.717 567.717 175.626C566.683 176.494 565.939 177.589 565.485 178.912V199H557.425V168H563.811L564.741 172.092H564.989C565.939 170.769 567.2 169.612 568.771 168.62C570.341 167.628 572.367 167.132 574.847 167.132C576.376 167.132 577.74 167.339 578.939 167.752C580.137 168.165 581.15 168.847 581.977 169.798C582.803 170.749 583.423 172.051 583.837 173.704C584.25 175.316 584.457 177.321 584.457 179.718V199H576.397ZM617.436 199C617.436 203.505 616.216 206.812 613.778 208.92C611.339 211.069 607.929 212.144 603.548 212.144C600.572 212.144 598.216 211.937 596.48 211.524C594.785 211.111 593.504 210.677 592.636 210.222L594.31 203.836C595.26 204.208 596.356 204.58 597.596 204.952C598.877 205.324 600.448 205.51 602.308 205.51C605.118 205.51 607.02 204.89 608.012 203.65C609.045 202.451 609.562 200.757 609.562 198.566V196.582H609.314C607.867 198.525 605.304 199.496 601.626 199.496C597.616 199.496 594.62 198.256 592.636 195.776C590.693 193.296 589.722 189.411 589.722 184.12C589.722 178.581 591.044 174.386 593.69 171.534C596.335 168.682 600.179 167.256 605.222 167.256C607.867 167.256 610.223 167.442 612.29 167.814C614.398 168.186 616.113 168.62 617.436 169.116V199ZM603.796 193.048C605.366 193.048 606.565 192.697 607.392 191.994C608.26 191.291 608.921 190.237 609.376 188.832V174.882C608.094 174.345 606.503 174.076 604.602 174.076C602.535 174.076 600.923 174.861 599.766 176.432C598.608 177.961 598.03 180.421 598.03 183.81C598.03 186.827 598.526 189.121 599.518 190.692C600.51 192.263 601.936 193.048 603.796 193.048ZM668.919 197.202C667.596 198.153 665.901 198.835 663.835 199.248C661.809 199.661 659.722 199.868 657.573 199.868C654.969 199.868 652.489 199.475 650.133 198.69C647.818 197.863 645.772 196.561 643.995 194.784C642.217 192.965 640.791 190.63 639.717 187.778C638.683 184.885 638.167 181.392 638.167 177.3C638.167 173.043 638.745 169.488 639.903 166.636C641.101 163.743 642.631 161.428 644.491 159.692C646.392 157.915 648.5 156.654 650.815 155.91C653.129 155.125 655.444 154.732 657.759 154.732C660.239 154.732 662.326 154.897 664.021 155.228C665.757 155.559 667.183 155.951 668.299 156.406L666.625 163.598C665.674 163.143 664.537 162.813 663.215 162.606C661.933 162.399 660.363 162.296 658.503 162.296C655.072 162.296 652.303 163.515 650.195 165.954C648.128 168.393 647.095 172.175 647.095 177.3C647.095 179.532 647.343 181.578 647.839 183.438C648.335 185.257 649.079 186.827 650.071 188.15C651.104 189.431 652.365 190.444 653.853 191.188C655.382 191.891 657.139 192.242 659.123 192.242C660.983 192.242 662.553 192.056 663.835 191.684C665.116 191.312 666.232 190.837 667.183 190.258L668.919 197.202ZM670.741 177.3C670.741 170.067 672.332 164.507 675.515 160.622C678.697 156.695 683.244 154.732 689.155 154.732C692.255 154.732 694.962 155.269 697.277 156.344C699.591 157.419 701.513 158.948 703.043 160.932C704.572 162.916 705.709 165.293 706.453 168.062C707.197 170.831 707.569 173.911 707.569 177.3C707.569 184.533 705.957 190.113 702.733 194.04C699.55 197.925 695.024 199.868 689.155 199.868C686.013 199.868 683.285 199.331 680.971 198.256C678.656 197.181 676.734 195.652 675.205 193.668C673.717 191.684 672.601 189.307 671.857 186.538C671.113 183.769 670.741 180.689 670.741 177.3ZM679.669 177.3C679.669 179.491 679.855 181.516 680.227 183.376C680.599 185.195 681.157 186.765 681.901 188.088C682.686 189.411 683.678 190.444 684.877 191.188C686.075 191.932 687.501 192.304 689.155 192.304C692.172 192.304 694.507 191.126 696.161 188.77C697.814 186.414 698.641 182.591 698.641 177.3C698.641 175.192 698.455 173.229 698.083 171.41C697.752 169.591 697.215 168 696.471 166.636C695.727 165.272 694.755 164.218 693.557 163.474C692.358 162.689 690.891 162.296 689.155 162.296C686.137 162.296 683.802 163.515 682.149 165.954C680.495 168.351 679.669 172.133 679.669 177.3ZM725.599 181.082L726.715 188.46H727.025L728.265 181.02L736.573 155.6H745.501L729.381 199.31H723.305L707.061 155.6H716.919L725.599 181.082ZM749.504 155.6H757.998V199H749.504V155.6ZM766.316 155.6C767.184 155.476 768.155 155.373 769.23 155.29C770.346 155.207 771.482 155.145 772.64 155.104C773.797 155.063 774.913 155.042 775.988 155.042C777.104 155.001 778.096 154.98 778.964 154.98C782.808 154.98 786.094 155.517 788.822 156.592C791.55 157.667 793.761 159.175 795.456 161.118C797.15 163.061 798.39 165.375 799.176 168.062C799.961 170.749 800.354 173.704 800.354 176.928C800.354 179.863 799.982 182.694 799.238 185.422C798.494 188.15 797.254 190.568 795.518 192.676C793.782 194.784 791.488 196.479 788.636 197.76C785.825 199.041 782.332 199.682 778.158 199.682C777.496 199.682 776.608 199.661 775.492 199.62C774.417 199.579 773.28 199.517 772.082 199.434C770.924 199.393 769.808 199.331 768.734 199.248C767.659 199.207 766.853 199.145 766.316 199.062V155.6ZM779.646 162.544C778.736 162.544 777.806 162.565 776.856 162.606C775.946 162.647 775.264 162.709 774.81 162.792V191.87C774.975 191.911 775.244 191.953 775.616 191.994C776.029 191.994 776.463 192.015 776.918 192.056C777.372 192.056 777.806 192.077 778.22 192.118C778.633 192.118 778.943 192.118 779.15 192.118C781.547 192.118 783.531 191.705 785.102 190.878C786.714 190.01 787.974 188.873 788.884 187.468C789.834 186.063 790.496 184.451 790.868 182.632C791.24 180.772 791.426 178.871 791.426 176.928C791.426 175.233 791.26 173.539 790.93 171.844C790.599 170.108 789.979 168.558 789.07 167.194C788.202 165.83 787.003 164.714 785.474 163.846C783.944 162.978 782.002 162.544 779.646 162.544ZM806.086 177.61H821.648V184.74H806.086V177.61ZM831.342 192.18H839.96V167.69L840.89 163.474L837.914 167.132L832.396 170.914L828.986 166.264L843.122 154.856H847.648V192.18H856.08V199H831.342V192.18ZM863.048 169.178C863.048 167.07 863.358 165.127 863.978 163.35C864.639 161.573 865.569 160.064 866.768 158.824C868.008 157.543 869.496 156.551 871.232 155.848C873.009 155.104 875.034 154.732 877.308 154.732C881.978 154.732 885.636 156.137 888.282 158.948C890.968 161.717 892.312 165.768 892.312 171.1C892.312 175.895 891.692 180.049 890.452 183.562C889.253 187.034 887.62 189.948 885.554 192.304C883.528 194.619 881.172 196.396 878.486 197.636C875.799 198.876 872.968 199.62 869.992 199.868L868.256 193.544C870.529 193.255 872.554 192.697 874.332 191.87C876.109 191.043 877.638 190.031 878.92 188.832C880.201 187.592 881.234 186.207 882.02 184.678C882.846 183.107 883.425 181.433 883.756 179.656C882.764 180.731 881.689 181.475 880.532 181.888C879.416 182.301 877.907 182.508 876.006 182.508C874.435 182.508 872.864 182.239 871.294 181.702C869.764 181.165 868.38 180.359 867.14 179.284C865.941 178.168 864.949 176.783 864.164 175.13C863.42 173.435 863.048 171.451 863.048 169.178ZM870.86 168.744C870.86 171.1 871.521 172.877 872.844 174.076C874.166 175.275 875.82 175.874 877.804 175.874C879.498 175.874 880.883 175.605 881.958 175.068C883.032 174.531 883.859 173.869 884.438 173.084C884.562 172.216 884.624 171.389 884.624 170.604C884.624 169.447 884.479 168.31 884.19 167.194C883.9 166.078 883.446 165.086 882.826 164.218C882.247 163.35 881.482 162.668 880.532 162.172C879.622 161.635 878.527 161.366 877.246 161.366C875.22 161.366 873.65 162.027 872.534 163.35C871.418 164.631 870.86 166.429 870.86 168.744ZM914.651 168H920.541L921.471 171.72H921.719C922.794 170.149 924.055 168.992 925.501 168.248C926.989 167.504 928.787 167.132 930.895 167.132C934.781 167.132 937.695 168.372 939.637 170.852C941.58 173.291 942.551 177.238 942.551 182.694C942.551 185.339 942.241 187.737 941.621 189.886C941.001 191.994 940.071 193.792 938.831 195.28C937.633 196.768 936.145 197.905 934.367 198.69C932.631 199.475 930.627 199.868 928.353 199.868C927.072 199.868 926.018 199.765 925.191 199.558C924.365 199.393 923.538 199.103 922.711 198.69V211.4H914.651V168ZM928.477 173.952C926.907 173.952 925.667 174.345 924.757 175.13C923.889 175.915 923.207 177.093 922.711 178.664V191.56C923.29 192.015 923.91 192.387 924.571 192.676C925.274 192.924 926.183 193.048 927.299 193.048C929.614 193.048 931.35 192.242 932.507 190.63C933.665 188.977 934.243 186.269 934.243 182.508C934.243 179.78 933.789 177.672 932.879 176.184C931.97 174.696 930.503 173.952 928.477 173.952ZM947.948 169.798C949.601 169.054 951.564 168.475 953.838 168.062C956.111 167.607 958.488 167.38 960.968 167.38C963.117 167.38 964.915 167.649 966.362 168.186C967.808 168.682 968.945 169.405 969.772 170.356C970.64 171.307 971.239 172.443 971.57 173.766C971.942 175.089 972.128 176.577 972.128 178.23C972.128 180.049 972.066 181.888 971.942 183.748C971.818 185.567 971.735 187.365 971.694 189.142C971.694 190.919 971.756 192.655 971.88 194.35C972.004 196.003 972.314 197.574 972.81 199.062H966.238L964.936 194.784H964.626C963.799 196.065 962.642 197.181 961.154 198.132C959.707 199.041 957.826 199.496 955.512 199.496C954.065 199.496 952.763 199.289 951.606 198.876C950.448 198.421 949.456 197.801 948.63 197.016C947.803 196.189 947.162 195.239 946.708 194.164C946.253 193.048 946.026 191.808 946.026 190.444C946.026 188.543 946.439 186.951 947.266 185.67C948.134 184.347 949.353 183.293 950.924 182.508C952.536 181.681 954.437 181.123 956.628 180.834C958.86 180.503 961.34 180.4 964.068 180.524C964.357 178.209 964.192 176.556 963.572 175.564C962.952 174.531 961.567 174.014 959.418 174.014C957.806 174.014 956.09 174.179 954.272 174.51C952.494 174.841 951.027 175.275 949.87 175.812L947.948 169.798ZM958.178 192.862C959.79 192.862 961.071 192.511 962.022 191.808C962.972 191.064 963.675 190.279 964.13 189.452V185.422C962.848 185.298 961.608 185.277 960.41 185.36C959.252 185.443 958.219 185.629 957.31 185.918C956.4 186.207 955.677 186.621 955.14 187.158C954.602 187.695 954.334 188.377 954.334 189.204C954.334 190.361 954.664 191.271 955.326 191.932C956.028 192.552 956.979 192.862 958.178 192.862ZM997.863 199V181.392C997.863 178.871 997.491 177.052 996.747 175.936C996.045 174.82 994.825 174.262 993.089 174.262C991.56 174.262 990.258 174.717 989.183 175.626C988.15 176.494 987.406 177.589 986.951 178.912V199H978.891V168H985.277L986.207 172.092H986.455C987.406 170.769 988.667 169.612 990.237 168.62C991.808 167.628 993.833 167.132 996.313 167.132C997.843 167.132 999.207 167.339 1000.41 167.752C1001.6 168.165 1002.62 168.847 1003.44 169.798C1004.27 170.749 1004.89 172.051 1005.3 173.704C1005.72 175.316 1005.92 177.321 1005.92 179.718V199H997.863ZM1039.03 188.088C1039.03 189.824 1039.05 191.56 1039.09 193.296C1039.13 195.032 1039.32 196.954 1039.65 199.062H1033.88L1032.76 195.032H1032.52C1031.69 196.479 1030.49 197.657 1028.92 198.566C1027.39 199.434 1025.57 199.868 1023.46 199.868C1019.58 199.868 1016.56 198.587 1014.41 196.024C1012.26 193.461 1011.19 189.452 1011.19 183.996C1011.19 178.705 1012.39 174.593 1014.78 171.658C1017.18 168.723 1020.7 167.256 1025.32 167.256C1026.61 167.256 1027.66 167.339 1028.49 167.504C1029.31 167.628 1030.14 167.855 1030.97 168.186V155.6H1039.03V188.088ZM1025.32 193.048C1026.9 193.048 1028.14 192.676 1029.04 191.932C1029.95 191.147 1030.59 190.031 1030.97 188.584V175.44C1030.39 174.985 1029.75 174.655 1029.04 174.448C1028.34 174.2 1027.43 174.076 1026.32 174.076C1024.04 174.076 1022.33 174.841 1021.17 176.37C1020.05 177.899 1019.5 180.524 1019.5 184.244C1019.5 186.889 1019.95 189.018 1020.86 190.63C1021.81 192.242 1023.3 193.048 1025.32 193.048ZM1070.9 196.334C1069.66 197.326 1067.96 198.173 1065.81 198.876C1063.71 199.537 1061.45 199.868 1059.06 199.868C1054.06 199.868 1050.4 198.421 1048.08 195.528C1045.77 192.593 1044.61 188.584 1044.61 183.5C1044.61 178.044 1045.91 173.952 1048.52 171.224C1051.12 168.496 1054.78 167.132 1059.49 167.132C1061.06 167.132 1062.59 167.339 1064.08 167.752C1065.57 168.165 1066.89 168.847 1068.05 169.798C1069.2 170.749 1070.13 172.03 1070.84 173.642C1071.54 175.254 1071.89 177.259 1071.89 179.656C1071.89 180.524 1071.83 181.454 1071.7 182.446C1071.62 183.438 1071.48 184.471 1071.27 185.546H1052.67C1052.79 188.15 1053.46 190.113 1054.65 191.436C1055.89 192.759 1057.88 193.42 1060.61 193.42C1062.3 193.42 1063.81 193.172 1065.13 192.676C1066.5 192.139 1067.53 191.601 1068.23 191.064L1070.9 196.334ZM1059.37 173.58C1057.26 173.58 1055.69 174.221 1054.65 175.502C1053.66 176.742 1053.06 178.416 1052.86 180.524H1064.39C1064.55 178.292 1064.2 176.577 1063.33 175.378C1062.51 174.179 1061.19 173.58 1059.37 173.58ZM1095.19 199V182.136C1095.19 179.284 1094.92 177.259 1094.38 176.06C1093.85 174.861 1092.73 174.262 1091.04 174.262C1089.63 174.262 1088.49 174.655 1087.63 175.44C1086.76 176.184 1086.1 177.155 1085.64 178.354V199H1077.58V168H1083.84L1084.77 172.092H1085.02C1085.97 170.769 1087.17 169.612 1088.62 168.62C1090.11 167.628 1092.01 167.132 1094.32 167.132C1096.31 167.132 1097.92 167.545 1099.16 168.372C1100.44 169.157 1101.43 170.501 1102.13 172.402C1103.09 170.79 1104.3 169.509 1105.79 168.558C1107.28 167.607 1109.08 167.132 1111.19 167.132C1112.92 167.132 1114.39 167.339 1115.59 167.752C1116.83 168.165 1117.82 168.889 1118.56 169.922C1119.35 170.914 1119.93 172.257 1120.3 173.952C1120.67 175.647 1120.86 177.796 1120.86 180.4V199H1112.8V181.578C1112.8 179.139 1112.53 177.321 1111.99 176.122C1111.5 174.882 1110.36 174.262 1108.58 174.262C1107.14 174.262 1105.98 174.655 1105.11 175.44C1104.28 176.225 1103.66 177.3 1103.25 178.664V199H1095.19ZM1128.22 168H1136.28V199H1128.22V168ZM1127.04 159.258C1127.04 158.059 1127.47 157.047 1128.34 156.22C1129.25 155.352 1130.49 154.918 1132.06 154.918C1133.63 154.918 1134.89 155.352 1135.84 156.22C1136.84 157.047 1137.33 158.059 1137.33 159.258C1137.33 160.457 1136.84 161.469 1135.84 162.296C1134.89 163.081 1133.63 163.474 1132.06 163.474C1130.49 163.474 1129.25 163.081 1128.34 162.296C1127.47 161.469 1127.04 160.457 1127.04 159.258ZM1166.07 197.078C1164.83 197.987 1163.32 198.669 1161.55 199.124C1159.81 199.62 1158.01 199.868 1156.15 199.868C1153.67 199.868 1151.56 199.475 1149.83 198.69C1148.13 197.905 1146.75 196.809 1145.67 195.404C1144.6 193.957 1143.81 192.221 1143.32 190.196C1142.86 188.171 1142.64 185.939 1142.64 183.5C1142.64 178.251 1143.81 174.221 1146.17 171.41C1148.53 168.558 1151.96 167.132 1156.46 167.132C1158.74 167.132 1160.55 167.318 1161.92 167.69C1163.32 168.062 1164.58 168.537 1165.7 169.116L1163.78 175.688C1162.83 175.233 1161.88 174.882 1160.93 174.634C1160.02 174.386 1158.96 174.262 1157.76 174.262C1155.53 174.262 1153.84 175.006 1152.68 176.494C1151.52 177.941 1150.94 180.276 1150.94 183.5C1150.94 184.823 1151.09 186.042 1151.38 187.158C1151.67 188.274 1152.1 189.245 1152.68 190.072C1153.26 190.899 1154 191.56 1154.91 192.056C1155.86 192.511 1156.96 192.738 1158.2 192.738C1159.56 192.738 1160.72 192.573 1161.67 192.242C1162.62 191.87 1163.47 191.436 1164.21 190.94L1166.07 197.078Z" fill="black"/>
<path d="M445.72 267.6C446.588 267.476 447.559 267.373 448.634 267.29C449.75 267.207 450.887 267.145 452.044 267.104C453.201 267.063 454.317 267.042 455.392 267.042C456.508 267.001 457.5 266.98 458.368 266.98C462.212 266.98 465.498 267.517 468.226 268.592C470.954 269.667 473.165 271.175 474.86 273.118C476.555 275.061 477.795 277.375 478.58 280.062C479.365 282.749 479.758 285.704 479.758 288.928C479.758 291.863 479.386 294.694 478.642 297.422C477.898 300.15 476.658 302.568 474.922 304.676C473.186 306.784 470.892 308.479 468.04 309.76C465.229 311.041 461.737 311.682 457.562 311.682C456.901 311.682 456.012 311.661 454.896 311.62C453.821 311.579 452.685 311.517 451.486 311.434C450.329 311.393 449.213 311.331 448.138 311.248C447.063 311.207 446.257 311.145 445.72 311.062V267.6ZM459.05 274.544C458.141 274.544 457.211 274.565 456.26 274.606C455.351 274.647 454.669 274.709 454.214 274.792V303.87C454.379 303.911 454.648 303.953 455.02 303.994C455.433 303.994 455.867 304.015 456.322 304.056C456.777 304.056 457.211 304.077 457.624 304.118C458.037 304.118 458.347 304.118 458.554 304.118C460.951 304.118 462.935 303.705 464.506 302.878C466.118 302.01 467.379 300.873 468.288 299.468C469.239 298.063 469.9 296.451 470.272 294.632C470.644 292.772 470.83 290.871 470.83 288.928C470.83 287.233 470.665 285.539 470.334 283.844C470.003 282.108 469.383 280.558 468.474 279.194C467.606 277.83 466.407 276.714 464.878 275.846C463.349 274.978 461.406 274.544 459.05 274.544ZM493.427 280V297.608C493.427 300.129 493.716 301.948 494.295 303.064C494.915 304.18 496.093 304.738 497.829 304.738C499.358 304.738 500.619 304.283 501.611 303.374C502.644 302.465 503.409 301.349 503.905 300.026V280H511.965V301.576C511.965 303.271 512.047 304.945 512.213 306.598C512.378 308.21 512.626 309.677 512.957 311H506.881L505.455 306.412H505.207C504.256 307.983 502.933 309.285 501.239 310.318C499.544 311.351 497.539 311.868 495.225 311.868C493.654 311.868 492.249 311.661 491.009 311.248C489.769 310.835 488.735 310.153 487.909 309.202C487.082 308.251 486.441 306.97 485.987 305.358C485.573 303.746 485.367 301.721 485.367 299.282V280H493.427ZM536.15 287.564C534.869 287.109 533.711 286.882 532.678 286.882C531.231 286.882 530.012 287.275 529.02 288.06C528.069 288.804 527.429 289.775 527.098 290.974V311H519.038V280H525.3L526.23 284.092H526.478C527.181 282.563 528.131 281.385 529.33 280.558C530.529 279.731 531.934 279.318 533.546 279.318C534.621 279.318 535.84 279.545 537.204 280L536.15 287.564ZM541.518 280H549.578V311H541.518V280ZM540.34 271.258C540.34 270.059 540.774 269.047 541.642 268.22C542.552 267.352 543.792 266.918 545.362 266.918C546.933 266.918 548.194 267.352 549.144 268.22C550.136 269.047 550.632 270.059 550.632 271.258C550.632 272.457 550.136 273.469 549.144 274.296C548.194 275.081 546.933 275.474 545.362 275.474C543.792 275.474 542.552 275.081 541.642 274.296C540.774 273.469 540.34 272.457 540.34 271.258ZM576.397 311V293.392C576.397 290.871 576.025 289.052 575.281 287.936C574.578 286.82 573.359 286.262 571.623 286.262C570.093 286.262 568.791 286.717 567.717 287.626C566.683 288.494 565.939 289.589 565.485 290.912V311H557.425V280H563.811L564.741 284.092H564.989C565.939 282.769 567.2 281.612 568.771 280.62C570.341 279.628 572.367 279.132 574.847 279.132C576.376 279.132 577.74 279.339 578.939 279.752C580.137 280.165 581.15 280.847 581.977 281.798C582.803 282.749 583.423 284.051 583.837 285.704C584.25 287.316 584.457 289.321 584.457 291.718V311H576.397ZM617.436 311C617.436 315.505 616.216 318.812 613.778 320.92C611.339 323.069 607.929 324.144 603.548 324.144C600.572 324.144 598.216 323.937 596.48 323.524C594.785 323.111 593.504 322.677 592.636 322.222L594.31 315.836C595.26 316.208 596.356 316.58 597.596 316.952C598.877 317.324 600.448 317.51 602.308 317.51C605.118 317.51 607.02 316.89 608.012 315.65C609.045 314.451 609.562 312.757 609.562 310.566V308.582H609.314C607.867 310.525 605.304 311.496 601.626 311.496C597.616 311.496 594.62 310.256 592.636 307.776C590.693 305.296 589.722 301.411 589.722 296.12C589.722 290.581 591.044 286.386 593.69 283.534C596.335 280.682 600.179 279.256 605.222 279.256C607.867 279.256 610.223 279.442 612.29 279.814C614.398 280.186 616.113 280.62 617.436 281.116V311ZM603.796 305.048C605.366 305.048 606.565 304.697 607.392 303.994C608.26 303.291 608.921 302.237 609.376 300.832V286.882C608.094 286.345 606.503 286.076 604.602 286.076C602.535 286.076 600.923 286.861 599.766 288.432C598.608 289.961 598.03 292.421 598.03 295.81C598.03 298.827 598.526 301.121 599.518 302.692C600.51 304.263 601.936 305.048 603.796 305.048ZM668.919 309.202C667.596 310.153 665.901 310.835 663.835 311.248C661.809 311.661 659.722 311.868 657.573 311.868C654.969 311.868 652.489 311.475 650.133 310.69C647.818 309.863 645.772 308.561 643.995 306.784C642.217 304.965 640.791 302.63 639.717 299.778C638.683 296.885 638.167 293.392 638.167 289.3C638.167 285.043 638.745 281.488 639.903 278.636C641.101 275.743 642.631 273.428 644.491 271.692C646.392 269.915 648.5 268.654 650.815 267.91C653.129 267.125 655.444 266.732 657.759 266.732C660.239 266.732 662.326 266.897 664.021 267.228C665.757 267.559 667.183 267.951 668.299 268.406L666.625 275.598C665.674 275.143 664.537 274.813 663.215 274.606C661.933 274.399 660.363 274.296 658.503 274.296C655.072 274.296 652.303 275.515 650.195 277.954C648.128 280.393 647.095 284.175 647.095 289.3C647.095 291.532 647.343 293.578 647.839 295.438C648.335 297.257 649.079 298.827 650.071 300.15C651.104 301.431 652.365 302.444 653.853 303.188C655.382 303.891 657.139 304.242 659.123 304.242C660.983 304.242 662.553 304.056 663.835 303.684C665.116 303.312 666.232 302.837 667.183 302.258L668.919 309.202ZM670.741 289.3C670.741 282.067 672.332 276.507 675.515 272.622C678.697 268.695 683.244 266.732 689.155 266.732C692.255 266.732 694.962 267.269 697.277 268.344C699.591 269.419 701.513 270.948 703.043 272.932C704.572 274.916 705.709 277.293 706.453 280.062C707.197 282.831 707.569 285.911 707.569 289.3C707.569 296.533 705.957 302.113 702.733 306.04C699.55 309.925 695.024 311.868 689.155 311.868C686.013 311.868 683.285 311.331 680.971 310.256C678.656 309.181 676.734 307.652 675.205 305.668C673.717 303.684 672.601 301.307 671.857 298.538C671.113 295.769 670.741 292.689 670.741 289.3ZM679.669 289.3C679.669 291.491 679.855 293.516 680.227 295.376C680.599 297.195 681.157 298.765 681.901 300.088C682.686 301.411 683.678 302.444 684.877 303.188C686.075 303.932 687.501 304.304 689.155 304.304C692.172 304.304 694.507 303.126 696.161 300.77C697.814 298.414 698.641 294.591 698.641 289.3C698.641 287.192 698.455 285.229 698.083 283.41C697.752 281.591 697.215 280 696.471 278.636C695.727 277.272 694.755 276.218 693.557 275.474C692.358 274.689 690.891 274.296 689.155 274.296C686.137 274.296 683.802 275.515 682.149 277.954C680.495 280.351 679.669 284.133 679.669 289.3ZM725.599 293.082L726.715 300.46H727.025L728.265 293.02L736.573 267.6H745.501L729.381 311.31H723.305L707.061 267.6H716.919L725.599 293.082ZM749.504 267.6H757.998V311H749.504V267.6ZM766.316 267.6C767.184 267.476 768.155 267.373 769.23 267.29C770.346 267.207 771.482 267.145 772.64 267.104C773.797 267.063 774.913 267.042 775.988 267.042C777.104 267.001 778.096 266.98 778.964 266.98C782.808 266.98 786.094 267.517 788.822 268.592C791.55 269.667 793.761 271.175 795.456 273.118C797.15 275.061 798.39 277.375 799.176 280.062C799.961 282.749 800.354 285.704 800.354 288.928C800.354 291.863 799.982 294.694 799.238 297.422C798.494 300.15 797.254 302.568 795.518 304.676C793.782 306.784 791.488 308.479 788.636 309.76C785.825 311.041 782.332 311.682 778.158 311.682C777.496 311.682 776.608 311.661 775.492 311.62C774.417 311.579 773.28 311.517 772.082 311.434C770.924 311.393 769.808 311.331 768.734 311.248C767.659 311.207 766.853 311.145 766.316 311.062V267.6ZM779.646 274.544C778.736 274.544 777.806 274.565 776.856 274.606C775.946 274.647 775.264 274.709 774.81 274.792V303.87C774.975 303.911 775.244 303.953 775.616 303.994C776.029 303.994 776.463 304.015 776.918 304.056C777.372 304.056 777.806 304.077 778.22 304.118C778.633 304.118 778.943 304.118 779.15 304.118C781.547 304.118 783.531 303.705 785.102 302.878C786.714 302.01 787.974 300.873 788.884 299.468C789.834 298.063 790.496 296.451 790.868 294.632C791.24 292.772 791.426 290.871 791.426 288.928C791.426 287.233 791.26 285.539 790.93 283.844C790.599 282.108 789.979 280.558 789.07 279.194C788.202 277.83 787.003 276.714 785.474 275.846C783.944 274.978 782.002 274.544 779.646 274.544ZM806.086 289.61H821.648V296.74H806.086V289.61ZM831.342 304.18H839.96V279.69L840.89 275.474L837.914 279.132L832.396 282.914L828.986 278.264L843.122 266.856H847.648V304.18H856.08V311H831.342V304.18ZM863.048 281.178C863.048 279.07 863.358 277.127 863.978 275.35C864.639 273.573 865.569 272.064 866.768 270.824C868.008 269.543 869.496 268.551 871.232 267.848C873.009 267.104 875.034 266.732 877.308 266.732C881.978 266.732 885.636 268.137 888.282 270.948C890.968 273.717 892.312 277.768 892.312 283.1C892.312 287.895 891.692 292.049 890.452 295.562C889.253 299.034 887.62 301.948 885.554 304.304C883.528 306.619 881.172 308.396 878.486 309.636C875.799 310.876 872.968 311.62 869.992 311.868L868.256 305.544C870.529 305.255 872.554 304.697 874.332 303.87C876.109 303.043 877.638 302.031 878.92 300.832C880.201 299.592 881.234 298.207 882.02 296.678C882.846 295.107 883.425 293.433 883.756 291.656C882.764 292.731 881.689 293.475 880.532 293.888C879.416 294.301 877.907 294.508 876.006 294.508C874.435 294.508 872.864 294.239 871.294 293.702C869.764 293.165 868.38 292.359 867.14 291.284C865.941 290.168 864.949 288.783 864.164 287.13C863.42 285.435 863.048 283.451 863.048 281.178ZM870.86 280.744C870.86 283.1 871.521 284.877 872.844 286.076C874.166 287.275 875.82 287.874 877.804 287.874C879.498 287.874 880.883 287.605 881.958 287.068C883.032 286.531 883.859 285.869 884.438 285.084C884.562 284.216 884.624 283.389 884.624 282.604C884.624 281.447 884.479 280.31 884.19 279.194C883.9 278.078 883.446 277.086 882.826 276.218C882.247 275.35 881.482 274.668 880.532 274.172C879.622 273.635 878.527 273.366 877.246 273.366C875.22 273.366 873.65 274.027 872.534 275.35C871.418 276.631 870.86 278.429 870.86 280.744ZM914.651 280H920.541L921.471 283.72H921.719C922.794 282.149 924.055 280.992 925.501 280.248C926.989 279.504 928.787 279.132 930.895 279.132C934.781 279.132 937.695 280.372 939.637 282.852C941.58 285.291 942.551 289.238 942.551 294.694C942.551 297.339 942.241 299.737 941.621 301.886C941.001 303.994 940.071 305.792 938.831 307.28C937.633 308.768 936.145 309.905 934.367 310.69C932.631 311.475 930.627 311.868 928.353 311.868C927.072 311.868 926.018 311.765 925.191 311.558C924.365 311.393 923.538 311.103 922.711 310.69V323.4H914.651V280ZM928.477 285.952C926.907 285.952 925.667 286.345 924.757 287.13C923.889 287.915 923.207 289.093 922.711 290.664V303.56C923.29 304.015 923.91 304.387 924.571 304.676C925.274 304.924 926.183 305.048 927.299 305.048C929.614 305.048 931.35 304.242 932.507 302.63C933.665 300.977 934.243 298.269 934.243 294.508C934.243 291.78 933.789 289.672 932.879 288.184C931.97 286.696 930.503 285.952 928.477 285.952ZM947.948 281.798C949.601 281.054 951.564 280.475 953.838 280.062C956.111 279.607 958.488 279.38 960.968 279.38C963.117 279.38 964.915 279.649 966.362 280.186C967.808 280.682 968.945 281.405 969.772 282.356C970.64 283.307 971.239 284.443 971.57 285.766C971.942 287.089 972.128 288.577 972.128 290.23C972.128 292.049 972.066 293.888 971.942 295.748C971.818 297.567 971.735 299.365 971.694 301.142C971.694 302.919 971.756 304.655 971.88 306.35C972.004 308.003 972.314 309.574 972.81 311.062H966.238L964.936 306.784H964.626C963.799 308.065 962.642 309.181 961.154 310.132C959.707 311.041 957.826 311.496 955.512 311.496C954.065 311.496 952.763 311.289 951.606 310.876C950.448 310.421 949.456 309.801 948.63 309.016C947.803 308.189 947.162 307.239 946.708 306.164C946.253 305.048 946.026 303.808 946.026 302.444C946.026 300.543 946.439 298.951 947.266 297.67C948.134 296.347 949.353 295.293 950.924 294.508C952.536 293.681 954.437 293.123 956.628 292.834C958.86 292.503 961.34 292.4 964.068 292.524C964.357 290.209 964.192 288.556 963.572 287.564C962.952 286.531 961.567 286.014 959.418 286.014C957.806 286.014 956.09 286.179 954.272 286.51C952.494 286.841 951.027 287.275 949.87 287.812L947.948 281.798ZM958.178 304.862C959.79 304.862 961.071 304.511 962.022 303.808C962.972 303.064 963.675 302.279 964.13 301.452V297.422C962.848 297.298 961.608 297.277 960.41 297.36C959.252 297.443 958.219 297.629 957.31 297.918C956.4 298.207 955.677 298.621 955.14 299.158C954.602 299.695 954.334 300.377 954.334 301.204C954.334 302.361 954.664 303.271 955.326 303.932C956.028 304.552 956.979 304.862 958.178 304.862ZM997.863 311V293.392C997.863 290.871 997.491 289.052 996.747 287.936C996.045 286.82 994.825 286.262 993.089 286.262C991.56 286.262 990.258 286.717 989.183 287.626C988.15 288.494 987.406 289.589 986.951 290.912V311H978.891V280H985.277L986.207 284.092H986.455C987.406 282.769 988.667 281.612 990.237 280.62C991.808 279.628 993.833 279.132 996.313 279.132C997.843 279.132 999.207 279.339 1000.41 279.752C1001.6 280.165 1002.62 280.847 1003.44 281.798C1004.27 282.749 1004.89 284.051 1005.3 285.704C1005.72 287.316 1005.92 289.321 1005.92 291.718V311H997.863ZM1039.03 300.088C1039.03 301.824 1039.05 303.56 1039.09 305.296C1039.13 307.032 1039.32 308.954 1039.65 311.062H1033.88L1032.76 307.032H1032.52C1031.69 308.479 1030.49 309.657 1028.92 310.566C1027.39 311.434 1025.57 311.868 1023.46 311.868C1019.58 311.868 1016.56 310.587 1014.41 308.024C1012.26 305.461 1011.19 301.452 1011.19 295.996C1011.19 290.705 1012.39 286.593 1014.78 283.658C1017.18 280.723 1020.7 279.256 1025.32 279.256C1026.61 279.256 1027.66 279.339 1028.49 279.504C1029.31 279.628 1030.14 279.855 1030.97 280.186V267.6H1039.03V300.088ZM1025.32 305.048C1026.9 305.048 1028.14 304.676 1029.04 303.932C1029.95 303.147 1030.59 302.031 1030.97 300.584V287.44C1030.39 286.985 1029.75 286.655 1029.04 286.448C1028.34 286.2 1027.43 286.076 1026.32 286.076C1024.04 286.076 1022.33 286.841 1021.17 288.37C1020.05 289.899 1019.5 292.524 1019.5 296.244C1019.5 298.889 1019.95 301.018 1020.86 302.63C1021.81 304.242 1023.3 305.048 1025.32 305.048ZM1070.9 308.334C1069.66 309.326 1067.96 310.173 1065.81 310.876C1063.71 311.537 1061.45 311.868 1059.06 311.868C1054.06 311.868 1050.4 310.421 1048.08 307.528C1045.77 304.593 1044.61 300.584 1044.61 295.5C1044.61 290.044 1045.91 285.952 1048.52 283.224C1051.12 280.496 1054.78 279.132 1059.49 279.132C1061.06 279.132 1062.59 279.339 1064.08 279.752C1065.57 280.165 1066.89 280.847 1068.05 281.798C1069.2 282.749 1070.13 284.03 1070.84 285.642C1071.54 287.254 1071.89 289.259 1071.89 291.656C1071.89 292.524 1071.83 293.454 1071.7 294.446C1071.62 295.438 1071.48 296.471 1071.27 297.546H1052.67C1052.79 300.15 1053.46 302.113 1054.65 303.436C1055.89 304.759 1057.88 305.42 1060.61 305.42C1062.3 305.42 1063.81 305.172 1065.13 304.676C1066.5 304.139 1067.53 303.601 1068.23 303.064L1070.9 308.334ZM1059.37 285.58C1057.26 285.58 1055.69 286.221 1054.65 287.502C1053.66 288.742 1053.06 290.416 1052.86 292.524H1064.39C1064.55 290.292 1064.2 288.577 1063.33 287.378C1062.51 286.179 1061.19 285.58 1059.37 285.58ZM1095.19 311V294.136C1095.19 291.284 1094.92 289.259 1094.38 288.06C1093.85 286.861 1092.73 286.262 1091.04 286.262C1089.63 286.262 1088.49 286.655 1087.63 287.44C1086.76 288.184 1086.1 289.155 1085.64 290.354V311H1077.58V280H1083.84L1084.77 284.092H1085.02C1085.97 282.769 1087.17 281.612 1088.62 280.62C1090.11 279.628 1092.01 279.132 1094.32 279.132C1096.31 279.132 1097.92 279.545 1099.16 280.372C1100.44 281.157 1101.43 282.501 1102.13 284.402C1103.09 282.79 1104.3 281.509 1105.79 280.558C1107.28 279.607 1109.08 279.132 1111.19 279.132C1112.92 279.132 1114.39 279.339 1115.59 279.752C1116.83 280.165 1117.82 280.889 1118.56 281.922C1119.35 282.914 1119.93 284.257 1120.3 285.952C1120.67 287.647 1120.86 289.796 1120.86 292.4V311H1112.8V293.578C1112.8 291.139 1112.53 289.321 1111.99 288.122C1111.5 286.882 1110.36 286.262 1108.58 286.262C1107.14 286.262 1105.98 286.655 1105.11 287.44C1104.28 288.225 1103.66 289.3 1103.25 290.664V311H1095.19ZM1128.22 280H1136.28V311H1128.22V280ZM1127.04 271.258C1127.04 270.059 1127.47 269.047 1128.34 268.22C1129.25 267.352 1130.49 266.918 1132.06 266.918C1133.63 266.918 1134.89 267.352 1135.84 268.22C1136.84 269.047 1137.33 270.059 1137.33 271.258C1137.33 272.457 1136.84 273.469 1135.84 274.296C1134.89 275.081 1133.63 275.474 1132.06 275.474C1130.49 275.474 1129.25 275.081 1128.34 274.296C1127.47 273.469 1127.04 272.457 1127.04 271.258ZM1166.07 309.078C1164.83 309.987 1163.32 310.669 1161.55 311.124C1159.81 311.62 1158.01 311.868 1156.15 311.868C1153.67 311.868 1151.56 311.475 1149.83 310.69C1148.13 309.905 1146.75 308.809 1145.67 307.404C1144.6 305.957 1143.81 304.221 1143.32 302.196C1142.86 300.171 1142.64 297.939 1142.64 295.5C1142.64 290.251 1143.81 286.221 1146.17 283.41C1148.53 280.558 1151.96 279.132 1156.46 279.132C1158.74 279.132 1160.55 279.318 1161.92 279.69C1163.32 280.062 1164.58 280.537 1165.7 281.116L1163.78 287.688C1162.83 287.233 1161.88 286.882 1160.93 286.634C1160.02 286.386 1158.96 286.262 1157.76 286.262C1155.53 286.262 1153.84 287.006 1152.68 288.494C1151.52 289.941 1150.94 292.276 1150.94 295.5C1150.94 296.823 1151.09 298.042 1151.38 299.158C1151.67 300.274 1152.1 301.245 1152.68 302.072C1153.26 302.899 1154 303.56 1154.91 304.056C1155.86 304.511 1156.96 304.738 1158.2 304.738C1159.56 304.738 1160.72 304.573 1161.67 304.242C1162.62 303.87 1163.47 303.436 1164.21 302.94L1166.07 309.078ZM1184.93 281.798C1186.58 281.054 1188.54 280.475 1190.82 280.062C1193.09 279.607 1195.47 279.38 1197.95 279.38C1200.1 279.38 1201.9 279.649 1203.34 280.186C1204.79 280.682 1205.93 281.405 1206.75 282.356C1207.62 283.307 1208.22 284.443 1208.55 285.766C1208.92 287.089 1209.11 288.577 1209.11 290.23C1209.11 292.049 1209.05 293.888 1208.92 295.748C1208.8 297.567 1208.72 299.365 1208.67 301.142C1208.67 302.919 1208.74 304.655 1208.86 306.35C1208.98 308.003 1209.29 309.574 1209.79 311.062H1203.22L1201.92 306.784H1201.61C1200.78 308.065 1199.62 309.181 1198.13 310.132C1196.69 311.041 1194.81 311.496 1192.49 311.496C1191.05 311.496 1189.74 311.289 1188.59 310.876C1187.43 310.421 1186.44 309.801 1185.61 309.016C1184.78 308.189 1184.14 307.239 1183.69 306.164C1183.23 305.048 1183.01 303.808 1183.01 302.444C1183.01 300.543 1183.42 298.951 1184.25 297.67C1185.11 296.347 1186.33 295.293 1187.9 294.508C1189.52 293.681 1191.42 293.123 1193.61 292.834C1195.84 292.503 1198.32 292.4 1201.05 292.524C1201.34 290.209 1201.17 288.556 1200.55 287.564C1199.93 286.531 1198.55 286.014 1196.4 286.014C1194.79 286.014 1193.07 286.179 1191.25 286.51C1189.47 286.841 1188.01 287.275 1186.85 287.812L1184.93 281.798ZM1195.16 304.862C1196.77 304.862 1198.05 304.511 1199 303.808C1199.95 303.064 1200.66 302.279 1201.11 301.452V297.422C1199.83 297.298 1198.59 297.277 1197.39 297.36C1196.23 297.443 1195.2 297.629 1194.29 297.918C1193.38 298.207 1192.66 298.621 1192.12 299.158C1191.58 299.695 1191.31 300.377 1191.31 301.204C1191.31 302.361 1191.64 303.271 1192.31 303.932C1193.01 304.552 1193.96 304.862 1195.16 304.862ZM1234.84 311V293.392C1234.84 290.871 1234.47 289.052 1233.73 287.936C1233.03 286.82 1231.81 286.262 1230.07 286.262C1228.54 286.262 1227.24 286.717 1226.16 287.626C1225.13 288.494 1224.39 289.589 1223.93 290.912V311H1215.87V280H1222.26L1223.19 284.092H1223.44C1224.39 282.769 1225.65 281.612 1227.22 280.62C1228.79 279.628 1230.81 279.132 1233.29 279.132C1234.82 279.132 1236.19 279.339 1237.39 279.752C1238.58 280.165 1239.6 280.847 1240.42 281.798C1241.25 282.749 1241.87 284.051 1242.28 285.704C1242.7 287.316 1242.9 289.321 1242.9 291.718V311H1234.84ZM1276.01 300.088C1276.01 301.824 1276.03 303.56 1276.07 305.296C1276.11 307.032 1276.3 308.954 1276.63 311.062H1270.86L1269.75 307.032H1269.5C1268.67 308.479 1267.47 309.657 1265.9 310.566C1264.37 311.434 1262.55 311.868 1260.45 311.868C1256.56 311.868 1253.54 310.587 1251.39 308.024C1249.24 305.461 1248.17 301.452 1248.17 295.996C1248.17 290.705 1249.37 286.593 1251.77 283.658C1254.16 280.723 1257.68 279.256 1262.31 279.256C1263.59 279.256 1264.64 279.339 1265.47 279.504C1266.29 279.628 1267.12 279.855 1267.95 280.186V267.6H1276.01V300.088ZM1262.31 305.048C1263.88 305.048 1265.12 304.676 1266.03 303.932C1266.93 303.147 1267.58 302.031 1267.95 300.584V287.44C1267.37 286.985 1266.73 286.655 1266.03 286.448C1265.32 286.2 1264.41 286.076 1263.3 286.076C1261.02 286.076 1259.31 286.841 1258.15 288.37C1257.04 289.899 1256.48 292.524 1256.48 296.244C1256.48 298.889 1256.93 301.018 1257.84 302.63C1258.79 304.242 1260.28 305.048 1262.31 305.048ZM445.348 348.798C447.001 348.054 448.965 347.475 451.238 347.062C453.511 346.607 455.888 346.38 458.368 346.38C460.517 346.38 462.315 346.649 463.762 347.186C465.209 347.682 466.345 348.405 467.172 349.356C468.04 350.307 468.639 351.443 468.97 352.766C469.342 354.089 469.528 355.577 469.528 357.23C469.528 359.049 469.466 360.888 469.342 362.748C469.218 364.567 469.135 366.365 469.094 368.142C469.094 369.919 469.156 371.655 469.28 373.35C469.404 375.003 469.714 376.574 470.21 378.062H463.638L462.336 373.784H462.026C461.199 375.065 460.042 376.181 458.554 377.132C457.107 378.041 455.227 378.496 452.912 378.496C451.465 378.496 450.163 378.289 449.006 377.876C447.849 377.421 446.857 376.801 446.03 376.016C445.203 375.189 444.563 374.239 444.108 373.164C443.653 372.048 443.426 370.808 443.426 369.444C443.426 367.543 443.839 365.951 444.666 364.67C445.534 363.347 446.753 362.293 448.324 361.508C449.936 360.681 451.837 360.123 454.028 359.834C456.26 359.503 458.74 359.4 461.468 359.524C461.757 357.209 461.592 355.556 460.972 354.564C460.352 353.531 458.967 353.014 456.818 353.014C455.206 353.014 453.491 353.179 451.672 353.51C449.895 353.841 448.427 354.275 447.27 354.812L445.348 348.798ZM455.578 371.862C457.19 371.862 458.471 371.511 459.422 370.808C460.373 370.064 461.075 369.279 461.53 368.452V364.422C460.249 364.298 459.009 364.277 457.81 364.36C456.653 364.443 455.619 364.629 454.71 364.918C453.801 365.207 453.077 365.621 452.54 366.158C452.003 366.695 451.734 367.377 451.734 368.204C451.734 369.361 452.065 370.271 452.726 370.932C453.429 371.552 454.379 371.862 455.578 371.862ZM473.068 347H477.346V341.172L485.406 338.878V347H492.97V353.82H485.406V365.724C485.406 367.873 485.612 369.423 486.026 370.374C486.48 371.283 487.307 371.738 488.506 371.738C489.332 371.738 490.035 371.655 490.614 371.49C491.234 371.325 491.916 371.077 492.66 370.746L494.086 376.946C492.97 377.483 491.668 377.938 490.18 378.31C488.692 378.682 487.183 378.868 485.654 378.868C482.802 378.868 480.694 378.145 479.33 376.698C478.007 375.21 477.346 372.792 477.346 369.444V353.82H473.068V347ZM521.897 367.584C521.897 369.031 522.083 370.085 522.455 370.746C522.827 371.407 523.426 371.738 524.253 371.738C524.749 371.738 525.224 371.697 525.679 371.614C526.175 371.531 526.774 371.345 527.477 371.056L528.345 377.38C527.683 377.711 526.671 378.041 525.307 378.372C523.943 378.703 522.537 378.868 521.091 378.868C518.735 378.868 516.937 378.331 515.697 377.256C514.457 376.14 513.837 374.321 513.837 371.8V334.6H521.897V367.584ZM556.613 375.334C555.373 376.326 553.679 377.173 551.529 377.876C549.421 378.537 547.169 378.868 544.771 378.868C539.77 378.868 536.112 377.421 533.797 374.528C531.483 371.593 530.325 367.584 530.325 362.5C530.325 357.044 531.627 352.952 534.231 350.224C536.835 347.496 540.493 346.132 545.205 346.132C546.776 346.132 548.305 346.339 549.793 346.752C551.281 347.165 552.604 347.847 553.761 348.798C554.919 349.749 555.849 351.03 556.551 352.642C557.254 354.254 557.605 356.259 557.605 358.656C557.605 359.524 557.543 360.454 557.419 361.446C557.337 362.438 557.192 363.471 556.985 364.546H538.385C538.509 367.15 539.171 369.113 540.369 370.436C541.609 371.759 543.593 372.42 546.321 372.42C548.016 372.42 549.525 372.172 550.847 371.676C552.211 371.139 553.245 370.601 553.947 370.064L556.613 375.334ZM545.081 352.58C542.973 352.58 541.403 353.221 540.369 354.502C539.377 355.742 538.778 357.416 538.571 359.524H550.103C550.269 357.292 549.917 355.577 549.049 354.378C548.223 353.179 546.9 352.58 545.081 352.58ZM563.112 348.798C564.765 348.054 566.728 347.475 569.002 347.062C571.275 346.607 573.652 346.38 576.132 346.38C578.281 346.38 580.079 346.649 581.526 347.186C582.972 347.682 584.109 348.405 584.936 349.356C585.804 350.307 586.403 351.443 586.734 352.766C587.106 354.089 587.292 355.577 587.292 357.23C587.292 359.049 587.23 360.888 587.106 362.748C586.982 364.567 586.899 366.365 586.858 368.142C586.858 369.919 586.92 371.655 587.044 373.35C587.168 375.003 587.478 376.574 587.974 378.062H581.402L580.1 373.784H579.79C578.963 375.065 577.806 376.181 576.318 377.132C574.871 378.041 572.99 378.496 570.676 378.496C569.229 378.496 567.927 378.289 566.77 377.876C565.612 377.421 564.62 376.801 563.794 376.016C562.967 375.189 562.326 374.239 561.872 373.164C561.417 372.048 561.19 370.808 561.19 369.444C561.19 367.543 561.603 365.951 562.43 364.67C563.298 363.347 564.517 362.293 566.088 361.508C567.7 360.681 569.601 360.123 571.792 359.834C574.024 359.503 576.504 359.4 579.232 359.524C579.521 357.209 579.356 355.556 578.736 354.564C578.116 353.531 576.731 353.014 574.582 353.014C572.97 353.014 571.254 353.179 569.436 353.51C567.658 353.841 566.191 354.275 565.034 354.812L563.112 348.798ZM573.342 371.862C574.954 371.862 576.235 371.511 577.186 370.808C578.136 370.064 578.839 369.279 579.294 368.452V364.422C578.012 364.298 576.772 364.277 575.574 364.36C574.416 364.443 573.383 364.629 572.474 364.918C571.564 365.207 570.841 365.621 570.304 366.158C569.766 366.695 569.498 367.377 569.498 368.204C569.498 369.361 569.828 370.271 570.49 370.932C571.192 371.552 572.143 371.862 573.342 371.862ZM606.889 369.444C606.889 368.617 606.538 367.956 605.835 367.46C605.133 366.964 604.265 366.509 603.231 366.096C602.198 365.683 601.061 365.269 599.821 364.856C598.581 364.401 597.445 363.802 596.411 363.058C595.378 362.273 594.51 361.301 593.807 360.144C593.105 358.945 592.753 357.416 592.753 355.556C592.753 352.497 593.663 350.162 595.481 348.55C597.3 346.938 599.925 346.132 603.355 346.132C605.711 346.132 607.84 346.38 609.741 346.876C611.643 347.372 613.131 347.93 614.205 348.55L612.407 354.378C611.457 354.006 610.258 353.613 608.811 353.2C607.365 352.787 605.897 352.58 604.409 352.58C602.012 352.58 600.813 353.51 600.813 355.37C600.813 356.114 601.165 356.713 601.867 357.168C602.57 357.623 603.438 358.057 604.471 358.47C605.505 358.842 606.641 359.255 607.881 359.71C609.121 360.165 610.258 360.764 611.291 361.508C612.325 362.211 613.193 363.141 613.895 364.298C614.598 365.455 614.949 366.943 614.949 368.762C614.949 371.903 613.937 374.383 611.911 376.202C609.927 377.979 606.931 378.868 602.921 378.868C600.731 378.868 598.664 378.579 596.721 378C594.82 377.463 593.27 376.822 592.071 376.078L594.303 370.064C595.254 370.601 596.515 371.139 598.085 371.676C599.656 372.172 601.268 372.42 602.921 372.42C604.12 372.42 605.071 372.193 605.773 371.738C606.517 371.283 606.889 370.519 606.889 369.444ZM616.988 347H621.266V341.172L629.326 338.878V347H636.89V353.82H629.326V365.724C629.326 367.873 629.532 369.423 629.946 370.374C630.4 371.283 631.227 371.738 632.426 371.738C633.252 371.738 633.955 371.655 634.534 371.49C635.154 371.325 635.836 371.077 636.58 370.746L638.006 376.946C636.89 377.483 635.588 377.938 634.1 378.31C632.612 378.682 631.103 378.868 629.574 378.868C626.722 378.868 624.614 378.145 623.25 376.698C621.927 375.21 621.266 372.792 621.266 369.444V353.82H616.988V347ZM688.261 365.91H681.441V378H673.939V365.91H655.153V361.322L674.807 334.29H681.441V359.462H688.261V365.91ZM673.939 349.976L674.497 344.768H674.249L672.141 349.232L665.693 357.602L662.593 359.958L666.561 359.462H673.939V349.976ZM725.976 378V361.136C725.976 358.284 725.707 356.259 725.17 355.06C724.633 353.861 723.517 353.262 721.822 353.262C720.417 353.262 719.28 353.655 718.412 354.44C717.544 355.184 716.883 356.155 716.428 357.354V378H708.368V347H714.63L715.56 351.092H715.808C716.759 349.769 717.957 348.612 719.404 347.62C720.892 346.628 722.793 346.132 725.108 346.132C727.092 346.132 728.704 346.545 729.944 347.372C731.225 348.157 732.217 349.501 732.92 351.402C733.871 349.79 735.09 348.509 736.578 347.558C738.066 346.607 739.864 346.132 741.972 346.132C743.708 346.132 745.175 346.339 746.374 346.752C747.614 347.165 748.606 347.889 749.35 348.922C750.135 349.914 750.714 351.257 751.086 352.952C751.458 354.647 751.644 356.796 751.644 359.4V378H743.584V360.578C743.584 358.139 743.315 356.321 742.778 355.122C742.282 353.882 741.145 353.262 739.368 353.262C737.921 353.262 736.764 353.655 735.896 354.44C735.069 355.225 734.449 356.3 734.036 357.664V378H725.976ZM756.771 362.5C756.771 357.251 758.052 353.221 760.615 350.41C763.177 347.558 766.773 346.132 771.403 346.132C773.883 346.132 776.032 346.525 777.851 347.31C779.669 348.095 781.178 349.211 782.377 350.658C783.575 352.063 784.464 353.779 785.043 355.804C785.663 357.829 785.973 360.061 785.973 362.5C785.973 367.749 784.691 371.8 782.129 374.652C779.607 377.463 776.032 378.868 771.403 378.868C768.923 378.868 766.773 378.475 764.955 377.69C763.136 376.905 761.607 375.809 760.367 374.404C759.168 372.957 758.259 371.221 757.639 369.196C757.06 367.171 756.771 364.939 756.771 362.5ZM765.079 362.5C765.079 363.864 765.203 365.125 765.451 366.282C765.699 367.439 766.071 368.452 766.567 369.32C767.063 370.188 767.703 370.87 768.489 371.366C769.315 371.821 770.287 372.048 771.403 372.048C773.511 372.048 775.081 371.283 776.115 369.754C777.148 368.225 777.665 365.807 777.665 362.5C777.665 359.648 777.189 357.354 776.239 355.618C775.288 353.841 773.676 352.952 771.403 352.952C769.419 352.952 767.869 353.696 766.753 355.184C765.637 356.672 765.079 359.111 765.079 362.5ZM810.531 378V360.392C810.531 357.871 810.159 356.052 809.415 354.936C808.713 353.82 807.493 353.262 805.757 353.262C804.228 353.262 802.926 353.717 801.851 354.626C800.818 355.494 800.074 356.589 799.619 357.912V378H791.559V347H797.945L798.875 351.092H799.123C800.074 349.769 801.335 348.612 802.905 347.62C804.476 346.628 806.501 346.132 808.981 346.132C810.511 346.132 811.875 346.339 813.073 346.752C814.272 347.165 815.285 347.847 816.111 348.798C816.938 349.749 817.558 351.051 817.971 352.704C818.385 354.316 818.591 356.321 818.591 358.718V378H810.531ZM822.121 347H826.399V341.172L834.459 338.878V347H842.023V353.82H834.459V365.724C834.459 367.873 834.665 369.423 835.079 370.374C835.533 371.283 836.36 371.738 837.559 371.738C838.385 371.738 839.088 371.655 839.667 371.49C840.287 371.325 840.969 371.077 841.713 370.746L843.139 376.946C842.023 377.483 840.721 377.938 839.233 378.31C837.745 378.682 836.236 378.868 834.707 378.868C831.855 378.868 829.747 378.145 828.383 376.698C827.06 375.21 826.399 372.792 826.399 369.444V353.82H822.121V347ZM865.932 378V360.392C865.932 357.871 865.58 356.052 864.878 354.936C864.175 353.82 862.894 353.262 861.034 353.262C859.67 353.262 858.409 353.737 857.252 354.688C856.136 355.597 855.392 356.775 855.02 358.222V378H846.96V334.6H855.02V350.472H855.268C856.26 349.149 857.479 348.095 858.926 347.31C860.372 346.525 862.212 346.132 864.444 346.132C866.014 346.132 867.399 346.339 868.598 346.752C869.796 347.165 870.788 347.847 871.574 348.798C872.4 349.749 873 351.051 873.372 352.704C873.785 354.316 873.992 356.321 873.992 358.718V378H865.932ZM893.579 369.444C893.579 368.617 893.228 367.956 892.525 367.46C891.822 366.964 890.954 366.509 889.921 366.096C888.888 365.683 887.751 365.269 886.511 364.856C885.271 364.401 884.134 363.802 883.101 363.058C882.068 362.273 881.2 361.301 880.497 360.144C879.794 358.945 879.443 357.416 879.443 355.556C879.443 352.497 880.352 350.162 882.171 348.55C883.99 346.938 886.614 346.132 890.045 346.132C892.401 346.132 894.53 346.38 896.431 346.876C898.332 347.372 899.82 347.93 900.895 348.55L899.097 354.378C898.146 354.006 896.948 353.613 895.501 353.2C894.054 352.787 892.587 352.58 891.099 352.58C888.702 352.58 887.503 353.51 887.503 355.37C887.503 356.114 887.854 356.713 888.557 357.168C889.26 357.623 890.128 358.057 891.161 358.47C892.194 358.842 893.331 359.255 894.571 359.71C895.811 360.165 896.948 360.764 897.981 361.508C899.014 362.211 899.882 363.141 900.585 364.298C901.288 365.455 901.639 366.943 901.639 368.762C901.639 371.903 900.626 374.383 898.601 376.202C896.617 377.979 893.62 378.868 889.611 378.868C887.42 378.868 885.354 378.579 883.411 378C881.51 377.463 879.96 376.822 878.761 376.078L880.993 370.064C881.944 370.601 883.204 371.139 884.775 371.676C886.346 372.172 887.958 372.42 889.611 372.42C890.81 372.42 891.76 372.193 892.463 371.738C893.207 371.283 893.579 370.519 893.579 369.444ZM921.095 362.5C921.095 357.251 922.376 353.221 924.939 350.41C927.501 347.558 931.097 346.132 935.727 346.132C938.207 346.132 940.356 346.525 942.175 347.31C943.993 348.095 945.502 349.211 946.701 350.658C947.899 352.063 948.788 353.779 949.367 355.804C949.987 357.829 950.297 360.061 950.297 362.5C950.297 367.749 949.015 371.8 946.453 374.652C943.931 377.463 940.356 378.868 935.727 378.868C933.247 378.868 931.097 378.475 929.279 377.69C927.46 376.905 925.931 375.809 924.691 374.404C923.492 372.957 922.583 371.221 921.963 369.196C921.384 367.171 921.095 364.939 921.095 362.5ZM929.403 362.5C929.403 363.864 929.527 365.125 929.775 366.282C930.023 367.439 930.395 368.452 930.891 369.32C931.387 370.188 932.027 370.87 932.813 371.366C933.639 371.821 934.611 372.048 935.727 372.048C937.835 372.048 939.405 371.283 940.439 369.754C941.472 368.225 941.989 365.807 941.989 362.5C941.989 359.648 941.513 357.354 940.563 355.618C939.612 353.841 938 352.952 935.727 352.952C933.743 352.952 932.193 353.696 931.077 355.184C929.961 356.672 929.403 359.111 929.403 362.5ZM964.192 367.584C964.192 369.031 964.378 370.085 964.75 370.746C965.122 371.407 965.721 371.738 966.548 371.738C967.044 371.738 967.519 371.697 967.974 371.614C968.47 371.531 969.069 371.345 969.772 371.056L970.64 377.38C969.978 377.711 968.966 378.041 967.602 378.372C966.238 378.703 964.832 378.868 963.386 378.868C961.03 378.868 959.232 378.331 957.992 377.256C956.752 376.14 956.132 374.321 956.132 371.8V334.6H964.192V367.584ZM1000.46 367.088C1000.46 368.824 1000.48 370.56 1000.52 372.296C1000.56 374.032 1000.75 375.954 1001.08 378.062H995.312L994.196 374.032H993.948C993.122 375.479 991.923 376.657 990.352 377.566C988.823 378.434 987.004 378.868 984.896 378.868C981.011 378.868 977.994 377.587 975.844 375.024C973.695 372.461 972.62 368.452 972.62 362.996C972.62 357.705 973.819 353.593 976.216 350.658C978.614 347.723 982.127 346.256 986.756 346.256C988.038 346.256 989.092 346.339 989.918 346.504C990.745 346.628 991.572 346.855 992.398 347.186V334.6H1000.46V367.088ZM986.756 372.048C988.327 372.048 989.567 371.676 990.476 370.932C991.386 370.147 992.026 369.031 992.398 367.584V354.44C991.82 353.985 991.179 353.655 990.476 353.448C989.774 353.2 988.864 353.076 987.748 353.076C985.475 353.076 983.76 353.841 982.602 355.37C981.486 356.899 980.928 359.524 980.928 363.244C980.928 365.889 981.383 368.018 982.292 369.63C983.243 371.242 984.731 372.048 986.756 372.048ZM1032.33 375.334C1031.09 376.326 1029.4 377.173 1027.25 377.876C1025.14 378.537 1022.89 378.868 1020.49 378.868C1015.49 378.868 1011.83 377.421 1009.51 374.528C1007.2 371.593 1006.04 367.584 1006.04 362.5C1006.04 357.044 1007.34 352.952 1009.95 350.224C1012.55 347.496 1016.21 346.132 1020.92 346.132C1022.49 346.132 1024.02 346.339 1025.51 346.752C1027 347.165 1028.32 347.847 1029.48 348.798C1030.64 349.749 1031.57 351.03 1032.27 352.642C1032.97 354.254 1033.32 356.259 1033.32 358.656C1033.32 359.524 1033.26 360.454 1033.14 361.446C1033.05 362.438 1032.91 363.471 1032.7 364.546H1014.1C1014.23 367.15 1014.89 369.113 1016.09 370.436C1017.33 371.759 1019.31 372.42 1022.04 372.42C1023.73 372.42 1025.24 372.172 1026.56 371.676C1027.93 371.139 1028.96 370.601 1029.66 370.064L1032.33 375.334ZM1020.8 352.58C1018.69 352.58 1017.12 353.221 1016.09 354.502C1015.09 355.742 1014.49 357.416 1014.29 359.524H1025.82C1025.99 357.292 1025.63 355.577 1024.77 354.378C1023.94 353.179 1022.62 352.58 1020.8 352.58ZM1056.13 354.564C1054.85 354.109 1053.69 353.882 1052.65 353.882C1051.21 353.882 1049.99 354.275 1049 355.06C1048.05 355.804 1047.41 356.775 1047.07 357.974V378H1039.01V347H1045.28L1046.21 351.092H1046.45C1047.16 349.563 1048.11 348.385 1049.31 347.558C1050.51 346.731 1051.91 346.318 1053.52 346.318C1054.6 346.318 1055.82 346.545 1057.18 347L1056.13 354.564Z" fill="black"/>
<path d="M276 62L84 62" stroke="#922A2A" stroke-width="12"/>
<path d="M276 176H84" stroke="#922A2A" stroke-width="12" stroke-dasharray="14 14"/>
<path d="M276 314H84" stroke="#CFB4B4" stroke-width="12" stroke-dasharray="14 14"/>
<rect x="59" y="39" width="50" height="46" fill="#922A2A"/>
<rect x="251" y="39" width="50" height="46" fill="#922A2A"/>
<rect x="59" y="153" width="50" height="46" fill="#922A2A"/>
<rect x="251" y="153" width="50" height="46" fill="#922A2A"/>
<rect x="59" y="291" width="50" height="46" fill="#CFB4B4"/>
<rect x="251" y="291" width="50" height="46" fill="#CFB4B4"/>
</svg>
