<svg width="1225" height="1160" viewBox="0 0 1225 1160" fill="none" xmlns="http://www.w3.org/2000/svg">
<path d="M707.957 579.99L1005.09 282.879C1015.64 272.328 1015.64 255.254 1005.09 244.707L948.302 187.9C943.244 182.846 936.381 180 929.217 180C922.052 180 915.189 182.846 910.131 187.9L613 485.034L315.87 187.9C310.812 182.846 303.949 180 296.784 180C289.62 180 282.755 182.846 277.699 187.9L220.913 244.707C210.362 255.254 210.362 272.328 220.913 282.879L518.044 579.992L220.943 877.069C210.397 887.62 210.397 904.694 220.943 915.241L277.732 972.048C282.786 977.102 289.651 979.948 296.817 979.948C303.982 979.948 310.845 977.102 315.904 972.048L612.999 674.949L910.095 972.048C915.152 977.102 922.015 979.948 929.181 979.948C936.348 979.948 943.211 977.102 948.265 972.048L1005.05 915.241C1015.6 904.694 1015.6 887.62 1005.05 877.069L707.957 579.99Z" fill="black"/>
</svg>
